{
.appVersion = "3133";
.formatVersion = 3;
DisplayStrings = (
"/uni11ABF ᕼᕼ ᕼᕼ/Placeholder ᕼᕼ
ᕼᕼᕼᕼ/Placeholder/Placeholder/Placeholder/Placeholder ᕼᕼᕼᕼ
/zero.canadian/zero.canadian/zero.canadian/zero.canadian/Placeholder/Placeholder/Placeholder/Placeholder/zero.canadian/zero.canadian/zero.canadian/zero.canadian"
);
axes = (
{
name = Weight;
tag = wght;
},
{
name = Width;
tag = wdth;
}
);
classes = (
{
code = "zero one two three four five six seven eight nine ";
name = Num;
},
{
code = "zero.canadian one.canadian two.canadian three.canadian four.canadian five.canadian six.canadian seven.canadian eight.canadian nine.canadian 
";
name = Num_can;
}
);
customParameters = (
{
name = vendorID;
value = GOOG;
},
{
name = panose;
value = (
2,
11,
5,
2,
4,
5,
4,
2,
2,
4
);
},
{
name = unicodeRanges;
value = (
0,
1,
2,
5,
6,
45,
77
);
},
{
name = codePageRanges;
value = (
"1252"
);
},
{
name = fsType;
value = (
);
}
);
date = "2022-06-21 10:06:40 +0000";
familyName = "Sans Canadian Aboriginal";
featurePrefixes = (
{
automatic = 1;
code = "languagesystem DFLT dflt;

languagesystem cans dflt;
";
name = Languagesystems;
}
);
features = (
{
automatic = 1;
code = "feature salt;
";
tag = aalt;
},
{
code = "script DFLT;
language dflt;
lookup SUB_0 {
	sub sho-canadian by g727;
	sub shoo-canadian by g728;
	sub sha-canadian by g729;
	sub shaa-canadian by g730;
	sub shwo-canadian by g731;
	sub shwoWestCree-canadian by g732;
	sub shwoo-canadian by g733;
	sub shwooWestCree-canadian by g734;
	sub shwa-canadian by g735;
	sub shwaWestCree-canadian by g736;
	sub shwaa-canadian by g737;
	sub shwaaWestCree-canadian by g738;
	sub thiiThCree-canadian by g739;
	sub shoy-canadian by g740;
	sub shay-canadian by g741;
	sub shwoy-canadian by g742;
} SUB_0;
script cans;
language dflt;
lookup SUB_0;


";
tag = salt;
},
{
code = "sub space by space.canadian;

sub @Num by @Num_can;
";
labels = (
{
language = dflt;
value = "";
}
);
tag = ss01;
}
);
fontMaster = (
{
axesValues = (
26,
100
);

glyphs = (
{
glyphname = idotless;
lastChange = "2022-06-23 15:29:38 +0000";
layers = (
{
background = {
shapes = (
{
closed = 1;
nodes = (
(121,528,l),
(95,528,l),
(95,0,l),
(121,0,l),
(121,0,l)
);
}
);
};
layerId = m01;
shapes = (
{
closed = 1;
nodes = (
(121,528,l),
(95,528,l),
(95,0,l),
(121,0,l)
);
}
);
width = 216;
},
{
background = {
shapes = (
{
closed = 1;
nodes = (
(258,553,l),
(67,553,l),
(67,0,l),
(258,0,l)
);
}
);
};
layerId = "A1461942-0433-4891-A171-8512F51D8C86";
shapes = (
{
closed = 1;
nodes = (
(258,553,l),
(67,553,l),
(67,0,l),
(258,0,l)
);
}
);
width = 325;
},
{
background = {
shapes = (
{
closed = 1;
nodes = (
(90,528,l),
(65,528,l),
(65,0,l),
(90,0,l),
(90,0,l)
);
}
);
};
layerId = "341CD669-D84F-4333-8BC8-F9777E6D3814";
shapes = (
{
closed = 1;
nodes = (
(90,528,l),
(65,528,l),
(65,0,l),
(90,0,l)
);
}
);
width = 155;
},
{
background = {
shapes = (
{
closed = 1;
nodes = (
(222,552,l),
(41,552,l),
(41,0,l),
(222,0,l)
);
}
);
};
layerId = "4DD67900-F9B0-4F36-BC45-F4B21129580C";
shapes = (
{
closed = 1;
nodes = (
(222,552,l),
(41,552,l),
(41,0,l),
(222,0,l)
);
}
);
width = 263;
}
);
note = dotlessi;
unicode = 305;
},
{
color = 11;
glyphname = "acuteFinal-canadian";
lastChange = "2022-07-04 21:50:21 +0000";
layers = (
{
background = {
shapes = (
{
closed = 1;
nodes = (
(577,0,l),
(577,13,l),
(242,714,l),
(217,714,l),
(-118,13,l),
(-118,0,l)
);
},
{
closed = 1;
nodes = (
(234,695,l),
(226,695,l),
(548,14,l),
(548,25,l),
(-88,25,l),
(-88,14,l)
);
}
);
};
layerId = m01;
shapes = (
{
closed = 1;
nodes = (
(71,357,l),
(242,714,l),
(216,714,l),
(45,357,l)
);
}
);
width = 287;
},
{
background = {
shapes = (
{
closed = 1;
nodes = (
(154,357,l),
(348,714,l),
(219,714,l),
(25,357,l)
);
}
);
};
layerId = "A1461942-0433-4891-A171-8512F51D8C86";
shapes = (
{
closed = 1;
nodes = (
(154,357,l),
(348,714,l),
(219,714,l),
(25,357,l)
);
}
);
width = 373;
},
{
background = {
shapes = (
{
closed = 1;
nodes = (
(40,357,l),
(161,714,l),
(139,714,l),
(18,357,l)
);
}
);
};
layerId = "341CD669-D84F-4333-8BC8-F9777E6D3814";
shapes = (
{
closed = 1;
nodes = (
(41,357,l),
(162,714,l),
(139,714,l),
(18,357,l)
);
}
);
width = 180;
},
{
background = {
shapes = (
{
closed = 1;
nodes = (
(138,357,l),
(284,714,l),
(164,714,l),
(18,357,l)
);
}
);
};
layerId = "4DD67900-F9B0-4F36-BC45-F4B21129580C";
shapes = (
{
closed = 1;
nodes = (
(138,357,l),
(284,714,l),
(164,714,l),
(18,357,l)
);
}
);
width = 302;
}
);
note = uni141F;
unicode = 5151;
},
{
color = 11;
glyphname = "graveFinal-canadian";
lastChange = "2022-07-04 21:50:21 +0000";
layers = (
{
background = {
shapes = (
{
closed = 1;
nodes = (
(69,714,l),
(41,714,l),
(217,352,l),
(245,352,l),
(245,352,l)
);
}
);
};
layerId = m01;
shapes = (
{
closed = 1;
nodes = (
(241,357,l),
(70,714,l),
(45,714,l),
(216,357,l)
);
}
);
width = 286;
},
{
background = {
shapes = (
{
closed = 1;
nodes = (
(341,357,l),
(147,714,l),
(25,714,l),
(219,357,l)
);
}
);
};
layerId = "A1461942-0433-4891-A171-8512F51D8C86";
shapes = (
{
closed = 1;
nodes = (
(341,357,l),
(147,714,l),
(25,714,l),
(219,357,l)
);
}
);
width = 366;
},
{
background = {
shapes = (
{
closed = 1;
nodes = (
(160,357,l),
(39,714,l),
(18,714,l),
(139,357,l)
);
}
);
};
layerId = "341CD669-D84F-4333-8BC8-F9777E6D3814";
shapes = (
{
closed = 1;
nodes = (
(162,357,l),
(40,714,l),
(18,714,l),
(140,357,l)
);
}
);
width = 180;
},
{
background = {
shapes = (
{
closed = 1;
nodes = (
(277,357,l),
(131,714,l),
(18,714,l),
(164,357,l)
);
}
);
};
layerId = "4DD67900-F9B0-4F36-BC45-F4B21129580C";
shapes = (
{
closed = 1;
nodes = (
(277,357,l),
(131,714,l),
(18,714,l),
(164,357,l)
);
}
);
width = 295;
}
);
note = uni1420;
unicode = 5152;
},
{
color = 4;
glyphname = "ringBottomhalfFinal-canadian";
lastChange = "2022-07-04 21:50:21 +0000";
layers = (
{
background = {
shapes = (
{
closed = 1;
nodes = (
(312,351,o),
(370,412,o),
(370,519,cs),
(370,714,l),
(346,714,l),
(346,518,ls),
(346,419,o),
(299,373,o),
(220,373,cs),
(142,373,o),
(94,421,o),
(94,517,cs),
(94,714,l),
(70,714,l),
(70,516,ls),
(70,412,o),
(130,351,o),
(220,351,cs)
);
}
);
};
layerId = m01;
shapes = (
{
closed = 1;
nodes = (
(327,351,o),
(385,412,o),
(385,519,cs),
(385,714,l),
(361,714,l),
(361,518,ls),
(361,419,o),
(314,373,o),
(235,373,cs),
(157,373,o),
(109,421,o),
(109,517,cs),
(109,714,l),
(85,714,l),
(85,516,ls),
(85,412,o),
(145,351,o),
(235,351,cs)
);
}
);
width = 470;
},
{
background = {
shapes = (
{
closed = 1;
nodes = (
(326,351,o),
(392,419,o),
(392,531,cs),
(392,714,l),
(276,714,l),
(276,530,ls),
(276,478,o),
(254,455,o),
(215,455,cs),
(177,455,o),
(155,479,o),
(155,530,cs),
(155,714,l),
(39,714,l),
(39,531,ls),
(39,417,o),
(106,351,o),
(216,351,cs)
);
}
);
};
layerId = "A1461942-0433-4891-A171-8512F51D8C86";
shapes = (
{
closed = 1;
nodes = (
(325,351,o),
(392,417,o),
(392,531,cs),
(392,714,l),
(269,714,l),
(269,536,ls),
(269,487,o),
(250,464,o),
(216,464,cs),
(181,464,o),
(162,486,o),
(162,536,cs),
(162,714,l),
(39,714,l),
(39,531,ls),
(39,419,o),
(105,351,o),
(215,351,cs)
);
}
);
width = 431;
},
{
background = {
shapes = (
{
closed = 1;
nodes = (
(205,351,o),
(246,412,o),
(246,519,cs),
(246,714,l),
(226,714,l),
(226,518,ls),
(226,419,o),
(194,373,o),
(140,373,cs),
(87,373,o),
(55,421,o),
(55,517,cs),
(55,714,l),
(34,714,l),
(34,516,ls),
(34,413,o),
(76,351,o),
(140,351,cs)
);
}
);
};
layerId = "341CD669-D84F-4333-8BC8-F9777E6D3814";
shapes = (
{
closed = 1;
nodes = (
(218,351,o),
(256,398,o),
(256,489,cs),
(256,714,l),
(234,714,l),
(234,488,ls),
(234,407,o),
(207,373,o),
(150,373,cs),
(93,373,o),
(66,408,o),
(66,487,cs),
(66,714,l),
(44,714,l),
(44,486,ls),
(44,399,o),
(82,351,o),
(150,351,cs)
);
}
);
width = 300;
},
{
background = {
shapes = (
{
closed = 1;
nodes = (
(237,351,o),
(289,402,o),
(289,500,cs),
(289,714,l),
(181,714,l),
(181,497,ls),
(181,464,o),
(173,450,o),
(155,450,cs),
(137,450,o),
(129,464,o),
(129,497,cs),
(129,714,l),
(21,714,l),
(21,500,ls),
(21,402,o),
(75,351,o),
(155,351,cs)
);
}
);
};
layerId = "4DD67900-F9B0-4F36-BC45-F4B21129580C";
shapes = (
{
closed = 1;
nodes = (
(237,351,o),
(289,402,o),
(289,500,cs),
(289,714,l),
(181,714,l),
(181,501,ls),
(181,469,o),
(173,455,o),
(155,455,cs),
(137,455,o),
(129,469,o),
(129,501,cs),
(129,714,l),
(21,714,l),
(21,500,ls),
(21,402,o),
(75,351,o),
(155,351,cs)
);
}
);
width = 310;
}
);
metricLeft = "ai-canadian";
metricRight = "==|ai-canadian";
note = uni1421;
unicode = 5153;
},
{
color = 4;
glyphname = "ringTophalfFinal-canadian";
lastChange = "2022-07-04 21:50:21 +0000";
layers = (
{
background = {
shapes = (
{
closed = 1;
nodes = (
(94,357,l),
(94,553,ls),
(94,652,o),
(141,698,o),
(220,698,cs),
(298,698,o),
(346,650,o),
(346,554,cs),
(346,357,l),
(370,357,l),
(370,555,ls),
(370,659,o),
(310,720,o),
(220,720,cs),
(128,720,o),
(70,659,o),
(70,552,cs),
(70,357,l)
);
}
);
};
layerId = m01;
shapes = (
{
closed = 1;
nodes = (
(109,357,l),
(109,554,ls),
(109,650,o),
(157,698,o),
(235,698,cs),
(314,698,o),
(361,652,o),
(361,553,cs),
(361,357,l),
(385,357,l),
(385,552,ls),
(385,659,o),
(327,720,o),
(235,720,cs),
(145,720,o),
(85,659,o),
(85,555,cs),
(85,357,l)
);
}
);
width = 470;
},
{
background = {
shapes = (
{
closed = 1;
nodes = (
(155,357,l),
(155,541,ls),
(155,593,o),
(177,616,o),
(216,616,cs),
(254,616,o),
(276,592,o),
(276,541,cs),
(276,357,l),
(392,357,l),
(392,540,ls),
(392,654,o),
(325,720,o),
(215,720,cs),
(105,720,o),
(39,652,o),
(39,540,cs),
(39,357,l)
);
}
);
};
layerId = "A1461942-0433-4891-A171-8512F51D8C86";
shapes = (
{
closed = 1;
nodes = (
(162,357,l),
(162,535,ls),
(162,585,o),
(181,607,o),
(216,607,cs),
(250,607,o),
(269,584,o),
(269,535,cs),
(269,357,l),
(392,357,l),
(392,540,ls),
(392,654,o),
(325,720,o),
(215,720,cs),
(105,720,o),
(39,652,o),
(39,540,cs),
(39,357,l)
);
}
);
width = 431;
},
{
background = {
shapes = (
{
closed = 1;
nodes = (
(55,357,l),
(55,553,ls),
(55,651,o),
(86,698,o),
(140,698,cs),
(193,698,o),
(226,650,o),
(226,554,cs),
(226,357,l),
(246,357,l),
(246,555,ls),
(246,658,o),
(204,720,o),
(140,720,cs),
(75,720,o),
(34,659,o),
(34,552,cs),
(34,357,l)
);
}
);
};
layerId = "341CD669-D84F-4333-8BC8-F9777E6D3814";
shapes = (
{
closed = 1;
nodes = (
(66,357,l),
(66,584,ls),
(66,663,o),
(93,698,o),
(150,698,cs),
(207,698,o),
(234,664,o),
(234,583,cs),
(234,357,l),
(256,357,l),
(256,582,ls),
(256,673,o),
(218,720,o),
(150,720,cs),
(82,720,o),
(44,672,o),
(44,585,cs),
(44,357,l)
);
}
);
width = 300;
},
{
background = {
shapes = (
{
closed = 1;
nodes = (
(129,357,l),
(129,574,ls),
(129,607,o),
(137,621,o),
(155,621,cs),
(173,621,o),
(181,607,o),
(181,574,cs),
(181,357,l),
(289,357,l),
(289,571,ls),
(289,669,o),
(237,720,o),
(155,720,cs),
(75,720,o),
(21,669,o),
(21,571,cs),
(21,357,l)
);
}
);
};
layerId = "4DD67900-F9B0-4F36-BC45-F4B21129580C";
shapes = (
{
closed = 1;
nodes = (
(129,357,l),
(129,570,ls),
(129,602,o),
(137,616,o),
(155,616,cs),
(173,616,o),
(181,602,o),
(181,570,cs),
(181,357,l),
(289,357,l),
(289,571,ls),
(289,669,o),
(237,720,o),
(155,720,cs),
(75,720,o),
(21,669,o),
(21,571,cs),
(21,357,l)
);
}
);
width = 310;
}
);
metricLeft = "ai-canadian";
metricRight = "==|ai-canadian";
note = uni1422;
unicode = 5154;
},
{
color = 4;
glyphname = "ringRighthalfFinal-canadian";
lastChange = "2022-07-04 21:50:21 +0000";
layers = (
{
background = {
shapes = (
{
closed = 1;
nodes = (
(257,382,o),
(316,437,o),
(316,548,cs),
(316,659,o),
(257,714,o),
(137,714,cs),
(45,714,l),
(45,692,l),
(136,692,ls),
(253,692,o),
(292,639,o),
(292,548,cs),
(292,457,o),
(253,404,o),
(136,404,cs),
(45,404,l),
(45,382,l),
(137,382,l),
(137,382,l)
);
}
);
};
layerId = m01;
shapes = (
{
closed = 1;
nodes = (
(159,357,ls),
(266,357,o),
(330,427,o),
(330,536,cs),
(330,645,o),
(266,714,o),
(156,714,cs),
(75,714,l),
(75,692,l),
(156,692,ls),
(255,692,o),
(307,635,o),
(307,536,cs),
(307,437,o),
(255,379,o),
(156,379,cs),
(75,379,l),
(75,357,l)
);
}
);
width = 415;
},
{
background = {
shapes = (
{
closed = 1;
nodes = (
(146,357,ls),
(265,357,o),
(334,425,o),
(334,536,cs),
(334,648,o),
(265,714,o),
(146,714,cs),
(34,714,l),
(34,611,l),
(138,611,ls),
(189,611,o),
(218,587,o),
(218,536,cs),
(218,486,o),
(189,460,o),
(138,460,cs),
(34,460,l),
(34,357,l)
);
}
);
};
layerId = "A1461942-0433-4891-A171-8512F51D8C86";
shapes = (
{
closed = 1;
nodes = (
(146,357,ls),
(265,357,o),
(334,423,o),
(334,535,cs),
(334,646,o),
(265,714,o),
(146,714,cs),
(34,714,l),
(34,602,l),
(129,602,ls),
(180,602,o),
(209,579,o),
(209,535,cs),
(209,490,o),
(180,469,o),
(129,469,cs),
(34,469,l),
(34,357,l)
);
}
);
width = 373;
},
{
background = {
shapes = (
{
closed = 1;
nodes = (
(97,357,ls),
(172,357,o),
(217,427,o),
(217,536,cs),
(217,645,o),
(172,714,o),
(95,714,cs),
(37,714,l),
(37,692,l),
(95,692,ls),
(162,692,o),
(197,635,o),
(197,536,cs),
(197,437,o),
(162,379,o),
(95,379,cs),
(37,379,l),
(37,357,l)
);
}
);
};
layerId = "341CD669-D84F-4333-8BC8-F9777E6D3814";
shapes = (
{
closed = 1;
nodes = (
(59,357,ls),
(165,357,o),
(217,421,o),
(217,535,cs),
(217,649,o),
(165,714,o),
(61,714,cs),
(37,714,l),
(37,692,l),
(58,692,ls),
(152,692,o),
(194,637,o),
(194,535,cs),
(194,431,o),
(152,379,o),
(58,379,cs),
(37,379,l),
(37,357,l)
);
}
);
width = 261;
},
{
background = {
shapes = (
{
closed = 1;
nodes = (
(73,357,ls),
(182,357,o),
(247,424,o),
(247,535,cs),
(247,646,o),
(182,714,o),
(73,714,cs),
(19,714,l),
(19,616,l),
(65,616,ls),
(112,616,o),
(139,591,o),
(139,535,cs),
(139,479,o),
(112,455,o),
(65,455,cs),
(19,455,l),
(19,357,l)
);
}
);
};
layerId = "4DD67900-F9B0-4F36-BC45-F4B21129580C";
shapes = (
{
closed = 1;
nodes = (
(73,357,ls),
(182,357,o),
(247,428,o),
(247,535,cs),
(247,642,o),
(182,714,o),
(73,714,cs),
(19,714,l),
(19,606,l),
(61,606,ls),
(104,606,o),
(129,581,o),
(129,535,cs),
(129,489,o),
(104,465,o),
(61,465,cs),
(19,465,l),
(19,357,l)
);
}
);
width = 268;
}
);
metricLeft = "==|t-canadian";
metricWidth = "t-canadian";
note = uni1423;
unicode = 5155;
},
{
color = 4;
glyphname = "ringFinal-canadian";
lastChange = "2022-07-04 21:50:21 +0000";
layers = (
{
background = {
shapes = (
{
closed = 1;
nodes = (
(327,401,o),
(397,470,o),
(397,558,cs),
(397,646,o),
(326,714,o),
(238,714,cs),
(152,714,o),
(80,645,o),
(80,558,cs),
(80,471,o),
(150,401,o),
(238,401,cs)
);
},
{
closed = 1;
nodes = (
(163,423,o),
(104,483,o),
(104,559,cs),
(104,634,o),
(164,693,o),
(238,693,cs),
(312,693,o),
(373,634,o),
(373,559,cs),
(373,485,o),
(313,423,o),
(238,423,cs)
);
}
);
};
layerId = m01;
shapes = (
{
closed = 1;
nodes = (
(372,351,o),
(454,430,o),
(454,536,cs),
(454,642,o),
(370,720,o),
(266,720,cs),
(162,720,o),
(80,642,o),
(80,536,cs),
(80,430,o),
(160,351,o),
(266,351,cs)
);
},
{
closed = 1;
nodes = (
(171,373,o),
(103,442,o),
(103,536,cs),
(103,630,o),
(173,698,o),
(266,698,cs),
(359,698,o),
(431,630,o),
(431,536,cs),
(431,442,o),
(361,373,o),
(266,373,cs)
);
}
);
width = 534;
},
{
background = {
shapes = (
{
closed = 1;
nodes = (
(340,351,o),
(419,430,o),
(419,536,cs),
(419,642,o),
(338,720,o),
(229,720,cs),
(120,720,o),
(39,642,o),
(39,536,cs),
(39,430,o),
(118,351,o),
(229,351,cs)
);
},
{
closed = 1;
nodes = (
(182,455,o),
(155,492,o),
(155,536,cs),
(155,580,o),
(183,616,o),
(229,616,cs),
(273,616,o),
(303,580,o),
(303,536,cs),
(303,492,o),
(274,455,o),
(229,455,cs)
);
}
);
};
layerId = "A1461942-0433-4891-A171-8512F51D8C86";
shapes = (
{
closed = 1;
nodes = (
(340,351,o),
(419,430,o),
(419,536,cs),
(419,642,o),
(338,720,o),
(229,720,cs),
(120,720,o),
(39,642,o),
(39,536,cs),
(39,430,o),
(118,351,o),
(229,351,cs)
);
},
{
closed = 1;
nodes = (
(188,464,o),
(164,497,o),
(164,536,cs),
(164,575,o),
(189,607,o),
(229,607,cs),
(268,607,o),
(294,575,o),
(294,536,cs),
(294,497,o),
(269,464,o),
(229,464,cs)
);
}
);
width = 458;
},
{
background = {
shapes = (
{
closed = 1;
nodes = (
(249,351,o),
(306,431,o),
(306,536,cs),
(306,642,o),
(247,720,o),
(174,720,cs),
(101,720,o),
(44,641,o),
(44,536,cs),
(44,430,o),
(100,351,o),
(174,351,cs)
);
},
{
closed = 1;
nodes = (
(110,373,o),
(64,442,o),
(64,536,cs),
(64,630,o),
(111,698,o),
(174,698,cs),
(237,698,o),
(286,631,o),
(286,536,cs),
(286,442,o),
(239,373,o),
(174,373,cs)
);
}
);
};
layerId = "341CD669-D84F-4333-8BC8-F9777E6D3814";
shapes = (
{
closed = 1;
nodes = (
(247,458,o),
(306,514,o),
(306,589,cs),
(306,664,o),
(247,720,o),
(174,720,cs),
(101,720,o),
(44,664,o),
(44,589,cs),
(44,514,o),
(101,458,o),
(174,458,cs)
);
},
{
closed = 1;
nodes = (
(110,479,o),
(66,523,o),
(66,589,cs),
(66,655,o),
(110,699,o),
(174,699,cs),
(238,699,o),
(284,655,o),
(284,589,cs),
(284,523,o),
(238,479,o),
(174,479,cs)
);
}
);
width = 350;
},
{
background = {
shapes = (
{
closed = 1;
nodes = (
(240,451,o),
(296,509,o),
(296,586,cs),
(296,662,o),
(239,720,o),
(159,720,cs),
(79,720,o),
(21,663,o),
(21,586,cs),
(21,509,o),
(78,451,o),
(159,451,cs)
);
},
{
closed = 1;
nodes = (
(137,549,o),
(126,565,o),
(126,586,cs),
(126,606,o),
(137,622,o),
(159,622,cs),
(179,622,o),
(191,605,o),
(191,586,cs),
(191,565,o),
(179,549,o),
(159,549,cs)
);
}
);
};
layerId = "4DD67900-F9B0-4F36-BC45-F4B21129580C";
shapes = (
{
closed = 1;
nodes = (
(240,451,o),
(296,509,o),
(296,586,cs),
(296,662,o),
(239,720,o),
(159,720,cs),
(79,720,o),
(21,663,o),
(21,586,cs),
(21,509,o),
(78,451,o),
(159,451,cs)
);
},
{
closed = 1;
nodes = (
(137,549,o),
(126,565,o),
(126,586,cs),
(126,606,o),
(137,622,o),
(159,622,cs),
(179,622,o),
(191,605,o),
(191,586,cs),
(191,565,o),
(179,549,o),
(159,549,cs)
);
}
);
width = 317;
}
);
metricLeft = "mWestCree-canadian";
metricRight = "==|mWestCree-canadian";
note = uni1424;
unicode = 5156;
},
{
color = 11;
glyphname = "doubleacuteFinal-canadian";
lastChange = "2022-07-04 21:50:21 +0000";
layers = (
{
background = {
shapes = (
{
closed = 1;
nodes = (
(373,714,l),
(345,714,l),
(169,352,l),
(197,352,l),
(197,352,l)
);
},
{
closed = 1;
nodes = (
(245,714,l),
(217,714,l),
(41,352,l),
(69,352,l),
(69,352,l)
);
}
);
};
layerId = m01;
shapes = (
{
closed = 1;
nodes = (
(242,714,l),
(216,714,l),
(45,357,l),
(71,357,l)
);
},
{
closed = 1;
nodes = (
(372,714,l),
(346,714,l),
(175,357,l),
(201,357,l)
);
}
);
width = 417;
},
{
background = {
shapes = (
{
closed = 1;
nodes = (
(348,714,l),
(219,714,l),
(25,357,l),
(154,357,l)
);
},
{
closed = 1;
nodes = (
(542,714,l),
(413,714,l),
(219,357,l),
(348,357,l)
);
}
);
};
layerId = "A1461942-0433-4891-A171-8512F51D8C86";
shapes = (
{
closed = 1;
nodes = (
(348,714,l),
(219,714,l),
(25,357,l),
(154,357,l)
);
},
{
closed = 1;
nodes = (
(542,714,l),
(413,714,l),
(219,357,l),
(348,357,l)
);
}
);
width = 567;
},
{
background = {
shapes = (
{
closed = 1;
nodes = (
(161,714,l),
(139,714,l),
(18,357,l),
(40,357,l)
);
},
{
closed = 1;
nodes = (
(255,714,l),
(232,714,l),
(112,357,l),
(134,357,l)
);
}
);
};
layerId = "341CD669-D84F-4333-8BC8-F9777E6D3814";
shapes = (
{
closed = 1;
nodes = (
(162,714,l),
(139,714,l),
(18,357,l),
(41,357,l)
);
},
{
closed = 1;
nodes = (
(256,714,l),
(232,714,l),
(112,357,l),
(135,357,l)
);
}
);
width = 274;
},
{
background = {
shapes = (
{
closed = 1;
nodes = (
(284,714,l),
(164,714,l),
(18,357,l),
(138,357,l)
);
},
{
closed = 1;
nodes = (
(440,714,l),
(320,714,l),
(175,357,l),
(295,357,l)
);
}
);
};
layerId = "4DD67900-F9B0-4F36-BC45-F4B21129580C";
shapes = (
{
closed = 1;
nodes = (
(284,714,l),
(164,714,l),
(18,357,l),
(138,357,l)
);
},
{
closed = 1;
nodes = (
(440,714,l),
(320,714,l),
(175,357,l),
(295,357,l)
);
}
);
width = 458;
}
);
metricLeft = "acuteFinal-canadian";
metricRight = "=|";
note = uni1425;
unicode = 5157;
},
{
color = 11;
glyphname = "doubleshortverticalstrokesFinal-canadian";
lastChange = "2022-07-04 21:50:21 +0000";
layers = (
{
background = {
shapes = (
{
closed = 1;
nodes = (
(262,714,l),
(238,714,l),
(238,352,l),
(262,352,l),
(262,352,l)
);
},
{
closed = 1;
nodes = (
(109,714,l),
(85,714,l),
(85,352,l),
(109,352,l),
(109,352,l)
);
}
);
};
layerId = m01;
shapes = (
{
closed = 1;
nodes = (
(109,714,l),
(85,714,l),
(85,357,l),
(109,357,l)
);
},
{
closed = 1;
nodes = (
(228,714,l),
(204,714,l),
(204,357,l),
(228,357,l)
);
}
);
width = 313;
},
{
background = {
shapes = (
{
closed = 1;
nodes = (
(151,714,l),
(35,714,l),
(35,357,l),
(151,357,l)
);
},
{
closed = 1;
nodes = (
(322,714,l),
(206,714,l),
(206,357,l),
(322,357,l)
);
}
);
};
layerId = "A1461942-0433-4891-A171-8512F51D8C86";
shapes = (
{
closed = 1;
nodes = (
(151,714,l),
(35,714,l),
(35,357,l),
(151,357,l)
);
},
{
closed = 1;
nodes = (
(322,714,l),
(206,714,l),
(206,357,l),
(322,357,l)
);
}
);
width = 357;
},
{
background = {
shapes = (
{
closed = 1;
nodes = (
(65,714,l),
(44,714,l),
(44,357,l),
(65,357,l)
);
},
{
closed = 1;
nodes = (
(150,714,l),
(129,714,l),
(129,357,l),
(150,357,l)
);
}
);
};
layerId = "341CD669-D84F-4333-8BC8-F9777E6D3814";
shapes = (
{
closed = 1;
nodes = (
(66,714,l),
(44,714,l),
(44,357,l),
(66,357,l)
);
},
{
closed = 1;
nodes = (
(151,714,l),
(129,714,l),
(129,357,l),
(151,357,l)
);
}
);
width = 195;
},
{
background = {
shapes = (
{
closed = 1;
nodes = (
(128,714,l),
(20,714,l),
(20,357,l),
(128,357,l)
);
},
{
closed = 1;
nodes = (
(265,714,l),
(157,714,l),
(157,357,l),
(265,357,l)
);
}
);
};
layerId = "4DD67900-F9B0-4F36-BC45-F4B21129580C";
shapes = (
{
closed = 1;
nodes = (
(128,714,l),
(20,714,l),
(20,357,l),
(128,357,l)
);
},
{
closed = 1;
nodes = (
(265,714,l),
(157,714,l),
(157,357,l),
(265,357,l)
);
}
);
width = 285;
}
);
metricLeft = "pWestCree-canadian";
metricRight = "pWestCree-canadian";
note = uni1426;
unicode = 5158;
},
{
color = 4;
glyphname = "middledotFinal-canadian";
lastChange = "2022-07-04 21:50:21 +0000";
layers = (
{
background = {
shapes = (
{
closed = 1;
nodes = (
(128,331,o),
(142,344,o),
(142,362,cs),
(142,380,o),
(128,393,o),
(111,393,cs),
(94,393,o),
(80,380,o),
(80,362,cs),
(80,344,o),
(94,331,o),
(111,331,cs)
);
}
);
};
layerId = m01;
shapes = (
{
closed = 1;
nodes = (
(132,324,o),
(146,338,o),
(146,357,cs),
(146,376,o),
(132,390,o),
(113,390,cs),
(94,390,o),
(80,376,o),
(80,357,cs),
(80,338,o),
(94,324,o),
(113,324,cs)
);
}
);
width = 226;
},
{
background = {
shapes = (
{
closed = 1;
nodes = (
(180,267,o),
(220,307,o),
(220,357,cs),
(220,407,o),
(180,447,o),
(130,447,cs),
(80,447,o),
(40,407,o),
(40,357,cs),
(40,307,o),
(80,267,o),
(130,267,cs)
);
}
);
};
layerId = "A1461942-0433-4891-A171-8512F51D8C86";
shapes = (
{
closed = 1;
nodes = (
(180,267,o),
(220,307,o),
(220,357,cs),
(220,407,o),
(180,447,o),
(130,447,cs),
(80,447,o),
(40,407,o),
(40,357,cs),
(40,307,o),
(80,267,o),
(130,267,cs)
);
}
);
width = 260;
},
{
background = {
shapes = (
{
closed = 1;
nodes = (
(109,331,o),
(120,344,o),
(120,362,cs),
(120,380,o),
(109,393,o),
(96,393,cs),
(83,393,o),
(72,380,o),
(72,362,cs),
(72,344,o),
(83,331,o),
(96,331,cs)
);
}
);
};
layerId = "341CD669-D84F-4333-8BC8-F9777E6D3814";
shapes = (
{
closed = 1;
nodes = (
(92,327,o),
(105,340,o),
(105,357,cs),
(105,374,o),
(92,387,o),
(75,387,cs),
(58,387,o),
(45,374,o),
(45,357,cs),
(45,340,o),
(58,327,o),
(75,327,cs)
);
}
);
width = 150;
},
{
background = {
shapes = (
{
closed = 1;
nodes = (
(146,277,o),
(182,313,o),
(182,357,cs),
(182,401,o),
(146,437,o),
(102,437,cs),
(58,437,o),
(22,401,o),
(22,357,cs),
(22,313,o),
(58,277,o),
(102,277,cs)
);
}
);
};
layerId = "4DD67900-F9B0-4F36-BC45-F4B21129580C";
shapes = (
{
closed = 1;
nodes = (
(146,277,o),
(182,313,o),
(182,357,cs),
(182,401,o),
(146,437,o),
(102,437,cs),
(58,437,o),
(22,401,o),
(22,357,cs),
(22,313,o),
(58,277,o),
(102,277,cs)
);
}
);
width = 204;
}
);
metricRight = "=|";
note = uni1427;
unicode = 5159;
},
{
color = 4;
glyphname = "shorthorizontalstrokeFinal-canadian";
lastChange = "2022-07-04 21:50:21 +0000";
layers = (
{
background = {
shapes = (
{
closed = 1;
nodes = (
(412,544,l),
(55,544,l),
(55,522,l),
(412,522,l),
(412,522,l)
);
}
);
};
layerId = m01;
shapes = (
{
closed = 1;
nodes = (
(411,526,l),
(411,548,l),
(55,548,l),
(55,526,l)
);
}
);
width = 466;
},
{
background = {
shapes = (
{
closed = 1;
nodes = (
(407,485,l),
(407,589,l),
(39,589,l),
(39,485,l)
);
}
);
};
layerId = "A1461942-0433-4891-A171-8512F51D8C86";
shapes = (
{
closed = 1;
nodes = (
(407,479,l),
(407,595,l),
(39,595,l),
(39,479,l)
);
}
);
width = 446;
},
{
background = {
shapes = (
{
closed = 1;
nodes = (
(284,526,l),
(284,548,l),
(34,548,l),
(34,526,l)
);
}
);
};
layerId = "341CD669-D84F-4333-8BC8-F9777E6D3814";
shapes = (
{
closed = 1;
nodes = (
(284,526,l),
(284,548,l),
(34,548,l),
(34,526,l)
);
}
);
width = 318;
},
{
background = {
shapes = (
{
closed = 1;
nodes = (
(293,512,l),
(293,612,l),
(25,612,l),
(25,512,l)
);
}
);
};
layerId = "4DD67900-F9B0-4F36-BC45-F4B21129580C";
shapes = (
{
closed = 1;
nodes = (
(297,513,l),
(297,621,l),
(25,621,l),
(25,513,l)
);
}
);
width = 322;
}
);
metricRight = "=|";
note = uni1428;
unicode = 5160;
},
{
color = 4;
glyphname = "plusFinal-canadian";
lastChange = "2022-07-04 21:50:21 +0000";
layers = (
{
background = {
shapes = (
{
closed = 1;
nodes = (
(245,522,l),
(411,522,l),
(411,544,l),
(245,544,l),
(245,714,l),
(221,714,l),
(221,544,l),
(55,544,l),
(55,522,l),
(221,522,l),
(221,352,l),
(245,352,l),
(245,352,l)
);
}
);
};
layerId = m01;
shapes = (
{
closed = 1;
nodes = (
(246,357,l),
(246,714,l),
(222,714,l),
(222,357,l)
);
},
{
closed = 1;
nodes = (
(411,526,l),
(411,548,l),
(55,548,l),
(55,526,l)
);
}
);
width = 466;
},
{
background = {
shapes = (
{
closed = 1;
nodes = (
(281,357,l),
(281,714,l),
(167,714,l),
(167,357,l)
);
},
{
closed = 1;
nodes = (
(407,485,l),
(407,589,l),
(39,589,l),
(39,485,l)
);
}
);
};
layerId = "A1461942-0433-4891-A171-8512F51D8C86";
shapes = (
{
closed = 1;
nodes = (
(286,357,l),
(286,714,l),
(161,714,l),
(161,357,l)
);
},
{
closed = 1;
nodes = (
(408,479,l),
(408,595,l),
(39,595,l),
(39,479,l)
);
}
);
width = 447;
},
{
background = {
shapes = (
{
closed = 1;
nodes = (
(170,357,l),
(170,714,l),
(149,714,l),
(149,357,l)
);
},
{
closed = 1;
nodes = (
(284,526,l),
(284,548,l),
(34,548,l),
(34,526,l)
);
}
);
};
layerId = "341CD669-D84F-4333-8BC8-F9777E6D3814";
shapes = (
{
closed = 1;
nodes = (
(170,417,l),
(170,714,l),
(149,714,l),
(149,417,l)
);
},
{
closed = 1;
nodes = (
(284,556,l),
(284,578,l),
(34,578,l),
(34,556,l)
);
}
);
width = 318;
},
{
background = {
shapes = (
{
closed = 1;
nodes = (
(215,417,l),
(215,714,l),
(109,714,l),
(109,417,l)
);
},
{
closed = 1;
nodes = (
(295,517,l),
(295,617,l),
(27,617,l),
(27,517,l)
);
}
);
};
layerId = "4DD67900-F9B0-4F36-BC45-F4B21129580C";
shapes = (
{
closed = 1;
nodes = (
(217,417,l),
(217,714,l),
(107,714,l),
(107,417,l)
);
},
{
closed = 1;
nodes = (
(297,513,l),
(297,621,l),
(25,621,l),
(25,513,l)
);
}
);
width = 322;
}
);
metricLeft = "shorthorizontalstrokeFinal-canadian";
metricRight = "shorthorizontalstrokeFinal-canadian";
note = uni1429;
unicode = 5161;
},
{
color = 4;
glyphname = "downtackFinal-canadian";
lastChange = "2022-07-04 21:50:21 +0000";
layers = (
{
background = {
shapes = (
{
closed = 1;
nodes = (
(214,692,l),
(349,692,l),
(349,714,l),
(55,714,l),
(55,692,l),
(190,692,l),
(190,352,l),
(214,352,l),
(214,352,l)
);
}
);
};
layerId = m01;
shapes = (
{
closed = 1;
nodes = (
(246,357,l),
(246,704,l),
(222,704,l),
(222,357,l)
);
},
{
closed = 1;
nodes = (
(411,692,l),
(411,714,l),
(55,714,l),
(55,692,l)
);
}
);
width = 466;
},
{
background = {
shapes = (
{
closed = 1;
nodes = (
(282,357,l),
(282,704,l),
(166,704,l),
(166,357,l)
);
},
{
closed = 1;
nodes = (
(407,610,l),
(407,714,l),
(39,714,l),
(39,610,l)
);
}
);
};
layerId = "A1461942-0433-4891-A171-8512F51D8C86";
shapes = (
{
closed = 1;
nodes = (
(286,357,l),
(286,704,l),
(161,704,l),
(161,357,l)
);
},
{
closed = 1;
nodes = (
(408,598,l),
(408,714,l),
(39,714,l),
(39,598,l)
);
}
);
width = 447;
},
{
background = {
shapes = (
{
closed = 1;
nodes = (
(170,357,l),
(170,704,l),
(149,704,l),
(149,357,l)
);
},
{
closed = 1;
nodes = (
(284,692,l),
(284,714,l),
(34,714,l),
(34,692,l)
);
}
);
};
layerId = "341CD669-D84F-4333-8BC8-F9777E6D3814";
shapes = (
{
closed = 1;
nodes = (
(171,357,l),
(171,704,l),
(149,704,l),
(149,357,l)
);
},
{
closed = 1;
nodes = (
(284,692,l),
(284,714,l),
(34,714,l),
(34,692,l)
);
}
);
width = 318;
},
{
background = {
shapes = (
{
closed = 1;
nodes = (
(214,357,l),
(214,704,l),
(106,704,l),
(106,357,l)
);
},
{
closed = 1;
nodes = (
(293,614,l),
(293,714,l),
(25,714,l),
(25,614,l)
);
}
);
};
layerId = "4DD67900-F9B0-4F36-BC45-F4B21129580C";
shapes = (
{
closed = 1;
nodes = (
(215,357,l),
(215,704,l),
(105,704,l),
(105,357,l)
);
},
{
closed = 1;
nodes = (
(295,606,l),
(295,714,l),
(25,714,l),
(25,606,l)
);
}
);
width = 320;
}
);
metricLeft = "shorthorizontalstrokeFinal-canadian";
metricRight = "shorthorizontalstrokeFinal-canadian";
note = uni142A;
unicode = 5162;
},
{
color = 4;
glyphname = "thFinalWoodScree-canadian";
lastChange = "2022-07-04 21:50:21 +0000";
layers = (
{
background = {
shapes = (
{
closed = 1;
nodes = (
(229,714,l),
(203,714,l),
(203,377,l),
(229,377,l),
(229,377,l)
);
},
{
closed = 1;
nodes = (
(377,485,l),
(55,485,l),
(55,460,l),
(377,460,l),
(377,460,l)
);
},
{
closed = 1;
nodes = (
(377,631,l),
(55,631,l),
(55,606,l),
(377,606,l),
(377,606,l)
);
}
);
};
layerId = m01;
shapes = (
{
closed = 1;
nodes = (
(246,357,l),
(246,714,l),
(222,714,l),
(222,357,l)
);
},
{
closed = 1;
nodes = (
(411,457,l),
(411,479,l),
(55,479,l),
(55,457,l)
);
},
{
closed = 1;
nodes = (
(411,592,l),
(411,614,l),
(55,614,l),
(55,592,l)
);
}
);
width = 466;
},
{
background = {
shapes = (
{
closed = 1;
nodes = (
(281,357,l),
(281,714,l),
(167,714,l),
(167,357,l)
);
},
{
closed = 1;
nodes = (
(407,407,l),
(407,509,l),
(39,509,l),
(39,407,l)
);
},
{
closed = 1;
nodes = (
(407,562,l),
(407,664,l),
(39,664,l),
(39,562,l)
);
}
);
};
layerId = "A1461942-0433-4891-A171-8512F51D8C86";
shapes = (
{
closed = 1;
nodes = (
(287,357,l),
(287,714,l),
(162,714,l),
(162,357,l)
);
},
{
closed = 1;
nodes = (
(407,407,l),
(407,509,l),
(39,509,l),
(39,407,l)
);
},
{
closed = 1;
nodes = (
(407,562,l),
(407,664,l),
(39,664,l),
(39,562,l)
);
}
);
width = 446;
},
{
background = {
shapes = (
{
closed = 1;
nodes = (
(180,357,l),
(180,714,l),
(159,714,l),
(159,357,l)
);
},
{
closed = 1;
nodes = (
(294,457,l),
(294,479,l),
(44,479,l),
(44,457,l)
);
},
{
closed = 1;
nodes = (
(294,592,l),
(294,614,l),
(44,614,l),
(44,592,l)
);
}
);
};
layerId = "341CD669-D84F-4333-8BC8-F9777E6D3814";
shapes = (
{
closed = 1;
nodes = (
(180,357,l),
(180,714,l),
(158,714,l),
(158,357,l)
);
},
{
closed = 1;
nodes = (
(294,457,l),
(294,479,l),
(44,479,l),
(44,457,l)
);
},
{
closed = 1;
nodes = (
(294,592,l),
(294,614,l),
(44,614,l),
(44,592,l)
);
}
);
width = 338;
},
{
background = {
shapes = (
{
closed = 1;
nodes = (
(209,357,l),
(209,714,l),
(103,714,l),
(103,357,l)
);
},
{
closed = 1;
nodes = (
(289,410,l),
(289,507,l),
(21,507,l),
(21,410,l)
);
},
{
closed = 1;
nodes = (
(289,564,l),
(289,661,l),
(21,661,l),
(21,564,l)
);
}
);
};
layerId = "4DD67900-F9B0-4F36-BC45-F4B21129580C";
shapes = (
{
closed = 1;
nodes = (
(211,357,l),
(211,714,l),
(101,714,l),
(101,357,l)
);
},
{
closed = 1;
nodes = (
(291,410,l),
(291,507,l),
(21,507,l),
(21,410,l)
);
},
{
closed = 1;
nodes = (
(291,564,l),
(291,661,l),
(21,661,l),
(21,564,l)
);
}
);
width = 312;
}
);
metricLeft = "hyphen-canadian";
metricRight = "hyphen-canadian";
note = uni167E;
unicode = 5758;
},
{
color = 4;
glyphname = "ringSmallFinal-canadian";
lastChange = "2022-07-04 21:50:21 +0000";
layers = (
{
background = {
shapes = (
{
closed = 1;
nodes = (
(234,784,o),
(280,824,o),
(280,884,cs),
(280,944,o),
(236,984,o),
(180,984,cs),
(124,984,o),
(80,943,o),
(80,884,cs),
(80,825,o),
(126,784,o),
(180,784,cs)
);
},
{
closed = 1;
nodes = (
(132,806,o),
(103,840,o),
(103,884,cs),
(103,928,o),
(133,962,o),
(180,962,cs),
(227,962,o),
(257,928,o),
(257,884,cs),
(257,840,o),
(228,806,o),
(180,806,cs)
);
}
);
};
layerId = m01;
shapes = (
{
closed = 1;
nodes = (
(235,526,o),
(280,566,o),
(280,626,cs),
(280,686,o),
(235,726,o),
(180,726,cs),
(125,726,o),
(80,686,o),
(80,626,cs),
(80,566,o),
(125,526,o),
(180,526,cs)
);
},
{
closed = 1;
nodes = (
(132,548,o),
(103,581,o),
(103,626,cs),
(103,671,o),
(133,704,o),
(180,704,cs),
(227,704,o),
(257,671,o),
(257,626,cs),
(257,581,o),
(228,548,o),
(180,548,cs)
);
}
);
width = 360;
},
{
background = {
anchors = (
{
name = _top;
pos = (171,714);
}
);
shapes = (
{
closed = 1;
nodes = (
(239,784,o),
(302,835,o),
(302,907,cs),
(302,979,o),
(239,1030,o),
(169,1030,cs),
(99,1030,o),
(40,979,o),
(40,907,cs),
(40,835,o),
(99,784,o),
(169,784,cs)
);
},
{
closed = 1;
nodes = (
(143,864,o),
(129,884,o),
(129,907,cs),
(129,930,o),
(147,950,o),
(171,950,cs),
(195,950,o),
(213,930,o),
(213,907,cs),
(213,884,o),
(195,864,o),
(171,864,cs)
);
}
);
};
layerId = "A1461942-0433-4891-A171-8512F51D8C86";
shapes = (
{
closed = 1;
nodes = (
(239,483,o),
(302,534,o),
(302,606,cs),
(302,678,o),
(239,729,o),
(169,729,cs),
(99,729,o),
(40,678,o),
(40,606,cs),
(40,534,o),
(99,483,o),
(169,483,cs)
);
},
{
closed = 1;
nodes = (
(143,563,o),
(129,583,o),
(129,606,cs),
(129,629,o),
(147,649,o),
(171,649,cs),
(195,649,o),
(213,629,o),
(213,606,cs),
(213,583,o),
(195,563,o),
(171,563,cs)
);
}
);
width = 342;
},
{
background = {
anchors = (
{
name = _top;
pos = (90,714);
}
);
shapes = (
{
closed = 1;
nodes = (
(129,784,o),
(162,824,o),
(162,884,cs),
(162,944,o),
(129,984,o),
(90,984,cs),
(51,984,o),
(19,943,o),
(19,884,cs),
(19,824,o),
(51,784,o),
(90,784,cs)
);
},
{
closed = 1;
nodes = (
(57,806,o),
(38,840,o),
(38,884,cs),
(38,928,o),
(58,962,o),
(90,962,cs),
(122,962,o),
(143,929,o),
(143,884,cs),
(143,839,o),
(123,806,o),
(90,806,cs)
);
}
);
};
layerId = "341CD669-D84F-4333-8BC8-F9777E6D3814";
shapes = (
{
closed = 1;
nodes = (
(171,566,o),
(205,600,o),
(205,646,cs),
(205,692,o),
(171,726,o),
(125,726,cs),
(79,726,o),
(45,692,o),
(45,646,cs),
(45,600,o),
(79,566,o),
(125,566,cs)
);
},
{
closed = 1;
nodes = (
(90,586,o),
(66,610,o),
(66,646,cs),
(66,681,o),
(90,706,o),
(125,706,cs),
(160,706,o),
(184,681,o),
(184,646,cs),
(184,610,o),
(160,586,o),
(125,586,cs)
);
}
);
width = 250;
},
{
background = {
anchors = (
{
name = _top;
pos = (134,714);
}
);
shapes = (
{
closed = 1;
nodes = (
(193,784,o),
(246,830,o),
(246,894,cs),
(246,958,o),
(193,1004,o),
(134,1004,cs),
(75,1004,o),
(22,959,o),
(22,894,cs),
(22,830,o),
(74,784,o),
(134,784,cs)
);
},
{
closed = 1;
nodes = (
(111,854,o),
(95,873,o),
(95,894,cs),
(95,915,o),
(111,934,o),
(134,934,cs),
(157,934,o),
(173,915,o),
(173,894,cs),
(173,873,o),
(157,854,o),
(134,854,cs)
);
}
);
};
layerId = "4DD67900-F9B0-4F36-BC45-F4B21129580C";
shapes = (
{
closed = 1;
nodes = (
(193,509,o),
(246,555,o),
(246,619,cs),
(246,683,o),
(193,729,o),
(134,729,cs),
(75,729,o),
(22,684,o),
(22,619,cs),
(22,555,o),
(74,509,o),
(134,509,cs)
);
},
{
closed = 1;
nodes = (
(111,579,o),
(95,598,o),
(95,619,cs),
(95,640,o),
(111,659,o),
(134,659,cs),
(157,659,o),
(173,640,o),
(173,619,cs),
(173,598,o),
(157,579,o),
(134,579,cs)
);
}
);
width = 268;
}
);
metricRight = "=|";
note = g725;
unicode = 6366;
},
{
color = 4;
glyphname = "raiseddotFinal-canadian";
lastChange = "2022-07-04 21:50:21 +0000";
layers = (
{
background = {
anchors = (
{
name = _centre.can;
pos = (273,367);
}
);
shapes = (
{
closed = 1;
nodes = (
(292,334,o),
(306,348,o),
(306,367,cs),
(306,386,o),
(292,400,o),
(273,400,cs),
(254,400,o),
(239,386,o),
(239,367,cs),
(239,348,o),
(254,334,o),
(273,334,cs)
);
}
);
};
layerId = m01;
shapes = (
{
closed = 1;
nodes = (
(132,660,o),
(146,674,o),
(146,693,cs),
(146,712,o),
(132,726,o),
(113,726,cs),
(94,726,o),
(80,712,o),
(80,693,cs),
(80,674,o),
(94,660,o),
(113,660,cs)
);
}
);
width = 226;
},
{
background = {
anchors = (
{
name = _top;
pos = (130,714);
}
);
shapes = (
{
closed = 1;
nodes = (
(180,784,o),
(220,824,o),
(220,874,cs),
(220,924,o),
(180,964,o),
(130,964,cs),
(80,964,o),
(40,924,o),
(40,874,cs),
(40,824,o),
(80,784,o),
(130,784,cs)
);
}
);
};
layerId = "A1461942-0433-4891-A171-8512F51D8C86";
shapes = (
{
closed = 1;
nodes = (
(180,549,o),
(220,589,o),
(220,639,cs),
(220,689,o),
(180,729,o),
(130,729,cs),
(80,729,o),
(40,689,o),
(40,639,cs),
(40,589,o),
(80,549,o),
(130,549,cs)
);
}
);
width = 260;
},
{
background = {
anchors = (
{
name = _top;
pos = (64,714);
}
);
shapes = (
{
closed = 1;
nodes = (
(79,824,o),
(90,838,o),
(90,857,cs),
(90,875,o),
(79,890,o),
(64,890,cs),
(50,890,o),
(39,876,o),
(39,857,cs),
(39,838,o),
(50,824,o),
(64,824,cs)
);
}
);
};
layerId = "341CD669-D84F-4333-8BC8-F9777E6D3814";
shapes = (
{
closed = 1;
nodes = (
(92,666,o),
(105,679,o),
(105,696,cs),
(105,713,o),
(92,726,o),
(75,726,cs),
(58,726,o),
(45,713,o),
(45,696,cs),
(45,679,o),
(58,666,o),
(75,666,cs)
);
}
);
width = 150;
},
{
background = {
anchors = (
{
name = _top;
pos = (101,714);
}
);
shapes = (
{
closed = 1;
nodes = (
(146,786,o),
(182,822,o),
(182,866,cs),
(182,910,o),
(146,946,o),
(102,946,cs),
(58,946,o),
(22,910,o),
(22,866,cs),
(22,822,o),
(58,786,o),
(102,786,cs)
);
}
);
};
layerId = "4DD67900-F9B0-4F36-BC45-F4B21129580C";
shapes = (
{
closed = 1;
nodes = (
(146,569,o),
(182,605,o),
(182,649,cs),
(182,693,o),
(146,729,o),
(102,729,cs),
(58,729,o),
(22,693,o),
(22,649,cs),
(22,605,o),
(58,569,o),
(102,569,cs)
);
}
);
width = 204;
}
);
metricRight = "=|";
note = g725;
unicode = 6367;
},
{
color = 4;
glyphname = "e-canadian";
lastChange = "2022-07-04 21:50:21 +0000";
layers = (
{
anchors = (
{
name = middle_center_can;
pos = (387,470);
},
{
name = top_center_can;
pos = (387,714);
},
{
name = top_left_can;
pos = (130,714);
},
{
name = top_right_can;
pos = (645,714);
}
);
background = {
shapes = (
{
closed = 1;
nodes = (
(724,701,l),
(724,714,l),
(45,714,l),
(45,701,l),
(373,-12,l),
(396,-12,l),
(396,-12,l)
);
},
{
closed = 1;
nodes = (
(690,689,l),
(384,16,l),
(79,689,l),
(79,689,l)
);
}
);
};
layerId = m01;
shapes = (
{
closed = 1;
nodes = (
(405,0,l),
(740,701,l),
(740,714,l),
(45,714,l),
(45,701,l),
(380,0,l)
);
},
{
closed = 1;
nodes = (
(397,19,l),
(75,700,l),
(75,689,l),
(711,689,l),
(711,700,l),
(389,19,l)
);
}
);
width = 785;
},
{
anchors = (
{
name = middle_center_can;
pos = (422,470);
},
{
name = top_center_can;
pos = (422,714);
},
{
name = top_left_can;
pos = (165,714);
},
{
name = top_right_can;
pos = (680,714);
}
);
background = {
anchors = (
{
name = middle_center_can;
pos = (1622,470);
},
{
name = middle_left_can;
pos = (1232,357);
},
{
name = middle_right_can;
pos = (2014,357);
},
{
name = top_center_can;
pos = (1622,714);
},
{
name = top_left_can;
pos = (1365,714);
},
{
name = top_right_can;
pos = (1880,714);
}
);
shapes = (
{
closed = 1;
nodes = (
(1650,0,l),
(2014,669,l),
(2014,714,l),
(1230,714,l),
(1230,669,l),
(1594,0,l)
);
},
{
closed = 1;
nodes = (
(1649,241,l),
(1462,598,l),
(1438,557,l),
(1806,557,l),
(1790,598,l),
(1603,241,l)
);
},
{
closed = 1;
nodes = (
(30,714,l),
(30,669,l),
(394,0,l),
(450,0,l),
(814,669,l),
(814,714,l)
);
},
{
closed = 1;
nodes = (
(403,252,l),
(449,252,l),
(262,598,l),
(238,557,l),
(606,557,l),
(590,598,l)
);
}
);
};
guides = (
{
angle = 61.4496;
pos = (586,598);
}
);
layerId = "A1461942-0433-4891-A171-8512F51D8C86";
shapes = (
{
closed = 1;
nodes = (
(450,0,l),
(814,669,l),
(814,714,l),
(30,714,l),
(30,669,l),
(394,0,l)
);
},
{
closed = 1;
nodes = (
(449,252,l),
(262,598,l),
(238,559,l),
(606,559,l),
(590,598,l),
(403,252,l)
);
}
);
width = 844;
},
{
anchors = (
{
name = middle_center_can;
pos = (276,470);
},
{
name = top_center_can;
pos = (276,714);
},
{
name = top_left_can;
pos = (97,714);
},
{
name = top_right_can;
pos = (457,714);
}
);
background = {
anchors = (
{
name = middle_center_can;
pos = (276,470);
},
{
name = middle_left_can;
pos = (43,357);
},
{
name = middle_right_can;
pos = (517,357);
},
{
name = top_center_can;
pos = (276,714);
},
{
name = top_left_can;
pos = (97,714);
},
{
name = top_right_can;
pos = (457,714);
}
);
shapes = (
{
closed = 1;
nodes = (
(35,714,l),
(35,701,l),
(271,0,l),
(289,0,l),
(525,701,l),
(525,714,l)
);
},
{
closed = 1;
nodes = (
(284,18,l),
(64,701,l),
(63,690,l),
(498,690,l),
(497,701,l),
(277,18,l)
);
}
);
};
layerId = "341CD669-D84F-4333-8BC8-F9777E6D3814";
shapes = (
{
closed = 1;
nodes = (
(289,0,l),
(525,701,l),
(525,714,l),
(35,714,l),
(35,701,l),
(271,0,l)
);
},
{
closed = 1;
nodes = (
(285,27,l),
(60,701,l),
(59,690,l),
(501,690,l),
(500,701,l),
(275,27,l)
);
}
);
width = 560;
},
{
anchors = (
{
name = middle_center_can;
pos = (312,470);
},
{
name = top_center_can;
pos = (312,714);
},
{
name = top_left_can;
pos = (127,714);
},
{
name = top_right_can;
pos = (497,714);
}
);
background = {
anchors = (
{
name = middle_center_can;
pos = (312,470);
},
{
name = middle_left_can;
pos = (18,357);
},
{
name = middle_right_can;
pos = (603,357);
},
{
name = top_center_can;
pos = (312,714);
},
{
name = top_left_can;
pos = (127,714);
},
{
name = top_right_can;
pos = (497,714);
}
);
shapes = (
{
closed = 1;
nodes = (
(334,0,l),
(604,671,l),
(604,714,l),
(16,714,l),
(16,671,l),
(286,0,l)
);
},
{
closed = 1;
nodes = (
(356,218,l),
(205,604,l),
(170,571,l),
(444,571,l),
(417,604,l),
(266,218,l)
);
}
);
};
guides = (
{
angle = 248.0809;
pos = (455,671);
}
);
layerId = "4DD67900-F9B0-4F36-BC45-F4B21129580C";
shapes = (
{
closed = 1;
nodes = (
(334,0,l),
(604,671,l),
(604,714,l),
(16,714,l),
(16,671,l),
(286,0,l)
);
},
{
closed = 1;
nodes = (
(356,218,l),
(205,604,l),
(170,571,l),
(444,571,l),
(417,604,l),
(266,218,l)
);
}
);
width = 620;
}
);
metricRight = "=|";
note = uni1401;
unicode = 5121;
},
{
color = 4;
glyphname = "i-canadian";
lastChange = "2022-07-04 21:50:21 +0000";
layers = (
{
anchors = (
{
name = middle_center_can;
pos = (387,470);
},
{
name = top_center_can;
pos = (387,714);
},
{
name = top_left_can;
pos = (130,714);
},
{
name = top_right_can;
pos = (645,714);
}
);
background = {
shapes = (
{
closed = 1;
nodes = (
(736,13,l),
(405,726,l),
(380,726,l),
(49,13,l),
(49,0,l),
(735,0,l)
);
},
{
closed = 1;
nodes = (
(702,25,l),
(84,25,l),
(393,698,l)
);
}
);
};
layerId = m01;
shapes = (
{
closed = 1;
nodes = (
(740,0,l),
(740,13,l),
(405,714,l),
(380,714,l),
(45,13,l),
(45,0,l)
);
},
{
closed = 1;
nodes = (
(397,695,l),
(389,695,l),
(711,14,l),
(711,25,l),
(75,25,l),
(75,14,l)
);
}
);
width = 785;
},
{
anchors = (
{
name = middle_center_can;
pos = (422,237);
},
{
name = top_center_can;
pos = (422,714);
},
{
name = top_left_can;
pos = (165,714);
},
{
name = top_right_can;
pos = (680,714);
}
);
background = {
anchors = (
{
name = middle_center_can;
pos = (422,237);
},
{
name = middle_left_can;
pos = (31,357);
},
{
name = middle_right_can;
pos = (813,357);
},
{
name = top_center_can;
pos = (422,714);
},
{
name = top_left_can;
pos = (165,714);
},
{
name = top_right_can;
pos = (680,714);
}
);
shapes = (
{
closed = 1;
nodes = (
(814,0,l),
(814,45,l),
(450,714,l),
(394,714,l),
(30,45,l),
(30,0,l)
);
},
{
closed = 1;
nodes = (
(441,462,l),
(395,462,l),
(582,116,l),
(606,157,l),
(238,157,l),
(254,116,l)
);
}
);
};
guides = (
{
angle = 118.5504;
pos = (578,116);
}
);
layerId = "A1461942-0433-4891-A171-8512F51D8C86";
shapes = (
{
closed = 1;
nodes = (
(814,0,l),
(814,45,l),
(450,714,l),
(394,714,l),
(30,45,l),
(30,0,l)
);
},
{
closed = 1;
nodes = (
(441,462,l),
(395,462,l),
(582,116,l),
(606,155,l),
(238,155,l),
(254,116,l)
);
}
);
width = 844;
},
{
anchors = (
{
name = middle_center_can;
pos = (276,471);
},
{
name = top_center_can;
pos = (276,714);
},
{
name = top_left_can;
pos = (97,714);
},
{
name = top_right_can;
pos = (457,714);
}
);
background = {
anchors = (
{
name = middle_center_can;
pos = (276,471);
},
{
name = middle_left_can;
pos = (43,357);
},
{
name = middle_right_can;
pos = (517,357);
},
{
name = top_center_can;
pos = (276,714);
},
{
name = top_left_can;
pos = (97,714);
},
{
name = top_right_can;
pos = (457,714);
}
);
shapes = (
{
closed = 1;
nodes = (
(525,0,l),
(525,13,l),
(289,714,l),
(271,714,l),
(35,13,l),
(35,0,l)
);
},
{
closed = 1;
nodes = (
(284,696,l),
(277,696,l),
(497,13,l),
(498,24,l),
(63,24,l),
(64,13,l)
);
}
);
};
layerId = "341CD669-D84F-4333-8BC8-F9777E6D3814";
shapes = (
{
closed = 1;
nodes = (
(525,0,l),
(525,13,l),
(289,714,l),
(271,714,l),
(35,13,l),
(35,0,l)
);
},
{
closed = 1;
nodes = (
(285,687,l),
(275,687,l),
(500,13,l),
(501,24,l),
(59,24,l),
(60,13,l)
);
}
);
width = 560;
},
{
anchors = (
{
name = middle_center_can;
pos = (312,251);
},
{
name = top_center_can;
pos = (312,714);
},
{
name = top_left_can;
pos = (127,714);
},
{
name = top_right_can;
pos = (497,714);
}
);
background = {
anchors = (
{
name = middle_center_can;
pos = (312,251);
},
{
name = middle_left_can;
pos = (19,357);
},
{
name = middle_right_can;
pos = (607,357);
},
{
name = top_center_can;
pos = (312,714);
},
{
name = top_left_can;
pos = (127,714);
},
{
name = top_right_can;
pos = (497,714);
}
);
shapes = (
{
closed = 1;
nodes = (
(604,0,l),
(604,43,l),
(334,714,l),
(286,714,l),
(16,43,l),
(16,0,l)
);
},
{
closed = 1;
nodes = (
(354,496,l),
(264,496,l),
(415,110,l),
(442,143,l),
(168,143,l),
(203,110,l)
);
}
);
};
guides = (
{
angle = 118.5504;
pos = (578,116);
}
);
layerId = "4DD67900-F9B0-4F36-BC45-F4B21129580C";
shapes = (
{
closed = 1;
nodes = (
(604,0,l),
(604,43,l),
(334,714,l),
(286,714,l),
(16,43,l),
(16,0,l)
);
},
{
closed = 1;
nodes = (
(354,496,l),
(264,496,l),
(415,110,l),
(442,143,l),
(168,143,l),
(203,110,l)
);
}
);
width = 620;
}
);
metricLeft = "e-canadian";
metricRight = "e-canadian";
note = uni1403;
unicode = 5123;
},
{
color = 4;
glyphname = "o-canadian";
lastChange = "2022-07-04 21:50:21 +0000";
layers = (
{
anchors = (
{
name = middle_center_can;
pos = (311,357);
},
{
name = top_center_can;
pos = (413,714);
},
{
name = top_left_can;
pos = (113,714);
},
{
name = top_right_can;
pos = (696,714);
}
);
background = {
shapes = (
{
closed = 1;
nodes = (
(113,-12,l),
(726,347,l),
(726,367,l),
(113,726,l),
(100,726,l),
(100,-12,l)
);
},
{
closed = 1;
nodes = (
(125,696,l),
(114,698,l),
(707,352,l),
(707,362,l),
(114,16,l),
(125,17,l)
);
}
);
};
layerId = m01;
shapes = (
{
closed = 1;
nodes = (
(113,0,l),
(726,347,l),
(726,367,l),
(113,714,l),
(100,714,l),
(100,0,l)
);
},
{
closed = 1;
nodes = (
(125,684,l),
(114,685,l),
(707,351,l),
(707,363,l),
(114,29,l),
(125,29,l)
);
}
);
width = 771;
},
{
anchors = (
{
name = middle_center_can;
pos = (290,357);
},
{
name = top_center_can;
pos = (392,714);
},
{
name = top_left_can;
pos = (147,714);
},
{
name = top_right_can;
pos = (650,714);
}
);
background = {
anchors = (
{
name = middle_center_can;
pos = (290,357);
},
{
name = middle_left_can;
pos = (-96,357);
},
{
name = middle_right_can;
pos = (879,357);
},
{
name = top_center_can;
pos = (392,714);
},
{
name = top_left_can;
pos = (147,714);
},
{
name = top_right_can;
pos = (650,714);
}
);
shapes = (
{
closed = 1;
nodes = (
(109,0,l),
(719,329,l),
(719,385,l),
(109,714,l),
(64,714,l),
(64,0,l)
);
},
{
closed = 1;
nodes = (
(230,505,l),
(181,505,l),
(483,345,l),
(483,373,l),
(181,214,l),
(230,214,l)
);
}
);
};
guides = (
{
angle = 151.6601;
pos = (719,385);
},
{
angle = 28.3399;
pos = (475,373);
}
);
layerId = "A1461942-0433-4891-A171-8512F51D8C86";
shapes = (
{
closed = 1;
nodes = (
(109,0,l),
(719,329,l),
(719,385,l),
(109,714,l),
(64,714,l),
(64,0,l)
);
},
{
closed = 1;
nodes = (
(230,505,l),
(181,501,l),
(483,341,l),
(483,377,l),
(181,218,l),
(230,214,l)
);
}
);
width = 748;
},
{
anchors = (
{
name = middle_center_can;
pos = (208,357);
},
{
name = top_center_can;
pos = (279,714);
},
{
name = top_left_can;
pos = (71,714);
},
{
name = top_right_can;
pos = (476,714);
}
);
background = {
anchors = (
{
name = middle_center_can;
pos = (208,357);
},
{
name = middle_left_can;
pos = (-33,357);
},
{
name = middle_right_can;
pos = (591,357);
},
{
name = top_center_can;
pos = (279,714);
},
{
name = top_left_can;
pos = (71,714);
},
{
name = top_right_can;
pos = (476,714);
}
);
shapes = (
{
closed = 1;
nodes = (
(77,0,l),
(499,348,l),
(499,366,l),
(77,714,l),
(66,714,l),
(66,693,l),
(485,349,l),
(485,365,l),
(66,21,l),
(66,0,l)
);
}
);
};
layerId = "341CD669-D84F-4333-8BC8-F9777E6D3814";
shapes = (
{
closed = 1;
nodes = (
(70,0,l),
(499,348,l),
(499,366,l),
(70,714,l),
(59,714,l),
(59,0,l)
);
},
{
closed = 1;
nodes = (
(82,683,l),
(73,682,l),
(485,349,l),
(485,365,l),
(73,32,l),
(82,31,l)
);
}
);
width = 526;
},
{
anchors = (
{
name = middle_center_can;
pos = (238,357);
},
{
name = top_center_can;
pos = (281,714);
},
{
name = top_left_can;
pos = (110,714);
},
{
name = top_right_can;
pos = (470,714);
}
);
background = {
anchors = (
{
name = middle_center_can;
pos = (238,357);
},
{
name = middle_left_can;
pos = (-82,357);
},
{
name = middle_right_can;
pos = (663,357);
},
{
name = top_center_can;
pos = (281,714);
},
{
name = top_left_can;
pos = (110,714);
},
{
name = top_right_can;
pos = (470,714);
}
);
shapes = (
{
closed = 1;
nodes = (
(82,0,l),
(540,330,l),
(540,384,l),
(82,714,l),
(41,714,l),
(41,0,l)
);
},
{
closed = 1;
nodes = (
(188,511,l),
(153,488,l),
(386,320,l),
(386,397,l),
(153,228,l),
(188,203,l)
);
}
);
};
guides = (
{
angle = -35.7737;
pos = (153,482);
},
{
angle = 216.9953;
pos = (520,480);
}
);
layerId = "4DD67900-F9B0-4F36-BC45-F4B21129580C";
shapes = (
{
closed = 1;
nodes = (
(82,0,l),
(540,330,l),
(540,384,l),
(82,714,l),
(41,714,l),
(41,0,l)
);
},
{
closed = 1;
nodes = (
(188,511,l),
(153,488,l),
(386,320,l),
(386,397,l),
(153,228,l),
(188,203,l)
);
}
);
width = 558;
}
);
metricLeft = "nunavuth-canadian";
note = uni1405;
unicode = 5125;
},
{
color = 4;
glyphname = "a-canadian";
lastChange = "2022-07-04 21:50:21 +0000";
layers = (
{
anchors = (
{
name = middle_center_can;
pos = (450,357);
},
{
name = top_center_can;
pos = (358,714);
},
{
name = top_left_can;
pos = (58,714);
},
{
name = top_right_can;
pos = (659,714);
}
);
background = {
shapes = (
{
closed = 1;
nodes = (
(671,-12,l),
(671,726,l),
(658,726,l),
(45,367,l),
(45,347,l),
(658,-12,l)
);
},
{
closed = 1;
nodes = (
(657,16,l),
(64,362,l),
(64,352,l),
(657,698,l),
(646,696,l),
(646,15,l)
);
}
);
};
guides = (
{
angle = 209.5128;
pos = (64,350);
},
{
angle = -29.5128;
pos = (64,363);
}
);
layerId = m01;
shapes = (
{
closed = 1;
nodes = (
(671,0,l),
(671,714,l),
(658,714,l),
(45,367,l),
(45,347,l),
(658,0,l)
);
},
{
closed = 1;
nodes = (
(656,28,l),
(64,363,l),
(64,351,l),
(655,685,l),
(646,685,l),
(646,28,l)
);
}
);
width = 771;
},
{
anchors = (
{
name = middle_center_can;
pos = (458,357);
},
{
name = top_center_can;
pos = (357,714);
},
{
name = top_left_can;
pos = (112,714);
},
{
name = top_right_can;
pos = (601,714);
}
);
background = {
anchors = (
{
name = middle_center_can;
pos = (458,357);
},
{
name = middle_left_can;
pos = (-131,357);
},
{
name = middle_right_can;
pos = (844,357);
},
{
name = top_center_can;
pos = (357,714);
},
{
name = top_left_can;
pos = (112,714);
},
{
name = top_right_can;
pos = (601,714);
}
);
shapes = (
{
closed = 1;
nodes = (
(684,0,l),
(684,714,l),
(639,714,l),
(29,385,l),
(29,329,l),
(639,0,l)
);
},
{
closed = 1;
nodes = (
(567,214,l),
(265,373,l),
(265,345,l),
(567,504,l),
(518,504,l),
(518,214,l)
);
}
);
};
guides = (
{
angle = 208.3399;
pos = (273,345);
},
{
angle = -28.3399;
pos = (273,373);
}
);
layerId = "A1461942-0433-4891-A171-8512F51D8C86";
shapes = (
{
closed = 1;
nodes = (
(684,0,l),
(684,714,l),
(639,714,l),
(29,385,l),
(29,329,l),
(639,0,l)
);
},
{
closed = 1;
nodes = (
(567,218,l),
(265,377,l),
(265,341,l),
(567,500,l),
(518,504,l),
(518,214,l)
);
}
);
width = 748;
},
{
anchors = (
{
name = middle_center_can;
pos = (312,357);
},
{
name = top_center_can;
pos = (247,714);
},
{
name = top_left_can;
pos = (39,714);
},
{
name = top_right_can;
pos = (455,714);
}
);
background = {
anchors = (
{
name = middle_center_can;
pos = (312,357);
},
{
name = middle_left_can;
pos = (-65,357);
},
{
name = middle_right_can;
pos = (559,357);
},
{
name = top_center_can;
pos = (247,714);
},
{
name = top_left_can;
pos = (39,714);
},
{
name = top_right_can;
pos = (455,714);
}
);
shapes = (
{
closed = 1;
nodes = (
(467,0,l),
(467,714,l),
(456,714,l),
(27,367,l),
(27,347,l),
(456,0,l)
);
},
{
closed = 1;
nodes = (
(452,27,l),
(49,363,l),
(49,351,l),
(451,686,l),
(443,686,l),
(443,27,l)
);
}
);
};
guides = (
{
angle = 209.5128;
pos = (59,350);
},
{
angle = -29.5128;
pos = (59,363);
}
);
layerId = "341CD669-D84F-4333-8BC8-F9777E6D3814";
shapes = (
{
closed = 1;
nodes = (
(467,0,l),
(467,714,l),
(456,714,l),
(27,366,l),
(27,348,l),
(456,0,l)
);
},
{
closed = 1;
nodes = (
(453,32,l),
(41,365,l),
(41,349,l),
(453,682,l),
(444,683,l),
(444,31,l)
);
}
);
width = 526;
},
{
anchors = (
{
name = middle_center_can;
pos = (320,357);
},
{
name = top_center_can;
pos = (228,714);
},
{
name = top_left_can;
pos = (106,714);
},
{
name = top_right_can;
pos = (439,714);
}
);
background = {
anchors = (
{
name = middle_center_can;
pos = (353,357);
},
{
name = middle_left_can;
pos = (-85,357);
},
{
name = middle_right_can;
pos = (640,357);
},
{
name = top_center_can;
pos = (228,714);
},
{
name = top_left_can;
pos = (116,714);
},
{
name = top_right_can;
pos = (439,714);
}
);
shapes = (
{
closed = 1;
nodes = (
(517,0,l),
(517,714,l),
(476,714,l),
(38,384,l),
(38,330,l),
(476,0,l)
);
},
{
closed = 1;
nodes = (
(405,217,l),
(182,385,l),
(182,326,l),
(405,495,l),
(380,511,l),
(380,203,l)
);
}
);
};
guides = (
{
angle = 208.3399;
pos = (293,345);
},
{
angle = -28.3399;
pos = (293,373);
}
);
layerId = "4DD67900-F9B0-4F36-BC45-F4B21129580C";
shapes = (
{
closed = 1;
nodes = (
(476,714,l),
(18,384,l),
(18,330,l),
(476,0,l),
(517,0,l),
(517,714,l)
);
},
{
closed = 1;
nodes = (
(370,203,l),
(405,226,l),
(172,394,l),
(172,317,l),
(405,486,l),
(370,511,l)
);
}
);
width = 558;
}
);
metricLeft = "==|o-canadian";
metricRight = "nunavuth-canadian";
note = uni140A;
unicode = 5130;
},
{
color = 4;
glyphname = "ai-canadian";
lastChange = "2022-07-04 21:50:21 +0000";
layers = (
{
background = {
shapes = (
{
closed = 1;
nodes = (
(305,351,o),
(354,394,o),
(367,476,c),
(354,476,l),
(369,395,o),
(419,351,o),
(494,351,cs),
(582,351,o),
(638,409,o),
(638,516,cs),
(638,714,l),
(615,714,l),
(615,515,ls),
(615,416,o),
(569,373,o),
(494,373,cs),
(420,373,o),
(373,418,o),
(373,514,cs),
(373,714,l),
(350,714,l),
(350,515,ls),
(350,416,o),
(304,373,o),
(229,373,cs),
(155,373,o),
(108,418,o),
(108,514,cs),
(108,714,l),
(85,714,l),
(85,513,ls),
(85,409,o),
(143,351,o),
(229,351,cs)
);
}
);
};
layerId = m01;
shapes = (
{
closed = 1;
nodes = (
(305,351,o),
(354,394,o),
(367,476,c),
(355,476,l),
(370,395,o),
(420,351,o),
(495,351,cs),
(583,351,o),
(639,409,o),
(639,516,cs),
(639,714,l),
(615,714,l),
(615,515,ls),
(615,416,o),
(570,373,o),
(495,373,cs),
(421,373,o),
(374,418,o),
(374,514,cs),
(374,714,l),
(350,714,l),
(350,515,ls),
(350,416,o),
(304,373,o),
(229,373,cs),
(155,373,o),
(109,418,o),
(109,514,cs),
(109,714,l),
(85,714,l),
(85,513,ls),
(85,409,o),
(143,351,o),
(229,351,cs)
);
}
);
width = 724;
},
{
background = {
shapes = (
{
closed = 1;
nodes = (
(271,351,o),
(315,371,o),
(346,416,c),
(307,416,l),
(336,371,o),
(383,351,o),
(441,351,cs),
(549,351,o),
(613,419,o),
(613,531,cs),
(613,714,l),
(497,714,l),
(497,527,ls),
(497,476,o),
(477,455,o),
(440,455,cs),
(404,455,o),
(384,477,o),
(384,527,cs),
(384,714,l),
(268,714,l),
(268,527,ls),
(268,476,o),
(248,455,o),
(211,455,cs),
(175,455,o),
(155,477,o),
(155,527,cs),
(155,714,l),
(39,714,l),
(39,531,ls),
(39,417,o),
(104,351,o),
(212,351,cs)
);
}
);
};
layerId = "A1461942-0433-4891-A171-8512F51D8C86";
shapes = (
{
closed = 1;
nodes = (
(271,351,o),
(315,371,o),
(346,416,c),
(307,416,l),
(336,371,o),
(383,351,o),
(441,351,cs),
(549,351,o),
(613,419,o),
(613,531,cs),
(613,714,l),
(488,714,l),
(488,531,ls),
(488,485,o),
(472,464,o),
(438,464,cs),
(405,464,o),
(388,486,o),
(388,531,cs),
(388,714,l),
(264,714,l),
(264,531,ls),
(264,485,o),
(247,464,o),
(213,464,cs),
(180,464,o),
(164,486,o),
(164,531,cs),
(164,714,l),
(39,714,l),
(39,531,ls),
(39,417,o),
(104,351,o),
(212,351,cs)
);
}
);
width = 652;
},
{
background = {
shapes = (
{
closed = 1;
nodes = (
(201,351,o),
(233,398,o),
(242,476,c),
(232,476,l),
(243,395,o),
(279,351,o),
(330,351,cs),
(392,351,o),
(432,409,o),
(432,516,cs),
(432,714,l),
(412,714,l),
(412,515,ls),
(412,416,o),
(381,373,o),
(330,373,cs),
(280,373,o),
(248,418,o),
(248,514,cs),
(248,714,l),
(228,714,l),
(228,515,ls),
(228,416,o),
(197,373,o),
(146,373,cs),
(96,373,o),
(64,418,o),
(64,514,cs),
(64,714,l),
(44,714,l),
(44,513,ls),
(44,409,o),
(85,351,o),
(146,351,cs)
);
}
);
};
layerId = "341CD669-D84F-4333-8BC8-F9777E6D3814";
shapes = (
{
closed = 1;
nodes = (
(199,351,o),
(233,388,o),
(242,447,c),
(235,447,l),
(246,385,o),
(283,351,o),
(333,351,cs),
(390,351,o),
(435,389,o),
(435,496,cs),
(435,714,l),
(413,714,l),
(413,495,ls),
(413,396,o),
(375,373,o),
(331,373,cs),
(287,373,o),
(250,398,o),
(250,494,cs),
(250,714,l),
(228,714,l),
(228,495,ls),
(228,396,o),
(190,373,o),
(146,373,cs),
(102,373,o),
(66,398,o),
(66,494,cs),
(66,714,l),
(44,714,l),
(44,493,ls),
(44,389,o),
(89,351,o),
(145,351,cs)
);
}
);
width = 479;
},
{
background = {
shapes = (
{
closed = 1;
nodes = (
(196,351,o),
(221,368,o),
(252,416,c),
(217,416,l),
(244,367,o),
(272,351,o),
(318,351,cs),
(395,351,o),
(443,398,o),
(443,500,cs),
(443,714,l),
(335,714,l),
(335,500,ls),
(335,462,o),
(328,450,o),
(311,450,cs),
(294,450,o),
(286,463,o),
(286,500,cs),
(286,714,l),
(180,714,l),
(180,500,ls),
(180,463,o),
(172,450,o),
(155,450,cs),
(138,450,o),
(132,465,o),
(132,500,cs),
(132,714,l),
(24,714,l),
(24,500,ls),
(24,398,o),
(73,351,o),
(150,351,cs)
);
}
);
};
layerId = "4DD67900-F9B0-4F36-BC45-F4B21129580C";
shapes = (
{
closed = 1;
nodes = (
(195,351,o),
(221,368,o),
(252,416,c),
(217,416,l),
(244,367,o),
(273,351,o),
(319,351,cs),
(396,351,o),
(446,398,o),
(446,500,cs),
(446,714,l),
(336,714,l),
(336,504,ls),
(336,467,o),
(329,455,o),
(312,455,cs),
(295,455,o),
(287,468,o),
(287,504,cs),
(287,714,l),
(179,714,l),
(179,504,ls),
(179,468,o),
(171,455,o),
(154,455,cs),
(137,455,o),
(131,470,o),
(131,504,cs),
(131,714,l),
(21,714,l),
(21,500,ls),
(21,398,o),
(72,351,o),
(149,351,cs)
);
}
);
width = 467;
}
);
metricRight = "=|";
note = uni141C;
unicode = 5148;
},
{
color = 11;
glyphname = "ycreew-canadian";
lastChange = "2022-07-04 10:01:54 +0000";
layers = (
{
background = {
shapes = (
{
closed = 1;
nodes = (
(468,526,o),
(508,572,o),
(508,622,cs),
(508,676,o),
(466,718,o),
(412,718,cs),
(361,718,o),
(316,678,o),
(316,622,cs),
(316,569,o),
(358,526,o),
(413,526,cs)
);
},
{
closed = 1;
nodes = (
(237,356,o),
(277,401,o),
(277,452,cs),
(277,506,o),
(235,548,o),
(182,548,cs),
(130,548,o),
(85,508,o),
(85,452,cs),
(85,399,o),
(128,356,o),
(181,356,cs)
);
},
{
closed = 1;
nodes = (
(140,378,o),
(108,411,o),
(108,452,cs),
(108,493,o),
(140,526,o),
(181,526,cs),
(222,526,o),
(254,493,o),
(254,452,cs),
(254,411,o),
(222,378,o),
(181,378,cs)
);
},
{
closed = 1;
nodes = (
(371,548,o),
(339,581,o),
(339,622,cs),
(339,663,o),
(371,696,o),
(412,696,cs),
(453,696,o),
(485,663,o),
(485,622,cs),
(485,581,o),
(453,548,o),
(412,548,cs)
);
}
);
};
layerId = m01;
shapes = (
{
closed = 1;
nodes = (
(402,528,o),
(445,570,o),
(445,624,cs),
(445,678,o),
(404,720,o),
(350,720,cs),
(296,720,o),
(253,678,o),
(253,624,cs),
(253,570,o),
(296,528,o),
(349,528,cs)
);
},
{
closed = 1;
nodes = (
(234,351,o),
(277,393,o),
(277,447,cs),
(277,501,o),
(236,543,o),
(182,543,cs),
(128,543,o),
(85,501,o),
(85,447,cs),
(85,393,o),
(128,351,o),
(181,351,cs)
);
},
{
closed = 1;
nodes = (
(138,372,o),
(107,406,o),
(107,447,cs),
(107,488,o),
(138,522,o),
(181,522,cs),
(224,522,o),
(255,488,o),
(255,447,cs),
(255,406,o),
(224,372,o),
(181,372,cs)
);
},
{
closed = 1;
nodes = (
(306,549,o),
(275,583,o),
(275,624,cs),
(275,665,o),
(306,699,o),
(349,699,cs),
(392,699,o),
(423,665,o),
(423,624,cs),
(423,583,o),
(392,549,o),
(349,549,cs)
);
}
);
width = 530;
},
{
background = {
shapes = (
{
closed = 1;
nodes = (
(374,528,o),
(415,569,o),
(415,625,cs),
(415,680,o),
(373,720,o),
(316,720,cs),
(259,720,o),
(217,680,o),
(217,625,cs),
(217,569,o),
(258,528,o),
(316,528,cs)
);
},
{
closed = 1;
nodes = (
(196,351,o),
(237,392,o),
(237,448,cs),
(237,503,o),
(195,543,o),
(138,543,cs),
(81,543,o),
(39,503,o),
(39,448,cs),
(39,392,o),
(80,351,o),
(138,351,cs)
);
},
{
closed = 1;
nodes = (
(117,410,o),
(104,427,o),
(104,448,cs),
(104,468,o),
(117,484,o),
(138,484,cs),
(158,484,o),
(172,468,o),
(172,448,cs),
(172,427,o),
(158,410,o),
(138,410,cs)
);
},
{
closed = 1;
nodes = (
(294,587,o),
(282,604,o),
(282,625,cs),
(282,645,o),
(295,661,o),
(316,661,cs),
(336,661,o),
(350,645,o),
(350,625,cs),
(350,604,o),
(336,587,o),
(316,587,cs)
);
}
);
};
layerId = "A1461942-0433-4891-A171-8512F51D8C86";
shapes = (
{
closed = 1;
nodes = (
(374,528,o),
(415,569,o),
(415,625,cs),
(415,680,o),
(373,720,o),
(316,720,cs),
(259,720,o),
(217,680,o),
(217,625,cs),
(217,569,o),
(258,528,o),
(316,528,cs)
);
},
{
closed = 1;
nodes = (
(196,351,o),
(237,392,o),
(237,448,cs),
(237,503,o),
(195,543,o),
(138,543,cs),
(81,543,o),
(39,503,o),
(39,448,cs),
(39,392,o),
(80,351,o),
(138,351,cs)
);
},
{
closed = 1;
nodes = (
(117,410,o),
(104,427,o),
(104,448,cs),
(104,468,o),
(117,484,o),
(138,484,cs),
(158,484,o),
(172,468,o),
(172,448,cs),
(172,427,o),
(158,410,o),
(138,410,cs)
);
},
{
closed = 1;
nodes = (
(294,587,o),
(282,604,o),
(282,625,cs),
(282,645,o),
(295,661,o),
(316,661,cs),
(336,661,o),
(350,645,o),
(350,625,cs),
(350,604,o),
(336,587,o),
(316,587,cs)
);
}
);
width = 454;
},
{
background = {
shapes = (
{
closed = 1;
nodes = (
(267,528,o),
(297,571,o),
(297,624,cs),
(297,677,o),
(268,720,o),
(230,720,cs),
(192,720,o),
(162,678,o),
(162,624,cs),
(162,570,o),
(192,528,o),
(229,528,cs)
);
},
{
closed = 1;
nodes = (
(148,351,o),
(179,393,o),
(179,447,cs),
(179,500,o),
(150,543,o),
(112,543,cs),
(74,543,o),
(44,501,o),
(44,447,cs),
(44,393,o),
(74,351,o),
(111,351,cs)
);
},
{
closed = 1;
nodes = (
(82,372,o),
(61,406,o),
(61,447,cs),
(61,488,o),
(82,522,o),
(111,522,cs),
(140,522,o),
(161,488,o),
(161,447,cs),
(161,406,o),
(140,372,o),
(111,372,cs)
);
},
{
closed = 1;
nodes = (
(200,549,o),
(179,583,o),
(179,624,cs),
(179,665,o),
(200,699,o),
(229,699,cs),
(258,699,o),
(280,665,o),
(280,624,cs),
(280,583,o),
(258,549,o),
(229,549,cs)
);
}
);
};
layerId = "341CD669-D84F-4333-8BC8-F9777E6D3814";
shapes = (
{
closed = 1;
nodes = (
(270,528,o),
(297,564,o),
(297,624,cs),
(297,684,o),
(270,720,o),
(229,720,cs),
(188,720,o),
(161,684,o),
(161,624,cs),
(161,564,o),
(188,528,o),
(229,528,cs)
);
},
{
closed = 1;
nodes = (
(153,351,o),
(180,387,o),
(180,447,cs),
(180,507,o),
(153,543,o),
(112,543,cs),
(71,543,o),
(44,507,o),
(44,447,cs),
(44,387,o),
(71,351,o),
(112,351,cs)
);
},
{
closed = 1;
nodes = (
(82,371,o),
(65,397,o),
(65,447,cs),
(65,497,o),
(82,523,o),
(112,523,cs),
(142,523,o),
(159,497,o),
(159,447,cs),
(159,397,o),
(142,371,o),
(112,371,cs)
);
},
{
closed = 1;
nodes = (
(199,548,o),
(182,574,o),
(182,624,cs),
(182,674,o),
(199,700,o),
(229,700,cs),
(259,700,o),
(276,674,o),
(276,624,cs),
(276,574,o),
(259,548,o),
(229,548,cs)
);
}
);
width = 341;
},
{
background = {
shapes = (
{
closed = 1;
nodes = (
(267,528,o),
(296,564,o),
(296,625,cs),
(296,686,o),
(265,720,o),
(224,720,cs),
(182,720,o),
(152,686,o),
(152,625,cs),
(152,564,o),
(181,528,o),
(224,528,cs)
);
},
{
closed = 1;
nodes = (
(136,351,o),
(165,387,o),
(165,448,cs),
(165,509,o),
(134,543,o),
(93,543,cs),
(51,543,o),
(21,509,o),
(21,448,cs),
(21,387,o),
(50,351,o),
(93,351,cs)
);
},
{
closed = 1;
nodes = (
(83,406,o),
(76,416,o),
(76,448,cs),
(76,480,o),
(83,488,o),
(93,488,cs),
(103,488,o),
(110,480,o),
(110,448,cs),
(110,416,o),
(103,406,o),
(93,406,cs)
);
},
{
closed = 1;
nodes = (
(214,583,o),
(207,593,o),
(207,625,cs),
(207,657,o),
(214,665,o),
(224,665,cs),
(234,665,o),
(241,657,o),
(241,625,cs),
(241,593,o),
(234,583,o),
(224,583,cs)
);
}
);
};
layerId = "4DD67900-F9B0-4F36-BC45-F4B21129580C";
shapes = (
{
closed = 1;
nodes = (
(267,528,o),
(296,564,o),
(296,625,cs),
(296,686,o),
(265,720,o),
(224,720,cs),
(182,720,o),
(152,686,o),
(152,625,cs),
(152,564,o),
(181,528,o),
(224,528,cs)
);
},
{
closed = 1;
nodes = (
(136,351,o),
(165,387,o),
(165,448,cs),
(165,509,o),
(134,543,o),
(93,543,cs),
(51,543,o),
(21,509,o),
(21,448,cs),
(21,387,o),
(50,351,o),
(93,351,cs)
);
},
{
closed = 1;
nodes = (
(83,406,o),
(76,416,o),
(76,448,cs),
(76,480,o),
(83,488,o),
(93,488,cs),
(103,488,o),
(110,480,o),
(110,448,cs),
(110,416,o),
(103,406,o),
(93,406,cs)
);
},
{
closed = 1;
nodes = (
(214,583,o),
(207,593,o),
(207,625,cs),
(207,657,o),
(214,665,o),
(224,665,cs),
(234,665,o),
(241,657,o),
(241,625,cs),
(241,593,o),
(234,583,o),
(224,583,cs)
);
}
);
width = 317;
}
);
note = uni141D;
unicode = 5149;
},
{
color = 4;
glyphname = "glottalstop-canadian";
lastChange = "2022-07-04 21:50:21 +0000";
layers = (
{
background = {
shapes = (
{
closed = 1;
nodes = (
(452,357,l),
(452,366,l),
(285,714,l),
(271,714,l),
(104,366,l),
(104,357,l)
);
},
{
closed = 1;
nodes = (
(288,705,l),
(268,705,l),
(429,364,l),
(437,378,l),
(119,378,l),
(127,364,l)
);
}
);
};
layerId = m01;
shapes = (
{
closed = 1;
nodes = (
(428,357,l),
(428,366,l),
(261,714,l),
(247,714,l),
(80,366,l),
(80,357,l)
);
},
{
closed = 1;
nodes = (
(264,700,l),
(244,700,l),
(405,364,l),
(413,378,l),
(95,378,l),
(103,364,l)
);
}
);
width = 508;
},
{
background = {
shapes = (
{
closed = 1;
nodes = (
(431,357,l),
(431,380,l),
(249,714,l),
(221,714,l),
(39,380,l),
(39,357,l)
);
},
{
closed = 1;
nodes = (
(255,588,l),
(212,588,l),
(305,415,l),
(327,446,l),
(143,446,l),
(161,415,l)
);
}
);
};
layerId = "A1461942-0433-4891-A171-8512F51D8C86";
shapes = (
{
closed = 1;
nodes = (
(431,357,l),
(431,380,l),
(249,714,l),
(221,714,l),
(39,380,l),
(39,357,l)
);
},
{
closed = 1;
nodes = (
(261,588,l),
(206,588,l),
(299,415,l),
(327,452,l),
(143,452,l),
(167,415,l)
);
}
);
width = 470;
},
{
background = {
shapes = (
{
closed = 1;
nodes = (
(289,357,l),
(289,366,l),
(172,714,l),
(162,714,l),
(44,366,l),
(44,357,l)
);
},
{
closed = 1;
nodes = (
(174,701,l),
(159,701,l),
(269,364,l),
(275,378,l),
(58,378,l),
(64,364,l)
);
}
);
};
layerId = "341CD669-D84F-4333-8BC8-F9777E6D3814";
shapes = (
{
closed = 1;
nodes = (
(289,357,l),
(289,366,l),
(172,714,l),
(162,714,l),
(44,366,l),
(44,357,l)
);
},
{
closed = 1;
nodes = (
(174,691,l),
(160,691,l),
(268,364,l),
(275,379,l),
(58,379,l),
(65,364,l)
);
}
);
width = 333;
},
{
background = {
shapes = (
{
closed = 1;
nodes = (
(315,357,l),
(315,379,l),
(180,714,l),
(156,714,l),
(21,379,l),
(21,357,l)
);
},
{
closed = 1;
nodes = (
(191,595,l),
(150,595,l),
(218,412,l),
(227,437,l),
(116,437,l),
(122,412,l)
);
}
);
};
layerId = "4DD67900-F9B0-4F36-BC45-F4B21129580C";
shapes = (
{
closed = 1;
nodes = (
(315,357,l),
(315,379,l),
(180,714,l),
(156,714,l),
(21,379,l),
(21,357,l)
);
},
{
closed = 1;
nodes = (
(194,595,l),
(143,595,l),
(211,412,l),
(225,442,l),
(114,442,l),
(125,412,l)
);
}
);
width = 336;
}
);
metricRight = "=|";
note = uni141E;
unicode = 5150;
},
{
color = 4;
glyphname = "pe-canadian";
lastChange = "2022-07-04 21:50:21 +0000";
layers = (
{
anchors = (
{
name = middle_center_can;
pos = (387,470);
},
{
name = top_center_can;
pos = (387,714);
},
{
name = top_left_can;
pos = (130,714);
},
{
name = top_right_can;
pos = (645,714);
}
);
background = {
shapes = (
{
closed = 1;
nodes = (
(405,0,l),
(740,701,l),
(740,714,l),
(45,714,l),
(45,701,l),
(380,0,l)
);
},
{
closed = 1;
nodes = (
(397,19,l),
(75,700,l),
(75,689,l),
(711,689,l),
(711,700,l),
(389,19,l)
);
}
);
};
layerId = m01;
shapes = (
{
closed = 1;
nodes = (
(405,0,l),
(740,701,l),
(740,714,l),
(717,714,l),
(389,19,l),
(396,19,l),
(68,714,l),
(45,714,l),
(45,701,l),
(380,0,l)
);
}
);
width = 785;
},
{
anchors = (
{
name = middle_center_can;
pos = (422,470);
},
{
name = top_center_can;
pos = (422,714);
},
{
name = top_left_can;
pos = (165,714);
},
{
name = top_right_can;
pos = (680,714);
}
);
background = {
anchors = (
{
name = middle_center_can;
pos = (422,470);
},
{
name = middle_left_can;
pos = (31,357);
},
{
name = middle_right_can;
pos = (814,357);
},
{
name = top_center_can;
pos = (422,714);
},
{
name = top_left_can;
pos = (165,714);
},
{
name = top_right_can;
pos = (680,714);
}
);
shapes = (
{
closed = 1;
nodes = (
(450,0,l),
(814,669,l),
(814,714,l),
(646,714,l),
(394,244,l),
(459,244,l),
(211,714,l),
(30,714,l),
(30,669,l),
(394,0,l)
);
}
);
};
layerId = "A1461942-0433-4891-A171-8512F51D8C86";
shapes = (
{
closed = 1;
nodes = (
(450,0,l),
(814,669,l),
(814,714,l),
(626,714,l),
(374,242,l),
(479,242,l),
(231,714,l),
(30,714,l),
(30,669,l),
(394,0,l)
);
}
);
width = 844;
},
{
anchors = (
{
name = middle_center_can;
pos = (276,470);
},
{
name = top_center_can;
pos = (276,714);
},
{
name = top_left_can;
pos = (97,714);
},
{
name = top_right_can;
pos = (457,714);
}
);
background = {
anchors = (
{
name = middle_center_can;
pos = (276,470);
},
{
name = middle_left_can;
pos = (43,357);
},
{
name = middle_right_can;
pos = (517,357);
},
{
name = top_center_can;
pos = (276,714);
},
{
name = top_left_can;
pos = (97,714);
},
{
name = top_right_can;
pos = (457,714);
}
);
shapes = (
{
closed = 1;
nodes = (
(1189,0,l),
(1425,701,l),
(1425,714,l),
(1403,714,l),
(1177,18,l),
(1185,18,l),
(958,714,l),
(935,714,l),
(935,701,l),
(1171,0,l)
);
},
{
closed = 1;
nodes = (
(289,0,l),
(525,701,l),
(525,714,l),
(35,714,l),
(35,701,l),
(271,0,l)
);
},
{
closed = 1;
nodes = (
(284,27,l),
(59,701,l),
(59,690,l),
(501,690,l),
(500,701,l),
(275,27,l)
);
}
);
};
layerId = "341CD669-D84F-4333-8BC8-F9777E6D3814";
shapes = (
{
closed = 1;
nodes = (
(289,0,l),
(525,701,l),
(525,714,l),
(503,714,l),
(275,27,l),
(285,27,l),
(57,714,l),
(35,714,l),
(35,701,l),
(271,0,l)
);
}
);
width = 560;
},
{
anchors = (
{
name = middle_center_can;
pos = (312,470);
},
{
name = top_center_can;
pos = (312,714);
},
{
name = top_left_can;
pos = (127,714);
},
{
name = top_right_can;
pos = (497,714);
}
);
background = {
anchors = (
{
name = middle_center_can;
pos = (312,470);
},
{
name = middle_left_can;
pos = (19,357);
},
{
name = middle_right_can;
pos = (602,357);
},
{
name = top_center_can;
pos = (312,714);
},
{
name = top_left_can;
pos = (127,714);
},
{
name = top_right_can;
pos = (497,714);
}
);
shapes = (
{
closed = 1;
nodes = (
(334,0,l),
(604,671,l),
(604,714,l),
(454,714,l),
(260,207,l),
(366,207,l),
(170,714,l),
(16,714,l),
(16,671,l),
(286,0,l)
);
}
);
};
guides = (
{
angle = 248.0809;
pos = (445,714);
},
{
angle = -68.0809;
pos = (188,714);
}
);
layerId = "4DD67900-F9B0-4F36-BC45-F4B21129580C";
shapes = (
{
closed = 1;
nodes = (
(334,0,l),
(604,671,l),
(604,714,l),
(439,714,l),
(245,212,l),
(381,212,l),
(185,714,l),
(16,714,l),
(16,671,l),
(286,0,l)
);
}
);
width = 620;
}
);
metricLeft = "e-canadian";
metricRight = "e-canadian";
note = uni142F;
unicode = 5167;
},
{
color = 4;
glyphname = "pi-canadian";
lastChange = "2022-07-04 21:50:21 +0000";
layers = (
{
anchors = (
{
name = middle_center_can;
pos = (387,470);
},
{
name = top_center_can;
pos = (387,714);
},
{
name = top_left_can;
pos = (130,714);
},
{
name = top_right_can;
pos = (645,714);
}
);
background = {
shapes = (
{
closed = 1;
nodes = (
(384,698,l),
(701,0,l),
(724,0,l),
(724,13,l),
(396,726,l),
(373,726,l),
(45,13,l),
(45,0,l),
(68,0,l),
(68,0,l)
);
}
);
};
layerId = m01;
shapes = (
{
closed = 1;
nodes = (
(68,0,l),
(396,695,l),
(389,695,l),
(717,0,l),
(740,0,l),
(740,13,l),
(405,714,l),
(380,714,l),
(45,13,l),
(45,0,l)
);
}
);
width = 785;
},
{
anchors = (
{
name = middle_center_can;
pos = (422,237);
},
{
name = top_center_can;
pos = (422,714);
},
{
name = top_left_can;
pos = (165,714);
},
{
name = top_right_can;
pos = (680,714);
}
);
background = {
anchors = (
{
name = middle_center_can;
pos = (422,237);
},
{
name = middle_left_can;
pos = (31,357);
},
{
name = middle_right_can;
pos = (813,357);
},
{
name = top_center_can;
pos = (422,714);
},
{
name = top_left_can;
pos = (165,714);
},
{
name = top_right_can;
pos = (680,714);
}
);
shapes = (
{
closed = 1;
nodes = (
(203,0,l),
(458,470,l),
(391,470,l),
(638,0,l),
(814,0,l),
(814,45,l),
(450,714,l),
(394,714,l),
(30,45,l),
(30,0,l)
);
}
);
};
layerId = "A1461942-0433-4891-A171-8512F51D8C86";
shapes = (
{
closed = 1;
nodes = (
(221,0,l),
(476,472,l),
(369,472,l),
(616,0,l),
(814,0,l),
(814,45,l),
(450,714,l),
(394,714,l),
(30,45,l),
(30,0,l)
);
}
);
width = 844;
},
{
anchors = (
{
name = middle_center_can;
pos = (276,471);
},
{
name = top_center_can;
pos = (276,714);
},
{
name = top_left_can;
pos = (97,714);
},
{
name = top_right_can;
pos = (457,714);
}
);
background = {
anchors = (
{
name = middle_center_can;
pos = (276,471);
},
{
name = middle_left_can;
pos = (43,357);
},
{
name = middle_right_can;
pos = (517,357);
},
{
name = top_center_can;
pos = (276,714);
},
{
name = top_left_can;
pos = (97,714);
},
{
name = top_right_can;
pos = (457,714);
}
);
shapes = (
{
closed = 1;
nodes = (
(57,0,l),
(284,696,l),
(276,696,l),
(502,0,l),
(525,0,l),
(525,13,l),
(289,714,l),
(271,714,l),
(35,13,l),
(35,0,l)
);
}
);
};
layerId = "341CD669-D84F-4333-8BC8-F9777E6D3814";
shapes = (
{
closed = 1;
nodes = (
(57,0,l),
(285,687,l),
(275,687,l),
(503,0,l),
(525,0,l),
(525,13,l),
(289,714,l),
(271,714,l),
(35,13,l),
(35,0,l)
);
}
);
width = 560;
},
{
anchors = (
{
name = middle_center_can;
pos = (312,251);
},
{
name = top_center_can;
pos = (312,714);
},
{
name = top_left_can;
pos = (127,714);
},
{
name = top_right_can;
pos = (497,714);
}
);
background = {
anchors = (
{
name = middle_center_can;
pos = (312,251);
},
{
name = middle_left_can;
pos = (20,357);
},
{
name = middle_right_can;
pos = (605,357);
},
{
name = top_center_can;
pos = (312,714);
},
{
name = top_left_can;
pos = (127,714);
},
{
name = top_right_can;
pos = (497,714);
}
);
shapes = (
{
closed = 1;
nodes = (
(166,0,l),
(360,507,l),
(254,507,l),
(450,0,l),
(604,0,l),
(604,43,l),
(334,714,l),
(286,714,l),
(16,43,l),
(16,0,l)
);
}
);
};
layerId = "4DD67900-F9B0-4F36-BC45-F4B21129580C";
shapes = (
{
closed = 1;
nodes = (
(183,0,l),
(377,502,l),
(241,502,l),
(437,0,l),
(604,0,l),
(604,43,l),
(334,714,l),
(286,714,l),
(16,43,l),
(16,0,l)
);
}
);
width = 620;
}
);
metricLeft = "e-canadian";
metricRight = "e-canadian";
note = uni1431;
unicode = 5169;
},
{
color = 4;
glyphname = "po-canadian";
lastChange = "2022-07-04 21:50:21 +0000";
layers = (
{
anchors = (
{
name = middle_center_can;
pos = (281,357);
},
{
name = top_center_can;
pos = (383,714);
},
{
name = top_left_can;
pos = (88,714);
},
{
name = top_right_can;
pos = (661,714);
}
);
background = {
shapes = (
{
closed = 1;
nodes = (
(1159,348,l),
(1159,366,l),
(545,725,l),
(535,725,l),
(535,702,l),
(1125,357,l),
(535,12,l),
(535,-12,l),
(545,-12,l),
(545,-12,l)
);
},
{
closed = 1;
nodes = (
(68,-12,l),
(681,347,l),
(681,367,l),
(68,726,l),
(55,726,l),
(55,-12,l)
);
},
{
closed = 1;
nodes = (
(80,696,l),
(69,698,l),
(662,352,l),
(662,362,l),
(69,16,l),
(80,17,l)
);
}
);
};
layerId = m01;
shapes = (
{
closed = 1;
nodes = (
(88,0,l),
(691,347,l),
(691,367,l),
(88,714,l),
(75,714,l),
(75,694,l),
(672,351,l),
(672,363,l),
(75,20,l),
(75,0,l)
);
}
);
width = 736;
},
{
anchors = (
{
name = middle_center_can;
pos = (180,357);
},
{
name = top_center_can;
pos = (372,714);
},
{
name = top_left_can;
pos = (127,714);
},
{
name = top_right_can;
pos = (630,714);
}
);
background = {
anchors = (
{
name = middle_center_can;
pos = (180,357);
},
{
name = middle_left_can;
pos = (-16,357);
},
{
name = middle_right_can;
pos = (859,357);
},
{
name = top_center_can;
pos = (372,714);
},
{
name = top_left_can;
pos = (127,714);
},
{
name = top_right_can;
pos = (630,714);
}
);
shapes = (
{
closed = 1;
nodes = (
(89,0,l),
(699,329,l),
(699,385,l),
(89,714,l),
(44,714,l),
(44,546,l),
(455,330,l),
(455,386,l),
(44,170,l),
(44,0,l)
);
}
);
};
layerId = "A1461942-0433-4891-A171-8512F51D8C86";
shapes = (
{
closed = 1;
nodes = (
(89,0,l),
(699,329,l),
(699,385,l),
(89,714,l),
(44,714,l),
(44,531,l),
(455,315,l),
(455,401,l),
(44,185,l),
(44,0,l)
);
}
);
width = 728;
},
{
anchors = (
{
name = middle_center_can;
pos = (183,357);
},
{
name = top_center_can;
pos = (258,714);
},
{
name = top_left_can;
pos = (53,714);
},
{
name = top_right_can;
pos = (451,714);
}
);
background = {
anchors = (
{
name = middle_center_can;
pos = (183,357);
},
{
name = middle_left_can;
pos = (19,357);
},
{
name = middle_right_can;
pos = (566,357);
},
{
name = top_center_can;
pos = (258,714);
},
{
name = top_left_can;
pos = (53,714);
},
{
name = top_right_can;
pos = (451,714);
}
);
shapes = (
{
closed = 1;
nodes = (
(45,0,l),
(474,348,l),
(474,366,l),
(45,714,l),
(34,714,l),
(34,0,l)
);
},
{
closed = 1;
nodes = (
(57,683,l),
(48,683,l),
(460,350,l),
(460,364,l),
(48,31,l),
(57,31,l)
);
}
);
};
layerId = "341CD669-D84F-4333-8BC8-F9777E6D3814";
shapes = (
{
closed = 1;
nodes = (
(52,0,l),
(474,348,l),
(474,366,l),
(52,714,l),
(41,714,l),
(41,693,l),
(460,349,l),
(460,365,l),
(41,21,l),
(41,0,l)
);
}
);
width = 501;
},
{
anchors = (
{
name = middle_center_can;
pos = (127,357);
},
{
name = top_center_can;
pos = (267,714);
},
{
name = top_left_can;
pos = (105,714);
},
{
name = top_right_can;
pos = (456,714);
}
);
background = {
anchors = (
{
name = middle_center_can;
pos = (147,357);
},
{
name = middle_left_can;
pos = (-4,357);
},
{
name = middle_right_can;
pos = (629,357);
},
{
name = top_center_can;
pos = (267,714);
},
{
name = top_left_can;
pos = (105,714);
},
{
name = top_right_can;
pos = (446,714);
}
);
shapes = (
{
closed = 1;
nodes = (
(68,0,l),
(506,330,l),
(506,384,l),
(68,714,l),
(27,714,l),
(27,561,l),
(325,337,l),
(325,379,l),
(27,155,l),
(27,0,l)
);
}
);
};
guides = (
{
angle = 143.0047;
pos = (386,285);
}
);
layerId = "4DD67900-F9B0-4F36-BC45-F4B21129580C";
shapes = (
{
closed = 1;
nodes = (
(68,0,l),
(526,330,l),
(526,384,l),
(68,714,l),
(27,714,l),
(27,542,l),
(342,318,l),
(342,398,l),
(27,174,l),
(27,0,l)
);
}
);
width = 544;
}
);
metricRight = "o-canadian";
note = uni1433;
unicode = 5171;
},
{
color = 4;
glyphname = "pa-canadian";
lastChange = "2022-07-04 21:50:21 +0000";
layers = (
{
anchors = (
{
name = middle_center_can;
pos = (271,357);
},
{
name = top_center_can;
pos = (353,714);
},
{
name = top_left_can;
pos = (58,714);
},
{
name = top_right_can;
pos = (648,714);
}
);
background = {
shapes = (
{
closed = 1;
nodes = (
(671,0,l),
(671,714,l),
(658,714,l),
(45,367,l),
(45,347,l),
(658,0,l)
);
},
{
closed = 1;
nodes = (
(656,28,l),
(64,363,l),
(64,351,l),
(655,685,l),
(646,685,l),
(646,28,l)
);
}
);
};
layerId = m01;
shapes = (
{
closed = 1;
nodes = (
(661,0,l),
(661,20,l),
(64,363,l),
(64,351,l),
(661,694,l),
(661,714,l),
(648,714,l),
(45,367,l),
(45,347,l),
(648,0,l)
);
}
);
width = 736;
},
{
anchors = (
{
name = middle_center_can;
pos = (458,357);
},
{
name = top_center_can;
pos = (357,714);
},
{
name = top_left_can;
pos = (112,714);
},
{
name = top_right_can;
pos = (601,714);
}
);
background = {
anchors = (
{
name = middle_center_can;
pos = (458,357);
},
{
name = middle_left_can;
pos = (-131,357);
},
{
name = middle_right_can;
pos = (744,357);
},
{
name = top_center_can;
pos = (357,714);
},
{
name = top_left_can;
pos = (112,714);
},
{
name = top_right_can;
pos = (601,714);
}
);
shapes = (
{
closed = 1;
nodes = (
(684,0,l),
(684,168,l),
(273,384,l),
(273,328,l),
(684,544,l),
(684,714,l),
(639,714,l),
(29,385,l),
(29,329,l),
(639,0,l)
);
}
);
};
layerId = "A1461942-0433-4891-A171-8512F51D8C86";
shapes = (
{
closed = 1;
nodes = (
(684,0,l),
(684,183,l),
(273,399,l),
(273,313,l),
(684,529,l),
(684,714,l),
(639,714,l),
(29,385,l),
(29,329,l),
(639,0,l)
);
}
);
width = 728;
},
{
anchors = (
{
name = middle_center_can;
pos = (194,357);
},
{
name = top_center_can;
pos = (244,714);
},
{
name = top_left_can;
pos = (39,714);
},
{
name = top_right_can;
pos = (448,714);
}
);
background = {
anchors = (
{
name = middle_center_can;
pos = (194,357);
},
{
name = middle_left_can;
pos = (-65,357);
},
{
name = middle_right_can;
pos = (482,357);
},
{
name = top_center_can;
pos = (244,714);
},
{
name = top_left_can;
pos = (39,714);
},
{
name = top_right_can;
pos = (448,714);
}
);
shapes = (
{
closed = 1;
nodes = (
(460,0,l),
(460,20,l),
(50,363,l),
(50,351,l),
(460,694,l),
(460,714,l),
(450,714,l),
(27,367,l),
(27,347,l),
(450,0,l)
);
}
);
};
layerId = "341CD669-D84F-4333-8BC8-F9777E6D3814";
shapes = (
{
closed = 1;
nodes = (
(460,0,l),
(460,21,l),
(41,365,l),
(41,349,l),
(460,693,l),
(460,714,l),
(449,714,l),
(27,366,l),
(27,348,l),
(449,0,l)
);
}
);
width = 501;
},
{
anchors = (
{
name = middle_center_can;
pos = (402,357);
},
{
name = top_center_can;
pos = (279,714);
},
{
name = top_left_can;
pos = (107,714);
},
{
name = top_right_can;
pos = (440,714);
}
);
background = {
anchors = (
{
name = middle_center_can;
pos = (382,357);
},
{
name = middle_left_can;
pos = (-84,357);
},
{
name = middle_right_can;
pos = (549,357);
},
{
name = top_center_can;
pos = (279,714);
},
{
name = top_left_can;
pos = (117,714);
},
{
name = top_right_can;
pos = (440,714);
}
);
shapes = (
{
closed = 1;
nodes = (
(518,0,l),
(518,153,l),
(220,377,l),
(220,335,l),
(518,559,l),
(518,714,l),
(477,714,l),
(39,384,l),
(39,330,l),
(477,0,l)
);
}
);
};
layerId = "4DD67900-F9B0-4F36-BC45-F4B21129580C";
shapes = (
{
closed = 1;
nodes = (
(476,714,l),
(18,384,l),
(18,330,l),
(476,0,l),
(517,0,l),
(517,172,l),
(202,396,l),
(202,316,l),
(517,540,l),
(517,714,l)
);
}
);
width = 544;
}
);
metricLeft = "a-canadian";
metricRight = "=|po-canadian";
note = uni1438;
unicode = 5176;
},
{
color = 4;
glyphname = "p-canadian";
lastChange = "2022-07-04 10:24:42 +0000";
layers = (
{
background = {
shapes = (
{
closed = 1;
nodes = (
(388,357,l),
(388,376,l),
(90,547,l),
(90,525,l),
(388,696,l),
(388,714,l),
(376,714,l),
(80,543,l),
(80,529,l),
(376,357,l)
);
}
);
};
layerId = m01;
shapes = (
{
closed = 1;
nodes = (
(388,357,l),
(388,376,l),
(100,542,l),
(100,530,l),
(388,695,l),
(388,714,l),
(376,714,l),
(80,543,l),
(80,529,l),
(376,357,l)
);
}
);
width = 468;
},
{
background = {
shapes = (
{
closed = 1;
nodes = (
(357,357,l),
(357,451,l),
(151,559,l),
(151,511,l),
(357,619,l),
(357,714,l),
(334,714,l),
(29,550,l),
(29,522,l),
(334,357,l)
);
}
);
};
layerId = "A1461942-0433-4891-A171-8512F51D8C86";
shapes = (
{
closed = 1;
nodes = (
(357,357,l),
(357,471,l),
(151,579,l),
(151,491,l),
(357,599,l),
(357,714,l),
(334,714,l),
(29,550,l),
(29,522,l),
(334,357,l)
);
}
);
width = 396;
},
{
background = {
shapes = (
{
closed = 1;
nodes = (
(260,357,l),
(260,376,l),
(62,542,l),
(62,530,l),
(260,695,l),
(260,714,l),
(252,714,l),
(44,543,l),
(44,529,l),
(252,357,l)
);
}
);
};
layerId = "341CD669-D84F-4333-8BC8-F9777E6D3814";
shapes = (
{
closed = 1;
nodes = (
(260,357,l),
(260,377,l),
(61,542,l),
(61,530,l),
(260,694,l),
(260,714,l),
(252,714,l),
(44,543,l),
(44,529,l),
(252,357,l)
);
}
);
width = 304;
},
{
background = {
shapes = (
{
closed = 1;
nodes = (
(253,357,l),
(253,446,l),
(102,558,l),
(102,512,l),
(253,623,l),
(253,714,l),
(234,714,l),
(12,550,l),
(12,522,l),
(234,357,l)
);
}
);
};
layerId = "4DD67900-F9B0-4F36-BC45-F4B21129580C";
shapes = (
{
closed = 1;
nodes = (
(253,357,l),
(253,463,l),
(102,575,l),
(102,495,l),
(253,606,l),
(253,714,l),
(234,714,l),
(12,550,l),
(12,522,l),
(234,357,l)
);
}
);
width = 274;
}
);
note = uni1449;
unicode = 5193;
},
{
color = 4;
glyphname = "pWestCree-canadian";
lastChange = "2022-07-04 21:50:21 +0000";
layers = (
{
background = {
shapes = (
{
closed = 1;
nodes = (
(129,714,l),
(105,714,l),
(105,352,l),
(129,352,l),
(129,352,l)
);
}
);
};
layerId = m01;
shapes = (
{
closed = 1;
nodes = (
(109,357,l),
(109,714,l),
(85,714,l),
(85,357,l)
);
}
);
width = 194;
},
{
background = {
shapes = (
{
closed = 1;
nodes = (
(151,357,l),
(151,714,l),
(35,714,l),
(35,357,l)
);
}
);
};
layerId = "A1461942-0433-4891-A171-8512F51D8C86";
shapes = (
{
closed = 1;
nodes = (
(160,357,l),
(160,714,l),
(35,714,l),
(35,357,l)
);
}
);
width = 195;
},
{
background = {
shapes = (
{
closed = 1;
nodes = (
(65,357,l),
(65,714,l),
(44,714,l),
(44,357,l)
);
}
);
};
layerId = "341CD669-D84F-4333-8BC8-F9777E6D3814";
shapes = (
{
closed = 1;
nodes = (
(66,357,l),
(66,714,l),
(44,714,l),
(44,357,l)
);
}
);
width = 110;
},
{
background = {
shapes = (
{
closed = 1;
nodes = (
(128,357,l),
(128,714,l),
(20,714,l),
(20,357,l)
);
}
);
};
layerId = "4DD67900-F9B0-4F36-BC45-F4B21129580C";
shapes = (
{
closed = 1;
nodes = (
(128,357,l),
(128,714,l),
(20,714,l),
(20,357,l)
);
}
);
width = 148;
}
);
metricRight = "=|";
note = uni144A;
unicode = 5194;
},
{
color = 4;
glyphname = "hCarrier-canadian";
lastChange = "2022-07-04 10:29:04 +0000";
layers = (
{
background = {
shapes = (
{
closed = 1;
nodes = (
(994,488,ls),
(994,559,o),
(956,600,o),
(895,600,cs),
(856,600,o),
(814,587,o),
(790,572,c),
(790,545,l),
(811,560,o),
(849,577,o),
(890,577,cs),
(941,577,o),
(970,547,o),
(970,480,cs),
(970,342,l),
(994,342,l),
(994,342,l)
);
},
{
closed = 1;
nodes = (
(799,714,l),
(775,714,l),
(775,342,l),
(799,342,l),
(799,342,l)
);
},
{
closed = 1;
nodes = (
(262,183,o),
(308,234,o),
(308,310,cs),
(308,386,o),
(261,436,o),
(192,436,cs),
(137,436,o),
(95,403,o),
(85,358,c),
(88,354,l),
(88,546,l),
(75,546,l),
(75,312,ls),
(75,233,o),
(120,183,o),
(191,183,cs)
);
},
{
closed = 1;
nodes = (
(128,196,o),
(88,239,o),
(88,309,cs),
(88,379,o),
(128,423,o),
(192,423,cs),
(254,423,o),
(295,379,o),
(295,310,cs),
(295,240,o),
(255,196,o),
(192,196,cs)
);
}
);
};
color = 6;
layerId = m01;
shapes = (
{
closed = 1;
nodes = (
(99,189,l),
(99,335,ls),
(99,392,o),
(138,426,o),
(195,426,cs),
(248,426,o),
(278,395,o),
(278,330,cs),
(278,189,l),
(302,189,l),
(302,335,ls),
(302,406,o),
(261,448,o),
(194,448,cs),
(138,448,o),
(92,413,o),
(88,359,c),
(99,359,l),
(99,546,l),
(75,546,l),
(75,189,l)
);
}
);
width = 359;
},
{
background = {
shapes = (
{
closed = 1;
nodes = (
(155,189,l),
(155,290,ls),
(155,326,o),
(173,349,o),
(206,349,cs),
(237,349,o),
(252,327,o),
(252,288,cs),
(252,189,l),
(368,189,l),
(368,303,ls),
(368,407,o),
(300,453,o),
(230,453,cs),
(183,453,o),
(141,430,o),
(131,404,c),
(155,378,l),
(155,546,l),
(39,546,l),
(39,189,l)
);
}
);
};
color = 6;
layerId = "A1461942-0433-4891-A171-8512F51D8C86";
shapes = (
{
closed = 1;
nodes = (
(164,189,l),
(164,284,ls),
(164,318,o),
(179,340,o),
(206,340,cs),
(231,340,o),
(243,319,o),
(243,282,cs),
(243,189,l),
(368,189,l),
(368,303,ls),
(368,407,o),
(300,453,o),
(230,453,cs),
(183,453,o),
(141,430,o),
(131,404,c),
(164,378,l),
(164,546,l),
(39,546,l),
(39,189,l)
);
}
);
width = 397;
},
{
background = {
shapes = (
{
closed = 1;
nodes = (
(66,189,l),
(66,335,ls),
(66,392,o),
(92,426,o),
(131,426,cs),
(167,426,o),
(188,395,o),
(188,330,cs),
(188,189,l),
(208,189,l),
(208,335,ls),
(208,406,o),
(178,448,o),
(131,448,cs),
(93,448,o),
(60,413,o),
(57,359,c),
(66,359,l),
(66,546,l),
(45,546,l),
(45,189,l)
);
}
);
};
color = 6;
layerId = "341CD669-D84F-4333-8BC8-F9777E6D3814";
shapes = (
{
closed = 1;
nodes = (
(66,189,l),
(66,355,ls),
(66,400,o),
(90,427,o),
(131,427,cs),
(169,427,o),
(187,402,o),
(187,350,cs),
(187,189,l),
(209,189,l),
(209,355,ls),
(209,414,o),
(180,448,o),
(131,448,cs),
(88,448,o),
(58,417,o),
(57,372,c),
(66,372,l),
(66,546,l),
(44,546,l),
(44,189,l)
);
}
);
width = 246;
},
{
background = {
shapes = (
{
closed = 1;
nodes = (
(131,189,l),
(131,313,ls),
(131,339,o),
(138,354,o),
(156,354,cs),
(172,354,o),
(179,341,o),
(179,321,cs),
(179,189,l),
(287,189,l),
(287,335,ls),
(287,427,o),
(230,453,o),
(190,453,cs),
(148,453,o),
(119,429,o),
(110,401,c),
(131,377,l),
(131,546,l),
(23,546,l),
(23,189,l)
);
}
);
};
color = 6;
layerId = "4DD67900-F9B0-4F36-BC45-F4B21129580C";
shapes = (
{
closed = 1;
nodes = (
(131,189,l),
(131,309,ls),
(131,334,o),
(138,349,o),
(156,349,cs),
(172,349,o),
(179,336,o),
(179,317,cs),
(179,189,l),
(289,189,l),
(289,335,ls),
(289,427,o),
(230,453,o),
(190,453,cs),
(148,453,o),
(119,429,o),
(110,401,c),
(131,377,l),
(131,546,l),
(21,546,l),
(21,189,l)
);
}
);
width = 303;
}
);
note = uni144B;
unicode = 5195;
},
{
color = 4;
glyphname = "te-canadian";
lastChange = "2022-07-04 21:50:21 +0000";
layers = (
{
anchors = (
{
name = middle_center_can;
pos = (395,357);
},
{
name = top_center_can;
pos = (395,714);
},
{
name = top_left_can;
pos = (108,714);
},
{
name = top_right_can;
pos = (682,714);
}
);
background = {
shapes = (
{
closed = 1;
nodes = (
(1403,-10,o),
(1496,117,o),
(1496,338,cs),
(1496,714,l),
(1470,714,l),
(1470,338,ls),
(1470,136,o),
(1392,15,o),
(1196,15,cs),
(1067,15,o),
(986,70,o),
(949,167,cs),
(930,215,o),
(921,272,o),
(921,339,cs),
(921,714,l),
(895,714,l),
(895,339,ls),
(895,195,o),
(936,89,o),
(1025,33,cs),
(1069,4,o),
(1126,-10,o),
(1195,-10,cs)
);
},
{
closed = 1;
nodes = (
(662,925,l),
(662,430,l),
(670,439,l),
(644,556,o),
(537,640,o),
(395,640,cs),
(216,640,o),
(95,509,o),
(95,314,cs),
(95,118,o),
(214,-11,o),
(395,-11,cs),
(579,-11,o),
(696,118,o),
(696,320,cs),
(696,925,l)
);
},
{
closed = 1;
nodes = (
(564,614,o),
(670,497,o),
(670,314,cs),
(670,129,o),
(566,15,o),
(395,15,cs),
(227,15,o),
(121,132,o),
(121,315,cs),
(121,499,o),
(229,614,o),
(395,614,cs)
);
}
);
};
layerId = m01;
shapes = (
{
closed = 1;
nodes = (
(579,-12,o),
(695,115,o),
(695,329,cs),
(695,714,l),
(669,714,l),
(669,325,ls),
(669,127,o),
(566,14,o),
(395,14,cs),
(227,14,o),
(121,127,o),
(121,324,cs),
(121,714,l),
(95,714,l),
(95,323,ls),
(95,115,o),
(214,-12,o),
(395,-12,cs)
);
}
);
width = 790;
},
{
anchors = (
{
name = middle_center_can;
pos = (412,357);
},
{
name = top_center_can;
pos = (412,714);
},
{
name = top_left_can;
pos = (155,714);
},
{
name = top_right_can;
pos = (670,714);
}
);
background = {
anchors = (
{
name = middle_center_can;
pos = (412,357);
},
{
name = middle_left_can;
pos = (-102,357);
},
{
name = middle_right_can;
pos = (926,357);
},
{
name = top_center_can;
pos = (412,714);
},
{
name = top_left_can;
pos = (155,714);
},
{
name = top_right_can;
pos = (670,714);
}
);
shapes = (
{
closed = 1;
nodes = (
(633,-15,o),
(766,121,o),
(766,347,cs),
(766,714,l),
(573,714,l),
(573,341,ls),
(573,215,o),
(519,152,o),
(412,152,cs),
(308,152,o),
(251,219,o),
(251,341,cs),
(251,714,l),
(58,714,l),
(58,347,ls),
(58,117,o),
(188,-15,o),
(413,-15,cs)
);
}
);
};
layerId = "A1461942-0433-4891-A171-8512F51D8C86";
shapes = (
{
closed = 1;
nodes = (
(633,-15,o),
(766,121,o),
(766,347,cs),
(766,714,l),
(573,714,l),
(573,346,ls),
(573,220,o),
(519,157,o),
(412,157,cs),
(308,157,o),
(251,224,o),
(251,346,cs),
(251,714,l),
(58,714,l),
(58,347,ls),
(58,117,o),
(188,-15,o),
(413,-15,cs)
);
}
);
width = 824;
},
{
anchors = (
{
name = middle_center_can;
pos = (264,357);
},
{
name = top_center_can;
pos = (264,714);
},
{
name = top_left_can;
pos = (65,714);
},
{
name = top_right_can;
pos = (464,714);
}
);
background = {
anchors = (
{
name = middle_center_can;
pos = (264,357);
},
{
name = middle_left_can;
pos = (-40,357);
},
{
name = middle_right_can;
pos = (569,357);
},
{
name = top_center_can;
pos = (264,714);
},
{
name = top_left_can;
pos = (65,714);
},
{
name = top_right_can;
pos = (464,714);
}
);
shapes = (
{
closed = 1;
nodes = (
(395,-12,o),
(477,116,o),
(477,329,cs),
(477,714,l),
(452,714,l),
(452,325,ls),
(452,126,o),
(381,13,o),
(264,13,cs),
(150,13,o),
(77,126,o),
(77,324,cs),
(77,714,l),
(52,714,l),
(52,323,ls),
(52,115,o),
(136,-12,o),
(264,-12,cs)
);
}
);
};
layerId = "341CD669-D84F-4333-8BC8-F9777E6D3814";
shapes = (
{
closed = 1;
nodes = (
(396,-12,o),
(477,73,o),
(477,242,cs),
(477,714,l),
(452,714,l),
(452,240,ls),
(452,84,o),
(383,13,o),
(264,13,cs),
(148,13,o),
(77,86,o),
(77,239,cs),
(77,714,l),
(52,714,l),
(52,238,ls),
(52,74,o),
(136,-12,o),
(264,-12,cs)
);
}
);
width = 529;
},
{
anchors = (
{
name = middle_center_can;
pos = (306,357);
},
{
name = top_center_can;
pos = (306,714);
},
{
name = top_left_can;
pos = (129,714);
},
{
name = top_right_can;
pos = (484,714);
}
);
background = {
anchors = (
{
name = middle_center_can;
pos = (306,357);
},
{
name = middle_left_can;
pos = (-86,357);
},
{
name = middle_right_can;
pos = (698,357);
},
{
name = top_center_can;
pos = (306,714);
},
{
name = top_left_can;
pos = (129,714);
},
{
name = top_right_can;
pos = (484,714);
}
);
shapes = (
{
closed = 1;
nodes = (
(482,-15,o),
(575,85,o),
(575,276,cs),
(575,714,l),
(392,714,l),
(392,265,ls),
(392,188,o),
(365,153,o),
(306,153,cs),
(250,153,o),
(220,191,o),
(220,265,cs),
(220,714,l),
(37,714,l),
(37,276,ls),
(37,85,o),
(134,-15,o),
(307,-15,cs)
);
}
);
};
layerId = "4DD67900-F9B0-4F36-BC45-F4B21129580C";
shapes = (
{
closed = 1;
nodes = (
(482,-15,o),
(575,85,o),
(575,276,cs),
(575,714,l),
(392,714,l),
(392,280,ls),
(392,188,o),
(365,153,o),
(306,153,cs),
(250,153,o),
(220,191,o),
(220,280,cs),
(220,714,l),
(37,714,l),
(37,276,ls),
(37,85,o),
(134,-15,o),
(307,-15,cs)
);
}
);
width = 612;
}
);
metricRight = "=|";
note = uni144C;
unicode = 5196;
},
{
color = 4;
glyphname = "ti-canadian";
lastChange = "2022-07-04 21:50:21 +0000";
layers = (
{
anchors = (
{
name = middle_center_can;
pos = (395,357);
},
{
name = middle_right_can;
pos = (908,357);
},
{
name = top_center_can;
pos = (395,714);
},
{
name = top_left_can;
pos = (108,714);
},
{
name = top_right_can;
pos = (682,714);
}
);
background = {
shapes = (
{
closed = 1;
nodes = (
(121,377,ls),
(121,510,o),
(157,609,o),
(238,662,cs),
(279,688,o),
(331,701,o),
(396,701,cs),
(592,701,o),
(670,580,o),
(670,378,cs),
(670,0,l),
(696,0,l),
(696,378,ls),
(696,599,o),
(603,726,o),
(395,726,cs),
(256,726,o),
(169,668,o),
(127,564,cs),
(106,511,o),
(95,449,o),
(95,377,cs),
(95,0,l),
(121,0,l),
(121,0,l)
);
}
);
};
layerId = m01;
shapes = (
{
closed = 1;
nodes = (
(121,0,l),
(121,389,ls),
(121,587,o),
(224,700,o),
(395,700,cs),
(563,700,o),
(669,587,o),
(669,390,cs),
(669,0,l),
(695,0,l),
(695,391,ls),
(695,599,o),
(576,726,o),
(395,726,cs),
(211,726,o),
(95,599,o),
(95,385,cs),
(95,0,l)
);
}
);
width = 790;
},
{
anchors = (
{
name = middle_center_can;
pos = (412,357);
},
{
name = middle_right_can;
pos = (926,357);
},
{
name = top_center_can;
pos = (412,714);
},
{
name = top_left_can;
pos = (155,714);
},
{
name = top_right_can;
pos = (670,714);
}
);
background = {
anchors = (
{
name = middle_center_can;
pos = (412,357);
},
{
name = middle_left_can;
pos = (-102,357);
},
{
name = middle_right_can;
pos = (926,357);
},
{
name = top_center_can;
pos = (412,714);
},
{
name = top_left_can;
pos = (155,714);
},
{
name = top_right_can;
pos = (670,714);
}
);
shapes = (
{
closed = 1;
nodes = (
(251,0,l),
(251,373,ls),
(251,495,o),
(314,562,o),
(417,562,cs),
(518,562,o),
(573,495,o),
(573,373,cs),
(573,0,l),
(766,0,l),
(766,367,ls),
(766,595,o),
(637,729,o),
(422,729,cs),
(197,729,o),
(58,595,o),
(58,368,cs),
(58,0,l)
);
}
);
};
layerId = "A1461942-0433-4891-A171-8512F51D8C86";
shapes = (
{
closed = 1;
nodes = (
(251,0,l),
(251,368,ls),
(251,490,o),
(314,557,o),
(417,557,cs),
(518,557,o),
(573,490,o),
(573,368,cs),
(573,0,l),
(766,0,l),
(766,367,ls),
(766,595,o),
(637,729,o),
(422,729,cs),
(197,729,o),
(58,595,o),
(58,368,cs),
(58,0,l)
);
}
);
width = 824;
},
{
anchors = (
{
name = middle_center_can;
pos = (264,357);
},
{
name = middle_right_can;
pos = (569,357);
},
{
name = top_center_can;
pos = (264,714);
},
{
name = top_left_can;
pos = (65,714);
},
{
name = top_right_can;
pos = (464,714);
}
);
background = {
anchors = (
{
name = middle_center_can;
pos = (264,357);
},
{
name = middle_left_can;
pos = (-40,357);
},
{
name = middle_right_can;
pos = (569,357);
},
{
name = top_center_can;
pos = (264,714);
},
{
name = top_left_can;
pos = (65,714);
},
{
name = top_right_can;
pos = (464,714);
}
);
shapes = (
{
closed = 1;
nodes = (
(134,726,o),
(52,598,o),
(52,385,cs),
(52,0,l),
(77,0,l),
(77,389,ls),
(77,588,o),
(148,701,o),
(265,701,cs),
(379,701,o),
(452,588,o),
(452,390,cs),
(452,0,l),
(477,0,l),
(477,391,ls),
(477,599,o),
(393,726,o),
(265,726,cs)
);
}
);
};
layerId = "341CD669-D84F-4333-8BC8-F9777E6D3814";
shapes = (
{
closed = 1;
nodes = (
(77,0,l),
(77,474,ls),
(77,630,o),
(146,701,o),
(265,701,cs),
(381,701,o),
(452,628,o),
(452,475,cs),
(452,0,l),
(477,0,l),
(477,476,ls),
(477,640,o),
(393,726,o),
(265,726,cs),
(133,726,o),
(52,641,o),
(52,472,cs),
(52,0,l)
);
}
);
width = 529;
},
{
anchors = (
{
name = middle_center_can;
pos = (306,357);
},
{
name = middle_right_can;
pos = (698,357);
},
{
name = top_center_can;
pos = (306,714);
},
{
name = top_left_can;
pos = (129,714);
},
{
name = top_right_can;
pos = (484,714);
}
);
background = {
anchors = (
{
name = middle_center_can;
pos = (306,357);
},
{
name = middle_left_can;
pos = (-86,357);
},
{
name = middle_right_can;
pos = (698,357);
},
{
name = top_center_can;
pos = (306,714);
},
{
name = top_left_can;
pos = (129,714);
},
{
name = top_right_can;
pos = (484,714);
}
);
shapes = (
{
closed = 1;
nodes = (
(220,0,l),
(220,449,ls),
(220,526,o),
(247,561,o),
(306,561,cs),
(362,561,o),
(392,523,o),
(392,449,cs),
(392,0,l),
(575,0,l),
(575,438,ls),
(575,629,o),
(480,729,o),
(305,729,cs),
(140,729,o),
(37,629,o),
(37,438,cs),
(37,0,l)
);
}
);
};
layerId = "4DD67900-F9B0-4F36-BC45-F4B21129580C";
shapes = (
{
closed = 1;
nodes = (
(220,0,l),
(220,434,ls),
(220,526,o),
(247,561,o),
(306,561,cs),
(362,561,o),
(392,523,o),
(392,434,cs),
(392,0,l),
(575,0,l),
(575,438,ls),
(575,629,o),
(480,729,o),
(305,729,cs),
(140,729,o),
(37,629,o),
(37,438,cs),
(37,0,l)
);
}
);
width = 612;
}
);
metricLeft = "te-canadian";
metricRight = "te-canadian";
note = uni144E;
unicode = 5198;
},
{
color = 4;
glyphname = "to-canadian";
lastChange = "2022-07-04 16:28:58 +0000";
layers = (
{
anchors = (
{
name = middle_center_can;
pos = (317,357);
},
{
name = middle_right_can;
pos = (797,357);
},
{
name = top_center_can;
pos = (300,714);
},
{
name = top_left_can;
pos = (88,714);
},
{
name = top_right_can;
pos = (571,714);
}
);
background = {
shapes = (
{
closed = 1;
nodes = (
(1076,0,o),
(1194,118,o),
(1194,358,cs),
(1194,598,o),
(1077,714,o),
(814,714,cs),
(675,714,l),
(675,689,l),
(804,689,ls),
(979,689,o),
(1083,641,o),
(1131,542,cs),
(1155,493,o),
(1167,431,o),
(1167,357,cs),
(1167,209,o),
(1122,110,o),
(1015,62,cs),
(962,37,o),
(891,25,o),
(804,25,cs),
(675,25,l),
(675,0,l),
(814,0,l),
(814,0,l)
);
},
{
closed = 1;
nodes = (
(584,576,o),
(457,714,o),
(243,714,cs),
(75,714,l),
(75,689,l),
(247,689,ls),
(445,689,o),
(558,564,o),
(558,358,cs),
(558,154,o),
(445,25,o),
(248,25,cs),
(75,25,l),
(75,0,l),
(249,0,ls),
(457,0,o),
(584,142,o),
(584,357,cs)
);
}
);
};
layerId = m01;
shapes = (
{
closed = 1;
nodes = (
(246,0,ls),
(456,0,o),
(584,140,o),
(584,358,cs),
(584,576,o),
(456,714,o),
(240,714,cs),
(75,714,l),
(75,689,l),
(244,689,ls),
(444,689,o),
(558,564,o),
(558,358,cs),
(558,152,o),
(444,25,o),
(245,25,cs),
(75,25,l),
(75,0,l)
);
}
);
width = 664;
},
{
anchors = (
{
name = middle_center_can;
pos = (248,357);
},
{
name = middle_right_can;
pos = (803,357);
},
{
name = top_center_can;
pos = (314,714);
},
{
name = top_left_can;
pos = (127,714);
},
{
name = top_right_can;
pos = (560,714);
}
);
background = {
anchors = (
{
name = middle_center_can;
pos = (248,357);
},
{
name = middle_left_can;
pos = (-16,357);
},
{
name = middle_right_can;
pos = (803,357);
},
{
name = top_center_can;
pos = (314,714);
},
{
name = top_left_can;
pos = (127,714);
},
{
name = top_right_can;
pos = (560,714);
}
);
shapes = (
{
closed = 1;
nodes = (
(643,581,o),
(506,714,o),
(268,714,cs),
(44,714,l),
(44,547,l),
(255,547,ls),
(380,547,o),
(452,481,o),
(452,358,cs),
(452,235,o),
(380,167,o),
(255,167,cs),
(44,167,l),
(44,0,l),
(268,0,ls),
(506,0,o),
(643,135,o),
(643,358,cs)
);
}
);
};
layerId = "A1461942-0433-4891-A171-8512F51D8C86";
shapes = (
{
closed = 1;
nodes = (
(268,0,ls),
(506,0,o),
(643,135,o),
(643,358,cs),
(643,581,o),
(506,714,o),
(268,714,cs),
(44,714,l),
(44,543,l),
(253,543,ls),
(378,543,o),
(450,481,o),
(450,358,cs),
(450,235,o),
(378,171,o),
(253,171,cs),
(44,171,l),
(44,0,l)
);
}
);
width = 682;
},
{
anchors = (
{
name = middle_center_can;
pos = (209,357);
},
{
name = middle_right_can;
pos = (493,357);
},
{
name = top_center_can;
pos = (201,714);
},
{
name = top_left_can;
pos = (53,714);
},
{
name = top_right_can;
pos = (389,714);
}
);
background = {
anchors = (
{
name = middle_center_can;
pos = (209,357);
},
{
name = middle_left_can;
pos = (19,357);
},
{
name = middle_right_can;
pos = (493,357);
},
{
name = top_center_can;
pos = (201,714);
},
{
name = top_left_can;
pos = (53,714);
},
{
name = top_right_can;
pos = (389,714);
}
);
shapes = (
{
closed = 1;
nodes = (
(401,576,o),
(311,714,o),
(159,714,cs),
(41,714,l),
(41,690,l),
(161,690,ls),
(298,690,o),
(376,564,o),
(376,358,cs),
(376,152,o),
(298,24,o),
(162,24,cs),
(41,24,l),
(41,0,l),
(163,0,ls),
(311,0,o),
(401,140,o),
(401,358,cs)
);
}
);
};
layerId = "341CD669-D84F-4333-8BC8-F9777E6D3814";
shapes = (
{
closed = 1;
nodes = (
(129,0,ls),
(321,0,o),
(401,130,o),
(401,358,cs),
(401,586,o),
(321,714,o),
(123,714,cs),
(41,714,l),
(41,690,l),
(123,690,ls),
(308,690,o),
(376,574,o),
(376,358,cs),
(376,144,o),
(308,24,o),
(129,24,cs),
(41,24,l),
(41,0,l)
);
}
);
width = 439;
},
{
anchors = (
{
name = middle_center_can;
pos = (164,357);
},
{
name = middle_right_can;
pos = (605,357);
},
{
name = top_center_can;
pos = (233,714);
},
{
name = top_left_can;
pos = (105,714);
},
{
name = top_right_can;
pos = (404,714);
}
);
background = {
anchors = (
{
name = middle_center_can;
pos = (164,357);
},
{
name = middle_left_can;
pos = (-4,357);
},
{
name = middle_right_can;
pos = (605,357);
},
{
name = top_center_can;
pos = (233,714);
},
{
name = top_left_can;
pos = (105,714);
},
{
name = top_right_can;
pos = (404,714);
}
);
shapes = (
{
closed = 1;
nodes = (
(482,603,o),
(346,714,o),
(124,714,cs),
(27,714,l),
(27,554,l),
(127,554,ls),
(238,554,o),
(301,506,o),
(301,358,cs),
(301,210,o),
(238,160,o),
(127,160,cs),
(27,160,l),
(27,0,l),
(124,0,ls),
(346,0,o),
(482,113,o),
(482,358,cs)
);
}
);
};
layerId = "4DD67900-F9B0-4F36-BC45-F4B21129580C";
shapes = (
{
closed = 1;
nodes = (
(124,0,ls),
(346,0,o),
(482,113,o),
(482,358,cs),
(482,603,o),
(346,714,o),
(124,714,cs),
(27,714,l),
(27,547,l),
(127,547,ls),
(228,547,o),
(299,501,o),
(299,358,cs),
(299,215,o),
(228,167,o),
(127,167,cs),
(27,167,l),
(27,0,l)
);
}
);
width = 506;
}
);
note = uni1450;
unicode = 5200;
},
{
color = 4;
glyphname = "ta-canadian";
lastChange = "2022-07-04 21:50:21 +0000";
layers = (
{
anchors = (
{
name = middle_center_can;
pos = (348,357);
},
{
name = top_center_can;
pos = (364,714);
},
{
name = top_left_can;
pos = (93,714);
},
{
name = top_right_can;
pos = (576,714);
}
);
background = {
shapes = (
{
closed = 1;
nodes = (
(599,25,l),
(470,25,ls),
(295,25,o),
(191,73,o),
(143,172,cs),
(119,221,o),
(107,283,o),
(107,357,cs),
(107,505,o),
(152,604,o),
(259,653,cs),
(312,677,o),
(383,689,o),
(470,689,cs),
(599,689,l),
(599,714,l),
(460,714,ls),
(197,714,o),
(80,598,o),
(80,358,cs),
(80,118,o),
(198,0,o),
(460,0,cs),
(599,0,l),
(599,0,l)
);
}
);
};
layerId = m01;
shapes = (
{
closed = 1;
nodes = (
(589,0,l),
(589,25,l),
(419,25,ls),
(220,25,o),
(106,152,o),
(106,358,cs),
(106,564,o),
(220,689,o),
(420,689,cs),
(589,689,l),
(589,714,l),
(424,714,ls),
(208,714,o),
(80,576,o),
(80,358,cs),
(80,140,o),
(208,0,o),
(418,0,cs)
);
}
);
width = 664;
},
{
anchors = (
{
name = middle_center_can;
pos = (434,357);
},
{
name = top_center_can;
pos = (369,714);
},
{
name = top_left_can;
pos = (122,714);
},
{
name = top_right_can;
pos = (555,714);
}
);
background = {
anchors = (
{
name = middle_center_can;
pos = (434,357);
},
{
name = middle_left_can;
pos = (-121,357);
},
{
name = middle_right_can;
pos = (698,357);
},
{
name = top_center_can;
pos = (369,714);
},
{
name = top_left_can;
pos = (122,714);
},
{
name = top_right_can;
pos = (555,714);
}
);
shapes = (
{
closed = 1;
nodes = (
(638,0,l),
(638,167,l),
(427,167,ls),
(302,167,o),
(230,233,o),
(230,356,cs),
(230,479,o),
(302,547,o),
(427,547,cs),
(638,547,l),
(638,714,l),
(414,714,ls),
(176,714,o),
(39,579,o),
(39,356,cs),
(39,133,o),
(176,0,o),
(414,0,cs)
);
}
);
};
layerId = "A1461942-0433-4891-A171-8512F51D8C86";
shapes = (
{
closed = 1;
nodes = (
(638,0,l),
(638,171,l),
(429,171,ls),
(304,171,o),
(232,235,o),
(232,358,cs),
(232,481,o),
(304,543,o),
(429,543,cs),
(638,543,l),
(638,714,l),
(414,714,ls),
(176,714,o),
(39,581,o),
(39,358,cs),
(39,135,o),
(176,0,o),
(414,0,cs)
);
}
);
width = 682;
},
{
anchors = (
{
name = middle_center_can;
pos = (231,357);
},
{
name = top_center_can;
pos = (239,714);
},
{
name = top_left_can;
pos = (50,714);
},
{
name = top_right_can;
pos = (386,714);
}
);
background = {
anchors = (
{
name = middle_center_can;
pos = (231,357);
},
{
name = middle_left_can;
pos = (-54,357);
},
{
name = middle_right_can;
pos = (420,357);
},
{
name = top_center_can;
pos = (239,714);
},
{
name = top_left_can;
pos = (50,714);
},
{
name = top_right_can;
pos = (386,714);
}
);
shapes = (
{
closed = 1;
nodes = (
(398,0,l),
(398,24,l),
(278,24,ls),
(141,24,o),
(63,152,o),
(63,358,cs),
(63,564,o),
(141,690,o),
(278,690,cs),
(398,690,l),
(398,714,l),
(280,714,ls),
(128,714,o),
(38,575,o),
(38,358,cs),
(38,141,o),
(128,0,o),
(276,0,cs)
);
}
);
};
layerId = "341CD669-D84F-4333-8BC8-F9777E6D3814";
shapes = (
{
closed = 1;
nodes = (
(398,0,l),
(398,24,l),
(316,24,ls),
(131,24,o),
(63,140,o),
(63,356,cs),
(63,570,o),
(131,690,o),
(310,690,cs),
(398,690,l),
(398,714,l),
(310,714,ls),
(118,714,o),
(38,584,o),
(38,356,cs),
(38,128,o),
(118,0,o),
(316,0,cs)
);
}
);
width = 439;
},
{
anchors = (
{
name = middle_center_can;
pos = (342,357);
},
{
name = top_center_can;
pos = (274,714);
},
{
name = top_left_can;
pos = (102,714);
},
{
name = top_right_can;
pos = (401,714);
}
);
background = {
anchors = (
{
name = middle_center_can;
pos = (342,357);
},
{
name = middle_left_can;
pos = (-99,357);
},
{
name = middle_right_can;
pos = (510,357);
},
{
name = top_center_can;
pos = (274,714);
},
{
name = top_left_can;
pos = (102,714);
},
{
name = top_right_can;
pos = (401,714);
}
);
shapes = (
{
closed = 1;
nodes = (
(479,0,l),
(479,160,l),
(379,160,ls),
(268,160,o),
(205,208,o),
(205,356,cs),
(205,504,o),
(268,554,o),
(379,554,cs),
(479,554,l),
(479,714,l),
(382,714,ls),
(160,714,o),
(24,601,o),
(24,356,cs),
(24,111,o),
(160,0,o),
(382,0,cs)
);
}
);
};
layerId = "4DD67900-F9B0-4F36-BC45-F4B21129580C";
shapes = (
{
closed = 1;
nodes = (
(479,0,l),
(479,167,l),
(379,167,ls),
(278,167,o),
(208,213,o),
(208,356,cs),
(208,499,o),
(278,547,o),
(379,547,cs),
(479,547,l),
(479,714,l),
(382,714,ls),
(160,714,o),
(24,601,o),
(24,356,cs),
(24,111,o),
(160,0,o),
(382,0,cs)
);
}
);
width = 506;
}
);
metricLeft = "==|theCarrier-canadian";
metricRight = "==|to-canadian";
note = uni1455;
unicode = 5205;
},
{
color = 4;
glyphname = "t-canadian";
lastChange = "2022-07-04 10:45:59 +0000";
layers = (
{
background = {
shapes = (
{
closed = 1;
nodes = (
(166,364,o),
(110,419,o),
(110,528,cs),
(110,638,o),
(166,692,o),
(300,692,c),
(300,714,l),
(155,714,o),
(85,656,o),
(85,528,cs),
(85,400,o),
(155,342,o),
(300,342,c),
(300,364,l),
(300,364,l)
);
}
);
};
layerId = m01;
shapes = (
{
closed = 1;
nodes = (
(340,357,l),
(340,379,l),
(259,379,ls),
(160,379,o),
(108,436,o),
(108,535,cs),
(108,634,o),
(160,692,o),
(259,692,cs),
(340,692,l),
(340,714,l),
(256,714,ls),
(149,714,o),
(85,644,o),
(85,535,cs),
(85,426,o),
(149,357,o),
(259,357,cs)
);
}
);
width = 415;
},
{
background = {
shapes = (
{
closed = 1;
nodes = (
(339,357,l),
(339,460,l),
(235,460,ls),
(184,460,o),
(155,484,o),
(155,535,cs),
(155,585,o),
(184,611,o),
(235,611,cs),
(339,611,l),
(339,714,l),
(227,714,ls),
(108,714,o),
(39,646,o),
(39,535,cs),
(39,423,o),
(108,357,o),
(227,357,cs)
);
}
);
};
layerId = "A1461942-0433-4891-A171-8512F51D8C86";
shapes = (
{
closed = 1;
nodes = (
(339,357,l),
(339,469,l),
(244,469,ls),
(193,469,o),
(164,490,o),
(164,535,cs),
(164,579,o),
(193,602,o),
(244,602,cs),
(339,602,l),
(339,714,l),
(227,714,ls),
(108,714,o),
(39,646,o),
(39,535,cs),
(39,423,o),
(108,357,o),
(227,357,cs)
);
}
);
width = 373;
},
{
background = {
shapes = (
{
closed = 1;
nodes = (
(224,357,l),
(224,379,l),
(167,379,ls),
(99,379,o),
(64,437,o),
(64,535,cs),
(64,633,o),
(99,692,o),
(167,692,cs),
(224,692,l),
(224,714,l),
(164,714,ls),
(89,714,o),
(44,644,o),
(44,535,cs),
(44,426,o),
(89,357,o),
(166,357,cs)
);
}
);
};
layerId = "341CD669-D84F-4333-8BC8-F9777E6D3814";
shapes = (
{
closed = 1;
nodes = (
(224,357,l),
(224,379,l),
(203,379,ls),
(109,379,o),
(67,431,o),
(67,535,cs),
(67,637,o),
(109,692,o),
(203,692,cs),
(224,692,l),
(224,714,l),
(200,714,ls),
(96,714,o),
(44,649,o),
(44,535,cs),
(44,421,o),
(96,357,o),
(202,357,cs)
);
}
);
width = 261;
},
{
background = {
shapes = (
{
closed = 1;
nodes = (
(249,357,l),
(249,455,l),
(203,455,ls),
(156,455,o),
(129,479,o),
(129,535,cs),
(129,591,o),
(156,616,o),
(203,616,cs),
(249,616,l),
(249,714,l),
(195,714,ls),
(86,714,o),
(21,646,o),
(21,535,cs),
(21,424,o),
(86,357,o),
(195,357,cs)
);
}
);
};
layerId = "4DD67900-F9B0-4F36-BC45-F4B21129580C";
shapes = (
{
closed = 1;
nodes = (
(249,357,l),
(249,465,l),
(207,465,ls),
(164,465,o),
(139,489,o),
(139,535,cs),
(139,581,o),
(164,606,o),
(207,606,cs),
(249,606,l),
(249,714,l),
(195,714,ls),
(86,714,o),
(21,642,o),
(21,535,cs),
(21,428,o),
(86,357,o),
(195,357,cs)
);
}
);
width = 268;
}
);
note = uni1466;
unicode = 5222;
},
{
color = 4;
glyphname = "ke-canadian";
lastChange = "2022-07-04 21:50:21 +0000";
layers = (
{
anchors = (
{
name = middle_center_can;
pos = (355,457);
},
{
name = top_center_can;
pos = (323,714);
},
{
name = top_left_can;
pos = (103,714);
},
{
name = top_right_can;
pos = (543,714);
}
);
background = {
shapes = (
{
closed = 1;
nodes = (
(541,470,ls),
(541,633,o),
(458,726,o),
(318,726,cs),
(180,726,o),
(106,632,o),
(106,477,cs),
(106,311,o),
(191,213,o),
(329,213,cs),
(434,213,o),
(494,270,o),
(515,339,c),
(515,0,l),
(541,0,l),
(541,0,l)
);
},
{
closed = 1;
nodes = (
(207,238,o),
(133,323,o),
(133,476,cs),
(133,620,o),
(197,701,o),
(318,701,cs),
(444,701,o),
(515,618,o),
(515,470,cs),
(515,467,ls),
(515,317,o),
(444,238,o),
(328,238,cs)
);
},
{
closed = 1;
nodes = (
(-144,469,ls),
(-144,626,o),
(-235,726,o),
(-377,726,cs),
(-518,726,o),
(-610,626,o),
(-610,470,cs),
(-610,314,o),
(-518,214,o),
(-377,214,cs),
(-254,214,o),
(-178,293,o),
(-164,372,c),
(-170,384,l),
(-170,0,l),
(-144,0,l)
);
},
{
closed = 1;
nodes = (
(-501,239,o),
(-584,325,o),
(-584,470,cs),
(-584,615,o),
(-501,701,o),
(-377,701,cs),
(-253,701,o),
(-170,617,o),
(-170,471,cs),
(-170,325,o),
(-253,239,o),
(-377,239,cs)
);
}
);
};
layerId = m01;
shapes = (
{
closed = 1;
nodes = (
(556,0,l),
(556,469,ls),
(556,626,o),
(465,726,o),
(323,726,cs),
(182,726,o),
(90,625,o),
(90,472,cs),
(90,321,o),
(184,221,o),
(323,221,cs),
(433,221,o),
(516,286,o),
(536,377,c),
(530,384,l),
(530,0,l)
);
},
{
closed = 1;
nodes = (
(198,246,o),
(116,334,o),
(116,474,cs),
(116,612,o),
(196,701,o),
(323,701,cs),
(451,701,o),
(530,614,o),
(530,474,cs),
(530,335,o),
(450,246,o),
(323,246,cs)
);
}
);
width = 651;
},
{
anchors = (
{
name = middle_center_can;
pos = (325,457);
},
{
name = top_center_can;
pos = (325,714);
},
{
name = top_left_can;
pos = (134,714);
},
{
name = top_right_can;
pos = (515,714);
}
);
background = {
anchors = (
{
name = middle_center_can;
pos = (325,457);
},
{
name = middle_left_can;
pos = (-107,357);
},
{
name = middle_right_can;
pos = (771,357);
},
{
name = top_center_can;
pos = (325,714);
},
{
name = top_left_can;
pos = (134,714);
},
{
name = top_right_can;
pos = (516,714);
}
);
shapes = (
{
closed = 1;
nodes = (
(611,0,l),
(611,443,ls),
(611,618,o),
(503,729,o),
(329,729,cs),
(157,729,o),
(39,620,o),
(39,452,cs),
(39,292,o),
(147,185,o),
(297,185,cs),
(368,185,o),
(422,213,o),
(432,240,c),
(420,248,l),
(420,0,l)
);
},
{
closed = 1;
nodes = (
(268,347,o),
(228,387,o),
(228,457,cs),
(228,527,o),
(265,567,o),
(325,567,cs),
(385,567,o),
(422,527,o),
(422,457,cs),
(422,387,o),
(382,347,o),
(325,347,cs)
);
}
);
};
layerId = "A1461942-0433-4891-A171-8512F51D8C86";
shapes = (
{
closed = 1;
nodes = (
(611,0,l),
(611,443,ls),
(611,618,o),
(503,729,o),
(329,729,cs),
(157,729,o),
(39,620,o),
(39,452,cs),
(39,292,o),
(147,185,o),
(297,185,cs),
(368,185,o),
(422,213,o),
(432,240,c),
(418,248,l),
(418,0,l)
);
},
{
closed = 1;
nodes = (
(268,347,o),
(228,387,o),
(228,457,cs),
(228,527,o),
(265,567,o),
(325,567,cs),
(385,567,o),
(422,527,o),
(422,457,cs),
(422,387,o),
(382,347,o),
(325,347,cs)
);
}
);
width = 669;
},
{
anchors = (
{
name = middle_center_can;
pos = (226,457);
},
{
name = top_center_can;
pos = (204,714);
},
{
name = top_left_can;
pos = (52,714);
},
{
name = top_right_can;
pos = (357,714);
}
);
background = {
anchors = (
{
name = middle_center_can;
pos = (226,457);
},
{
name = middle_left_can;
pos = (-46,357);
},
{
name = middle_right_can;
pos = (462,357);
},
{
name = top_center_can;
pos = (204,714);
},
{
name = top_left_can;
pos = (52,714);
},
{
name = top_right_can;
pos = (357,714);
}
);
shapes = (
{
closed = 1;
nodes = (
(370,469,ls),
(370,626,o),
(305,726,o),
(205,726,cs),
(105,726,o),
(39,625,o),
(39,472,cs),
(39,321,o),
(106,221,o),
(203,221,cs),
(277,221,o),
(335,284,o),
(349,378,c),
(345,385,l),
(345,0,l),
(370,0,l)
);
},
{
closed = 1;
nodes = (
(120,245,o),
(64,334,o),
(64,474,cs),
(64,612,o),
(118,702,o),
(204,702,cs),
(291,702,o),
(345,615,o),
(345,474,cs),
(345,336,o),
(291,245,o),
(204,245,cs)
);
}
);
};
layerId = "341CD669-D84F-4333-8BC8-F9777E6D3814";
shapes = (
{
closed = 1;
nodes = (
(370,0,l),
(370,469,ls),
(370,638,o),
(312,726,o),
(205,726,cs),
(99,726,o),
(39,638,o),
(39,472,cs),
(39,310,o),
(100,221,o),
(205,221,cs),
(281,221,o),
(336,275,o),
(349,356,c),
(345,385,l),
(345,0,l)
);
},
{
closed = 1;
nodes = (
(112,245,o),
(64,323,o),
(64,474,cs),
(64,625,o),
(112,702,o),
(205,702,cs),
(298,702,o),
(345,626,o),
(345,474,cs),
(345,323,o),
(297,245,o),
(205,245,cs)
);
}
);
width = 422;
},
{
anchors = (
{
name = middle_center_can;
pos = (244,457);
},
{
name = top_center_can;
pos = (245,714);
},
{
name = top_left_can;
pos = (112,714);
},
{
name = top_right_can;
pos = (376,714);
}
);
background = {
anchors = (
{
name = middle_center_can;
pos = (244,457);
},
{
name = middle_left_can;
pos = (-89,357);
},
{
name = middle_right_can;
pos = (589,357);
},
{
name = top_center_can;
pos = (245,714);
},
{
name = top_left_can;
pos = (112,714);
},
{
name = top_right_can;
pos = (377,714);
}
);
shapes = (
{
closed = 1;
nodes = (
(466,0,l),
(466,454,ls),
(466,629,o),
(392,729,o),
(250,729,cs),
(108,729,o),
(22,623,o),
(22,452,cs),
(22,293,o),
(101,185,o),
(217,185,cs),
(260,185,o),
(291,210,o),
(299,230,c),
(285,254,l),
(285,0,l)
);
},
{
closed = 1;
nodes = (
(221,339,o),
(201,367,o),
(201,457,cs),
(201,547,o),
(218,575,o),
(244,575,cs),
(269,575,o),
(287,548,o),
(287,457,cs),
(287,366,o),
(266,339,o),
(244,339,cs)
);
}
);
};
layerId = "4DD67900-F9B0-4F36-BC45-F4B21129580C";
shapes = (
{
closed = 1;
nodes = (
(466,0,l),
(466,454,ls),
(466,629,o),
(392,729,o),
(250,729,cs),
(108,729,o),
(22,623,o),
(22,452,cs),
(22,293,o),
(101,185,o),
(217,185,cs),
(260,185,o),
(291,210,o),
(299,230,c),
(283,254,l),
(283,0,l)
);
},
{
closed = 1;
nodes = (
(221,339,o),
(201,367,o),
(201,457,cs),
(201,547,o),
(218,575,o),
(244,575,cs),
(269,575,o),
(287,548,o),
(287,457,cs),
(287,366,o),
(266,339,o),
(244,339,cs)
);
}
);
width = 503;
}
);
metricRight = "te-canadian";
note = uni146B;
unicode = 5227;
},
{
color = 4;
glyphname = "ki-canadian";
lastChange = "2022-07-04 21:50:21 +0000";
layers = (
{
anchors = (
{
name = middle_center_can;
pos = (360,457);
},
{
name = top_center_can;
pos = (328,714);
},
{
name = top_left_can;
pos = (108,714);
},
{
name = top_right_can;
pos = (548,714);
}
);
background = {
shapes = (
{
closed = 1;
nodes = (
(821,339,l),
(844,270,o),
(902,213,o),
(1007,213,cs),
(1147,213,o),
(1230,313,o),
(1230,477,cs),
(1230,632,o),
(1156,726,o),
(1018,726,cs),
(878,726,o),
(795,633,o),
(795,470,cs),
(795,0,l),
(821,0,l),
(821,0,l)
);
},
{
closed = 1;
nodes = (
(892,238,o),
(821,317,o),
(821,467,cs),
(821,470,ls),
(821,614,o),
(892,701,o),
(1018,701,cs),
(1139,701,o),
(1203,620,o),
(1203,476,cs),
(1203,323,o),
(1131,238,o),
(1008,238,cs)
);
},
{
closed = 1;
nodes = (
(121,0,l),
(121,384,l),
(115,372,l),
(135,280,o),
(218,214,o),
(328,214,cs),
(469,214,o),
(561,315,o),
(561,470,cs),
(561,625,o),
(469,726,o),
(328,726,cs),
(186,726,o),
(95,626,o),
(95,469,cs),
(95,0,l)
);
},
{
closed = 1;
nodes = (
(201,239,o),
(121,329,o),
(121,471,cs),
(121,613,o),
(200,701,o),
(328,701,cs),
(455,701,o),
(535,612,o),
(535,470,cs),
(535,328,o),
(455,239,o),
(328,239,cs)
);
}
);
};
layerId = m01;
shapes = (
{
closed = 1;
nodes = (
(121,0,l),
(121,384,l),
(115,377,l),
(136,286,o),
(218,221,o),
(328,221,cs),
(467,221,o),
(561,321,o),
(561,474,cs),
(561,625,o),
(469,726,o),
(328,726,cs),
(186,726,o),
(95,626,o),
(95,469,cs),
(95,0,l)
);
},
{
closed = 1;
nodes = (
(201,246,o),
(121,335,o),
(121,474,cs),
(121,614,o),
(200,701,o),
(328,701,cs),
(455,701,o),
(535,612,o),
(535,474,cs),
(535,334,o),
(453,246,o),
(328,246,cs)
);
}
);
width = 651;
},
{
anchors = (
{
name = middle_center_can;
pos = (344,457);
},
{
name = top_center_can;
pos = (344,714);
},
{
name = top_left_can;
pos = (154,714);
},
{
name = top_right_can;
pos = (536,714);
}
);
background = {
anchors = (
{
name = middle_center_can;
pos = (344,457);
},
{
name = middle_left_can;
pos = (-102,357);
},
{
name = middle_right_can;
pos = (776,357);
},
{
name = top_center_can;
pos = (344,714);
},
{
name = top_left_can;
pos = (154,714);
},
{
name = top_right_can;
pos = (536,714);
}
);
shapes = (
{
closed = 1;
nodes = (
(249,0,l),
(249,248,l),
(237,240,l),
(247,213,o),
(301,185,o),
(372,185,cs),
(522,185,o),
(630,294,o),
(630,458,cs),
(630,624,o),
(514,729,o),
(348,729,cs),
(174,729,o),
(58,618,o),
(58,443,cs),
(58,0,l)
);
},
{
closed = 1;
nodes = (
(287,347,o),
(247,387,o),
(247,457,cs),
(247,527,o),
(284,567,o),
(344,567,cs),
(404,567,o),
(441,527,o),
(441,457,cs),
(441,387,o),
(401,347,o),
(344,347,cs)
);
}
);
};
layerId = "A1461942-0433-4891-A171-8512F51D8C86";
shapes = (
{
closed = 1;
nodes = (
(251,0,l),
(251,248,l),
(237,240,l),
(247,213,o),
(301,185,o),
(372,185,cs),
(522,185,o),
(630,294,o),
(630,458,cs),
(630,624,o),
(514,729,o),
(348,729,cs),
(174,729,o),
(58,618,o),
(58,443,cs),
(58,0,l)
);
},
{
closed = 1;
nodes = (
(287,347,o),
(247,387,o),
(247,457,cs),
(247,527,o),
(284,567,o),
(344,567,cs),
(404,567,o),
(441,527,o),
(441,457,cs),
(441,387,o),
(401,347,o),
(344,347,cs)
);
}
);
width = 669;
},
{
anchors = (
{
name = middle_center_can;
pos = (239,457);
},
{
name = top_center_can;
pos = (217,714);
},
{
name = top_left_can;
pos = (65,714);
},
{
name = top_right_can;
pos = (370,714);
}
);
background = {
anchors = (
{
name = middle_center_can;
pos = (239,457);
},
{
name = middle_left_can;
pos = (-40,357);
},
{
name = middle_right_can;
pos = (468,357);
},
{
name = top_center_can;
pos = (217,714);
},
{
name = top_left_can;
pos = (65,714);
},
{
name = top_right_can;
pos = (370,714);
}
);
shapes = (
{
closed = 1;
nodes = (
(77,0,l),
(77,385,l),
(73,378,l),
(87,286,o),
(144,221,o),
(219,221,cs),
(316,221,o),
(383,321,o),
(383,474,cs),
(383,625,o),
(317,726,o),
(218,726,cs),
(117,726,o),
(52,626,o),
(52,469,cs),
(52,0,l)
);
},
{
closed = 1;
nodes = (
(131,245,o),
(77,336,o),
(77,474,cs),
(77,615,o),
(131,702,o),
(217,702,cs),
(304,702,o),
(358,612,o),
(358,474,cs),
(358,334,o),
(302,245,o),
(217,245,cs)
);
}
);
};
layerId = "341CD669-D84F-4333-8BC8-F9777E6D3814";
shapes = (
{
closed = 1;
nodes = (
(77,0,l),
(77,385,l),
(73,356,l),
(86,275,o),
(141,221,o),
(217,221,cs),
(322,221,o),
(383,310,o),
(383,472,cs),
(383,638,o),
(323,726,o),
(217,726,cs),
(110,726,o),
(52,638,o),
(52,469,cs),
(52,0,l)
);
},
{
closed = 1;
nodes = (
(125,245,o),
(77,323,o),
(77,474,cs),
(77,626,o),
(124,702,o),
(217,702,cs),
(310,702,o),
(358,625,o),
(358,474,cs),
(358,323,o),
(310,245,o),
(217,245,cs)
);
}
);
width = 422;
},
{
anchors = (
{
name = middle_center_can;
pos = (259,457);
},
{
name = top_center_can;
pos = (259,714);
},
{
name = top_left_can;
pos = (128,714);
},
{
name = top_right_can;
pos = (392,714);
}
);
background = {
anchors = (
{
name = middle_center_can;
pos = (259,457);
},
{
name = middle_left_can;
pos = (-86,357);
},
{
name = middle_right_can;
pos = (592,357);
},
{
name = top_center_can;
pos = (259,714);
},
{
name = top_left_can;
pos = (127,714);
},
{
name = top_right_can;
pos = (392,714);
}
);
shapes = (
{
closed = 1;
nodes = (
(218,0,l),
(218,254,l),
(204,230,l),
(212,210,o),
(243,185,o),
(286,185,cs),
(402,185,o),
(481,293,o),
(481,452,cs),
(481,623,o),
(395,729,o),
(258,729,cs),
(111,729,o),
(37,619,o),
(37,454,cs),
(37,0,l)
);
},
{
closed = 1;
nodes = (
(237,339,o),
(216,366,o),
(216,457,cs),
(216,548,o),
(234,575,o),
(259,575,cs),
(285,575,o),
(302,547,o),
(302,457,cs),
(302,367,o),
(282,339,o),
(259,339,cs)
);
}
);
};
layerId = "4DD67900-F9B0-4F36-BC45-F4B21129580C";
shapes = (
{
closed = 1;
nodes = (
(220,0,l),
(220,254,l),
(204,230,l),
(212,210,o),
(243,185,o),
(286,185,cs),
(402,185,o),
(481,293,o),
(481,452,cs),
(481,623,o),
(395,729,o),
(258,729,cs),
(111,729,o),
(37,619,o),
(37,454,cs),
(37,0,l)
);
},
{
closed = 1;
nodes = (
(237,339,o),
(216,366,o),
(216,457,cs),
(216,548,o),
(234,575,o),
(259,575,cs),
(285,575,o),
(302,547,o),
(302,457,cs),
(302,367,o),
(282,339,o),
(259,339,cs)
);
}
);
width = 503;
}
);
metricLeft = "te-canadian";
metricRight = "==|ke-canadian";
note = uni146D;
unicode = 5229;
},
{
color = 4;
glyphname = "ko-canadian";
lastChange = "2022-07-04 21:50:21 +0000";
layers = (
{
anchors = (
{
name = middle_center_can;
pos = (355,457);
},
{
name = top_center_can;
pos = (323,714);
},
{
name = top_left_can;
pos = (103,714);
},
{
name = top_right_can;
pos = (543,714);
}
);
background = {
shapes = (
{
closed = 1;
nodes = (
(1142,-12,o),
(1225,81,o),
(1225,244,cs),
(1225,714,l),
(1199,714,l),
(1199,375,l),
(1178,446,o),
(1118,501,o),
(1013,501,cs),
(875,501,o),
(790,403,o),
(790,237,cs),
(790,82,o),
(864,-12,o),
(1002,-12,cs)
);
},
{
closed = 1;
nodes = (
(881,13,o),
(817,94,o),
(817,238,cs),
(817,391,o),
(891,476,o),
(1012,476,cs),
(1128,476,o),
(1199,397,o),
(1199,247,cs),
(1199,244,ls),
(1199,96,o),
(1128,13,o),
(1002,13,cs)
);
},
{
closed = 1;
nodes = (
(530,714,l),
(530,330,l),
(536,342,l),
(516,434,o),
(433,500,o),
(323,500,cs),
(184,500,o),
(90,399,o),
(90,246,cs),
(90,90,o),
(182,-12,o),
(323,-12,cs),
(465,-12,o),
(556,88,o),
(556,245,cs),
(556,714,l)
);
},
{
closed = 1;
nodes = (
(450,475,o),
(530,385,o),
(530,243,cs),
(530,101,o),
(451,13,o),
(323,13,cs),
(196,13,o),
(116,103,o),
(116,244,cs),
(116,386,o),
(198,475,o),
(323,475,cs)
);
}
);
};
layerId = m01;
shapes = (
{
closed = 1;
nodes = (
(465,-12,o),
(556,88,o),
(556,245,cs),
(556,714,l),
(530,714,l),
(530,330,l),
(536,337,l),
(516,428,o),
(433,493,o),
(323,493,cs),
(184,493,o),
(90,391,o),
(90,240,cs),
(90,88,o),
(182,-12,o),
(323,-12,cs)
);
},
{
closed = 1;
nodes = (
(196,13,o),
(116,102,o),
(116,241,cs),
(116,380,o),
(198,468,o),
(323,468,cs),
(450,468,o),
(530,379,o),
(530,240,cs),
(530,100,o),
(451,13,o),
(323,13,cs)
);
}
);
width = 651;
},
{
anchors = (
{
name = middle_center_can;
pos = (325,254);
},
{
name = top_center_can;
pos = (325,714);
},
{
name = top_left_can;
pos = (134,714);
},
{
name = top_right_can;
pos = (515,714);
}
);
background = {
anchors = (
{
name = middle_center_can;
pos = (325,254);
},
{
name = middle_left_can;
pos = (-107,357);
},
{
name = middle_right_can;
pos = (771,357);
},
{
name = top_center_can;
pos = (325,714);
},
{
name = top_left_can;
pos = (134,714);
},
{
name = top_right_can;
pos = (516,714);
}
);
shapes = (
{
closed = 1;
nodes = (
(502,-15,o),
(611,96,o),
(611,271,cs),
(611,714,l),
(420,714,l),
(420,466,l),
(432,474,l),
(422,501,o),
(368,529,o),
(300,529,cs),
(147,529,o),
(39,417,o),
(39,254,cs),
(39,89,o),
(150,-15,o),
(323,-15,cs)
);
},
{
closed = 1;
nodes = (
(265,147,o),
(228,187,o),
(228,257,cs),
(228,327,o),
(268,367,o),
(325,367,cs),
(382,367,o),
(422,327,o),
(422,257,cs),
(422,187,o),
(385,147,o),
(325,147,cs)
);
}
);
};
layerId = "A1461942-0433-4891-A171-8512F51D8C86";
shapes = (
{
closed = 1;
nodes = (
(502,-15,o),
(611,96,o),
(611,271,cs),
(611,714,l),
(418,714,l),
(418,466,l),
(432,474,l),
(422,501,o),
(368,529,o),
(300,529,cs),
(147,529,o),
(39,417,o),
(39,254,cs),
(39,89,o),
(150,-15,o),
(323,-15,cs)
);
},
{
closed = 1;
nodes = (
(265,147,o),
(228,187,o),
(228,257,cs),
(228,327,o),
(268,367,o),
(325,367,cs),
(382,367,o),
(422,327,o),
(422,257,cs),
(422,187,o),
(385,147,o),
(325,147,cs)
);
}
);
width = 669;
},
{
anchors = (
{
name = middle_center_can;
pos = (226,458);
},
{
name = top_center_can;
pos = (204,714);
},
{
name = top_left_can;
pos = (52,714);
},
{
name = top_right_can;
pos = (357,714);
}
);
background = {
anchors = (
{
name = middle_center_can;
pos = (226,458);
},
{
name = middle_left_can;
pos = (-46,357);
},
{
name = middle_right_can;
pos = (462,357);
},
{
name = top_center_can;
pos = (204,714);
},
{
name = top_left_can;
pos = (52,714);
},
{
name = top_right_can;
pos = (357,714);
}
);
shapes = (
{
closed = 1;
nodes = (
(345,714,l),
(345,329,l),
(349,336,l),
(335,430,o),
(277,493,o),
(203,493,cs),
(106,493,o),
(39,391,o),
(39,240,cs),
(39,89,o),
(104,-12,o),
(204,-12,cs),
(305,-12,o),
(370,88,o),
(370,245,cs),
(370,714,l)
);
},
{
closed = 1;
nodes = (
(291,469,o),
(345,378,o),
(345,240,cs),
(345,99,o),
(291,12,o),
(204,12,cs),
(118,12,o),
(64,102,o),
(64,241,cs),
(64,380,o),
(120,469,o),
(204,469,cs)
);
}
);
};
layerId = "341CD669-D84F-4333-8BC8-F9777E6D3814";
shapes = (
{
closed = 1;
nodes = (
(312,-12,o),
(370,76,o),
(370,245,cs),
(370,714,l),
(345,714,l),
(345,329,l),
(349,358,l),
(336,439,o),
(281,493,o),
(205,493,cs),
(100,493,o),
(39,404,o),
(39,242,cs),
(39,76,o),
(99,-12,o),
(205,-12,cs)
);
},
{
closed = 1;
nodes = (
(112,12,o),
(64,89,o),
(64,240,cs),
(64,391,o),
(112,469,o),
(205,469,cs),
(297,469,o),
(345,391,o),
(345,240,cs),
(345,88,o),
(298,12,o),
(205,12,cs)
);
}
);
width = 422;
},
{
anchors = (
{
name = middle_center_can;
pos = (244,266);
},
{
name = top_center_can;
pos = (245,714);
},
{
name = top_left_can;
pos = (112,714);
},
{
name = top_right_can;
pos = (376,714);
}
);
background = {
anchors = (
{
name = middle_center_can;
pos = (244,266);
},
{
name = middle_left_can;
pos = (-89,357);
},
{
name = middle_right_can;
pos = (589,357);
},
{
name = top_center_can;
pos = (245,714);
},
{
name = top_left_can;
pos = (112,714);
},
{
name = top_right_can;
pos = (377,714);
}
);
shapes = (
{
closed = 1;
nodes = (
(389,-15,o),
(466,85,o),
(466,260,cs),
(466,714,l),
(285,714,l),
(285,460,l),
(299,484,l),
(291,504,o),
(260,529,o),
(217,529,cs),
(101,529,o),
(22,421,o),
(22,252,cs),
(22,91,o),
(103,-15,o),
(248,-15,cs)
);
},
{
closed = 1;
nodes = (
(218,139,o),
(201,167,o),
(201,257,cs),
(201,347,o),
(221,375,o),
(244,375,cs),
(266,375,o),
(287,348,o),
(287,257,cs),
(287,166,o),
(269,139,o),
(244,139,cs)
);
}
);
};
layerId = "4DD67900-F9B0-4F36-BC45-F4B21129580C";
shapes = (
{
closed = 1;
nodes = (
(389,-15,o),
(466,85,o),
(466,260,cs),
(466,714,l),
(283,714,l),
(283,460,l),
(299,484,l),
(291,504,o),
(260,529,o),
(217,529,cs),
(101,529,o),
(22,421,o),
(22,252,cs),
(22,91,o),
(103,-15,o),
(248,-15,cs)
);
},
{
closed = 1;
nodes = (
(218,139,o),
(201,167,o),
(201,257,cs),
(201,347,o),
(221,375,o),
(244,375,cs),
(266,375,o),
(287,348,o),
(287,257,cs),
(287,166,o),
(269,139,o),
(244,139,cs)
);
}
);
width = 503;
}
);
metricLeft = "ke-canadian";
metricRight = "te-canadian";
note = uni146F;
unicode = 5231;
},
{
color = 4;
glyphname = "ka-canadian";
lastChange = "2022-07-04 21:50:21 +0000";
layers = (
{
anchors = (
{
name = middle_center_can;
pos = (360,457);
},
{
name = top_center_can;
pos = (328,714);
},
{
name = top_left_can;
pos = (108,714);
},
{
name = top_right_can;
pos = (548,714);
}
);
background = {
shapes = (
{
closed = 1;
nodes = (
(1156,-12,o),
(1230,82,o),
(1230,237,cs),
(1230,401,o),
(1147,501,o),
(1007,501,cs),
(902,501,o),
(844,446,o),
(821,375,c),
(821,714,l),
(795,714,l),
(795,244,ls),
(795,81,o),
(878,-12,o),
(1018,-12,cs)
);
},
{
closed = 1;
nodes = (
(892,13,o),
(821,100,o),
(821,244,cs),
(821,247,ls),
(821,397,o),
(892,476,o),
(1008,476,cs),
(1131,476,o),
(1203,391,o),
(1203,238,cs),
(1203,94,o),
(1139,13,o),
(1018,13,cs)
);
},
{
closed = 1;
nodes = (
(469,-12,o),
(561,90,o),
(561,244,cs),
(561,399,o),
(467,500,o),
(328,500,cs),
(218,500,o),
(135,434,o),
(115,342,c),
(121,330,l),
(121,714,l),
(95,714,l),
(95,245,ls),
(95,88,o),
(185,-12,o),
(327,-12,cs)
);
},
{
closed = 1;
nodes = (
(200,13,o),
(121,101,o),
(121,243,cs),
(121,385,o),
(201,475,o),
(328,475,cs),
(453,475,o),
(535,386,o),
(535,244,cs),
(535,103,o),
(455,13,o),
(328,13,cs)
);
}
);
};
layerId = m01;
shapes = (
{
closed = 1;
nodes = (
(469,-12,o),
(561,89,o),
(561,241,cs),
(561,393,o),
(467,493,o),
(328,493,cs),
(218,493,o),
(135,428,o),
(115,337,c),
(121,330,l),
(121,714,l),
(95,714,l),
(95,245,ls),
(95,88,o),
(185,-12,o),
(327,-12,cs)
);
},
{
closed = 1;
nodes = (
(200,13,o),
(121,100,o),
(121,240,cs),
(121,379,o),
(201,468,o),
(328,468,cs),
(453,468,o),
(535,380,o),
(535,241,cs),
(535,102,o),
(455,13,o),
(328,13,cs)
);
}
);
width = 651;
},
{
anchors = (
{
name = middle_center_can;
pos = (344,259);
},
{
name = top_center_can;
pos = (344,714);
},
{
name = top_left_can;
pos = (155,714);
},
{
name = top_right_can;
pos = (536,714);
}
);
background = {
anchors = (
{
name = middle_center_can;
pos = (344,259);
},
{
name = middle_left_can;
pos = (-102,357);
},
{
name = middle_right_can;
pos = (776,357);
},
{
name = top_center_can;
pos = (344,714);
},
{
name = top_left_can;
pos = (154,714);
},
{
name = top_right_can;
pos = (536,714);
}
);
shapes = (
{
closed = 1;
nodes = (
(511,-15,o),
(630,90,o),
(630,259,cs),
(630,420,o),
(522,529,o),
(379,529,cs),
(306,529,o),
(252,501,o),
(237,474,c),
(249,466,l),
(249,714,l),
(58,714,l),
(58,271,ls),
(58,96,o),
(166,-15,o),
(344,-15,cs)
);
},
{
closed = 1;
nodes = (
(284,147,o),
(247,187,o),
(247,257,cs),
(247,327,o),
(287,367,o),
(344,367,cs),
(401,367,o),
(441,327,o),
(441,257,cs),
(441,187,o),
(404,147,o),
(344,147,cs)
);
}
);
};
layerId = "A1461942-0433-4891-A171-8512F51D8C86";
shapes = (
{
closed = 1;
nodes = (
(511,-15,o),
(630,90,o),
(630,259,cs),
(630,420,o),
(522,529,o),
(379,529,cs),
(306,529,o),
(252,501,o),
(237,474,c),
(251,466,l),
(251,714,l),
(58,714,l),
(58,271,ls),
(58,96,o),
(166,-15,o),
(344,-15,cs)
);
},
{
closed = 1;
nodes = (
(284,147,o),
(247,187,o),
(247,257,cs),
(247,327,o),
(287,367,o),
(344,367,cs),
(401,367,o),
(441,327,o),
(441,257,cs),
(441,187,o),
(404,147,o),
(344,147,cs)
);
}
);
width = 669;
},
{
anchors = (
{
name = middle_center_can;
pos = (239,458);
},
{
name = top_center_can;
pos = (217,714);
},
{
name = top_left_can;
pos = (65,714);
},
{
name = top_right_can;
pos = (370,714);
}
);
background = {
anchors = (
{
name = middle_center_can;
pos = (239,458);
},
{
name = middle_left_can;
pos = (-40,357);
},
{
name = middle_right_can;
pos = (468,357);
},
{
name = top_center_can;
pos = (217,714);
},
{
name = top_left_can;
pos = (65,714);
},
{
name = top_right_can;
pos = (370,714);
}
);
shapes = (
{
closed = 1;
nodes = (
(317,-12,o),
(383,89,o),
(383,241,cs),
(383,393,o),
(316,493,o),
(219,493,cs),
(145,493,o),
(87,430,o),
(73,336,c),
(77,329,l),
(77,714,l),
(52,714,l),
(52,245,ls),
(52,88,o),
(116,-12,o),
(217,-12,cs)
);
},
{
closed = 1;
nodes = (
(131,12,o),
(77,99,o),
(77,240,cs),
(77,378,o),
(131,469,o),
(217,469,cs),
(302,469,o),
(358,380,o),
(358,241,cs),
(358,102,o),
(304,12,o),
(217,12,cs)
);
}
);
};
layerId = "341CD669-D84F-4333-8BC8-F9777E6D3814";
shapes = (
{
closed = 1;
nodes = (
(323,-12,o),
(383,76,o),
(383,242,cs),
(383,404,o),
(322,493,o),
(217,493,cs),
(141,493,o),
(86,439,o),
(73,358,c),
(77,329,l),
(77,714,l),
(52,714,l),
(52,245,ls),
(52,76,o),
(110,-12,o),
(217,-12,cs)
);
},
{
closed = 1;
nodes = (
(124,12,o),
(77,88,o),
(77,240,cs),
(77,391,o),
(125,469,o),
(217,469,cs),
(310,469,o),
(358,391,o),
(358,240,cs),
(358,89,o),
(310,12,o),
(217,12,cs)
);
}
);
width = 422;
},
{
anchors = (
{
name = middle_center_can;
pos = (259,271);
},
{
name = top_center_can;
pos = (260,714);
},
{
name = top_left_can;
pos = (128,714);
},
{
name = top_right_can;
pos = (392,714);
}
);
background = {
anchors = (
{
name = middle_center_can;
pos = (259,271);
},
{
name = middle_left_can;
pos = (-86,357);
},
{
name = middle_right_can;
pos = (592,357);
},
{
name = top_center_can;
pos = (260,714);
},
{
name = top_left_can;
pos = (127,714);
},
{
name = top_right_can;
pos = (392,714);
}
);
shapes = (
{
closed = 1;
nodes = (
(395,-15,o),
(481,91,o),
(481,262,cs),
(481,421,o),
(402,529,o),
(286,529,cs),
(243,529,o),
(212,504,o),
(204,484,c),
(218,460,l),
(218,714,l),
(37,714,l),
(37,260,ls),
(37,85,o),
(111,-15,o),
(253,-15,cs)
);
},
{
closed = 1;
nodes = (
(234,139,o),
(216,166,o),
(216,257,cs),
(216,348,o),
(237,375,o),
(259,375,cs),
(282,375,o),
(302,347,o),
(302,257,cs),
(302,167,o),
(285,139,o),
(259,139,cs)
);
}
);
};
layerId = "4DD67900-F9B0-4F36-BC45-F4B21129580C";
shapes = (
{
closed = 1;
nodes = (
(395,-15,o),
(481,91,o),
(481,262,cs),
(481,421,o),
(402,529,o),
(286,529,cs),
(243,529,o),
(212,504,o),
(204,484,c),
(220,460,l),
(220,714,l),
(37,714,l),
(37,260,ls),
(37,85,o),
(111,-15,o),
(253,-15,cs)
);
},
{
closed = 1;
nodes = (
(234,139,o),
(216,166,o),
(216,257,cs),
(216,348,o),
(237,375,o),
(259,375,cs),
(282,375,o),
(302,347,o),
(302,257,cs),
(302,167,o),
(285,139,o),
(259,139,cs)
);
}
);
width = 503;
}
);
metricLeft = "te-canadian";
metricRight = "==|ke-canadian";
note = uni1472;
unicode = 5234;
},
{
color = 4;
glyphname = "k-canadian";
lastChange = "2022-07-04 10:52:17 +0000";
layers = (
{
background = {
shapes = (
{
closed = 1;
nodes = (
(286,351,o),
(340,407,o),
(340,488,cs),
(340,568,o),
(286,622,o),
(213,622,cs),
(154,622,o),
(108,582,o),
(99,528,c),
(109,516,l),
(109,714,l),
(85,714,l),
(85,487,ls),
(85,403,o),
(138,351,o),
(212,351,cs)
);
},
{
closed = 1;
nodes = (
(146,372,o),
(107,415,o),
(107,487,cs),
(107,556,o),
(151,601,o),
(212,601,cs),
(275,601,o),
(318,556,o),
(318,488,cs),
(318,418,o),
(276,372,o),
(213,372,cs)
);
}
);
};
layerId = m01;
shapes = (
{
closed = 1;
nodes = (
(286,351,o),
(340,407,o),
(340,488,cs),
(340,568,o),
(286,622,o),
(213,622,cs),
(154,622,o),
(108,582,o),
(99,528,c),
(109,516,l),
(109,714,l),
(85,714,l),
(85,487,ls),
(85,403,o),
(138,351,o),
(212,351,cs)
);
},
{
closed = 1;
nodes = (
(147,373,o),
(108,416,o),
(108,487,cs),
(108,555,o),
(152,600,o),
(212,600,cs),
(274,600,o),
(317,555,o),
(317,488,cs),
(317,419,o),
(275,373,o),
(213,373,cs)
);
}
);
width = 400;
},
{
background = {
shapes = (
{
closed = 1;
nodes = (
(277,351,o),
(344,403,o),
(344,487,cs),
(344,568,o),
(288,622,o),
(217,622,cs),
(178,622,o),
(150,604,o),
(141,588,c),
(153,588,l),
(153,714,l),
(39,714,l),
(39,496,ls),
(39,410,o),
(100,351,o),
(197,351,cs)
);
},
{
closed = 1;
nodes = (
(166,437,o),
(147,455,o),
(147,486,cs),
(147,518,o),
(167,536,o),
(193,536,cs),
(220,536,o),
(240,518,o),
(240,486,cs),
(240,455,o),
(220,437,o),
(193,437,cs)
);
}
);
};
layerId = "A1461942-0433-4891-A171-8512F51D8C86";
shapes = (
{
closed = 1;
nodes = (
(277,351,o),
(344,403,o),
(344,487,cs),
(344,568,o),
(288,622,o),
(217,622,cs),
(178,622,o),
(150,604,o),
(141,588,c),
(164,588,l),
(164,714,l),
(39,714,l),
(39,496,ls),
(39,410,o),
(100,351,o),
(197,351,cs)
);
},
{
closed = 1;
nodes = (
(169,441,o),
(152,458,o),
(152,486,cs),
(152,515,o),
(170,532,o),
(193,532,cs),
(217,532,o),
(235,515,o),
(235,486,cs),
(235,458,o),
(217,441,o),
(193,441,cs)
);
}
);
width = 373;
},
{
background = {
shapes = (
{
closed = 1;
nodes = (
(186,351,o),
(225,407,o),
(225,488,cs),
(225,567,o),
(187,622,o),
(136,622,cs),
(94,622,o),
(64,582,o),
(57,528,c),
(64,516,l),
(64,714,l),
(44,714,l),
(44,487,ls),
(44,404,o),
(81,351,o),
(134,351,cs)
);
},
{
closed = 1;
nodes = (
(90,373,o),
(64,416,o),
(64,487,cs),
(64,554,o),
(93,600,o),
(134,600,cs),
(176,600,o),
(205,555,o),
(205,488,cs),
(205,420,o),
(177,373,o),
(135,373,cs)
);
}
);
};
layerId = "341CD669-D84F-4333-8BC8-F9777E6D3814";
shapes = (
{
closed = 1;
nodes = (
(185,351,o),
(225,397,o),
(225,488,cs),
(225,577,o),
(186,622,o),
(136,622,cs),
(93,622,o),
(60,587,o),
(57,528,c),
(66,528,l),
(66,714,l),
(44,714,l),
(44,487,ls),
(44,396,o),
(82,351,o),
(134,351,cs)
);
},
{
closed = 1;
nodes = (
(90,373,o),
(66,406,o),
(66,487,cs),
(66,564,o),
(93,600,o),
(135,600,cs),
(176,600,o),
(203,565,o),
(203,488,cs),
(203,410,o),
(177,373,o),
(135,373,cs)
);
}
);
width = 257;
},
{
background = {
shapes = (
{
closed = 1;
nodes = (
(206,351,o),
(258,393,o),
(258,495,cs),
(258,583,o),
(219,622,o),
(167,622,cs),
(136,622,o),
(114,603,o),
(108,574,c),
(127,574,l),
(127,714,l),
(21,714,l),
(21,485,ls),
(21,406,o),
(62,351,o),
(138,351,cs)
);
},
{
closed = 1;
nodes = (
(131,433,o),
(121,442,o),
(121,486,cs),
(121,530,o),
(131,540,o),
(141,540,cs),
(151,540,o),
(162,531,o),
(162,486,cs),
(162,441,o),
(151,433,o),
(141,433,cs)
);
}
);
};
layerId = "4DD67900-F9B0-4F36-BC45-F4B21129580C";
shapes = (
{
closed = 1;
nodes = (
(206,351,o),
(258,393,o),
(258,495,cs),
(258,576,o),
(219,622,o),
(167,622,cs),
(136,622,o),
(114,603,o),
(108,574,c),
(131,574,l),
(131,714,l),
(21,714,l),
(21,485,ls),
(21,406,o),
(62,351,o),
(142,351,cs)
);
},
{
closed = 1;
nodes = (
(131,436,o),
(121,444,o),
(121,486,cs),
(121,528,o),
(131,537,o),
(141,537,cs),
(151,537,o),
(162,529,o),
(162,486,cs),
(162,444,o),
(151,436,o),
(141,436,cs)
);
}
);
width = 272;
}
);
note = uni1483;
unicode = 5251;
},
{
color = 4;
glyphname = "kw-canadian";
lastChange = "2022-07-04 21:50:21 +0000";
layers = (
{
background = {
shapes = (
{
closed = 1;
nodes = (
(262,351,o),
(315,403,o),
(315,487,cs),
(315,714,l),
(291,714,l),
(291,516,l),
(301,528,l),
(292,582,o),
(246,622,o),
(187,622,cs),
(114,622,o),
(60,568,o),
(60,488,cs),
(60,407,o),
(114,351,o),
(188,351,cs)
);
},
{
closed = 1;
nodes = (
(124,372,o),
(82,418,o),
(82,488,cs),
(82,556,o),
(125,601,o),
(188,601,cs),
(249,601,o),
(293,556,o),
(293,487,cs),
(293,415,o),
(254,372,o),
(187,372,cs)
);
}
);
};
layerId = m01;
shapes = (
{
closed = 1;
nodes = (
(262,351,o),
(315,403,o),
(315,487,cs),
(315,714,l),
(291,714,l),
(291,516,l),
(301,528,l),
(292,582,o),
(246,622,o),
(187,622,cs),
(114,622,o),
(60,568,o),
(60,488,cs),
(60,407,o),
(114,351,o),
(188,351,cs)
);
},
{
closed = 1;
nodes = (
(125,373,o),
(83,419,o),
(83,488,cs),
(83,555,o),
(126,600,o),
(188,600,cs),
(248,600,o),
(292,555,o),
(292,487,cs),
(292,416,o),
(253,373,o),
(187,373,cs)
);
}
);
width = 400;
},
{
background = {
shapes = (
{
closed = 1;
nodes = (
(273,351,o),
(334,410,o),
(334,496,cs),
(334,714,l),
(220,714,l),
(220,585,l),
(242,585,l),
(233,603,o),
(205,622,o),
(166,622,cs),
(85,622,o),
(29,568,o),
(29,487,cs),
(29,403,o),
(96,351,o),
(176,351,cs)
);
},
{
closed = 1;
nodes = (
(153,437,o),
(133,455,o),
(133,486,cs),
(133,518,o),
(153,536,o),
(180,536,cs),
(206,536,o),
(226,518,o),
(226,486,cs),
(226,455,o),
(207,437,o),
(180,437,cs)
);
}
);
};
layerId = "A1461942-0433-4891-A171-8512F51D8C86";
shapes = (
{
closed = 1;
nodes = (
(273,351,o),
(334,410,o),
(334,496,cs),
(334,714,l),
(209,714,l),
(209,588,l),
(232,588,l),
(223,604,o),
(195,622,o),
(156,622,cs),
(85,622,o),
(29,568,o),
(29,487,cs),
(29,403,o),
(96,351,o),
(176,351,cs)
);
},
{
closed = 1;
nodes = (
(156,441,o),
(138,458,o),
(138,486,cs),
(138,515,o),
(156,532,o),
(180,532,cs),
(203,532,o),
(221,515,o),
(221,486,cs),
(221,458,o),
(204,441,o),
(180,441,cs)
);
}
);
width = 373;
},
{
background = {
shapes = (
{
closed = 1;
nodes = (
(175,351,o),
(213,403,o),
(213,487,cs),
(213,714,l),
(192,714,l),
(192,516,l),
(200,528,l),
(193,582,o),
(162,622,o),
(121,622,cs),
(70,622,o),
(32,568,o),
(32,488,cs),
(32,408,o),
(70,351,o),
(122,351,cs)
);
},
{
closed = 1;
nodes = (
(80,373,o),
(51,419,o),
(51,488,cs),
(51,556,o),
(81,600,o),
(123,600,cs),
(163,600,o),
(193,555,o),
(193,487,cs),
(193,415,o),
(166,373,o),
(122,373,cs)
);
}
);
};
layerId = "341CD669-D84F-4333-8BC8-F9777E6D3814";
shapes = (
{
closed = 1;
nodes = (
(175,351,o),
(213,396,o),
(213,487,cs),
(213,714,l),
(191,714,l),
(191,528,l),
(200,528,l),
(197,587,o),
(164,622,o),
(121,622,cs),
(71,622,o),
(32,577,o),
(32,488,cs),
(32,397,o),
(72,351,o),
(123,351,cs)
);
},
{
closed = 1;
nodes = (
(80,373,o),
(54,410,o),
(54,488,cs),
(54,565,o),
(81,600,o),
(122,600,cs),
(164,600,o),
(191,564,o),
(191,487,cs),
(191,406,o),
(167,373,o),
(122,373,cs)
);
}
);
width = 257;
},
{
background = {
shapes = (
{
closed = 1;
nodes = (
(210,351,o),
(251,406,o),
(251,485,cs),
(251,714,l),
(145,714,l),
(145,574,l),
(154,574,l),
(148,603,o),
(128,622,o),
(101,622,cs),
(55,622,o),
(14,583,o),
(14,490,cs),
(14,393,o),
(68,351,o),
(130,351,cs)
);
},
{
closed = 1;
nodes = (
(121,433,o),
(110,441,o),
(110,486,cs),
(110,531,o),
(121,540,o),
(131,540,cs),
(141,540,o),
(151,530,o),
(151,486,cs),
(151,442,o),
(141,433,o),
(131,433,cs)
);
}
);
};
layerId = "4DD67900-F9B0-4F36-BC45-F4B21129580C";
shapes = (
{
closed = 1;
nodes = (
(210,351,o),
(251,406,o),
(251,485,cs),
(251,714,l),
(141,714,l),
(141,574,l),
(164,574,l),
(158,603,o),
(136,622,o),
(105,622,cs),
(53,622,o),
(14,576,o),
(14,495,cs),
(14,393,o),
(66,351,o),
(130,351,cs)
);
},
{
closed = 1;
nodes = (
(121,436,o),
(110,444,o),
(110,486,cs),
(110,529,o),
(121,537,o),
(131,537,cs),
(141,537,o),
(151,528,o),
(151,486,cs),
(151,444,o),
(141,436,o),
(131,436,cs)
);
}
);
width = 272;
}
);
metricLeft = "=|k-canadian";
metricRight = "=|k-canadian";
note = uni1484;
unicode = 5252;
},
{
color = 11;
glyphname = "ce-canadian";
lastChange = "2022-07-04 21:50:21 +0000";
layers = (
{
anchors = (
{
name = middle_center_can;
pos = (355,457);
},
{
name = top_center_can;
pos = (323,714);
},
{
name = top_left_can;
pos = (103,714);
},
{
name = top_right_can;
pos = (541,714);
}
);
background = {
shapes = (
{
closed = 1;
nodes = (
(1369,462,ls),
(1369,651,o),
(1288,724,o),
(1134,724,cs),
(980,724,o),
(890,652,o),
(890,460,cs),
(890,410,l),
(916,410,l),
(916,458,ls),
(916,636,o),
(995,699,o),
(1134,699,cs),
(1276,699,o),
(1343,634,o),
(1343,470,cs),
(1343,0,l),
(1369,0,l),
(1369,0,l)
);
},
{
closed = 1;
nodes = (
(556,472,ls),
(556,625,o),
(464,726,o),
(323,726,cs),
(182,726,o),
(90,625,o),
(90,472,cs),
(90,410,l),
(116,410,l),
(116,472,ls),
(116,612,o),
(196,701,o),
(323,701,cs),
(450,701,o),
(530,612,o),
(530,472,cs),
(530,0,l),
(556,0,l)
);
}
);
};
layerId = m01;
shapes = (
{
closed = 1;
nodes = (
(554,0,l),
(554,469,ls),
(554,628,o),
(465,726,o),
(324,726,cs),
(179,726,o),
(90,628,o),
(90,469,cs),
(90,410,l),
(116,410,l),
(116,469,ls),
(116,615,o),
(193,701,o),
(324,701,cs),
(451,701,o),
(528,615,o),
(528,472,cs),
(528,0,l)
);
}
);
width = 649;
},
{
anchors = (
{
name = middle_center_can;
pos = (320,357);
},
{
name = top_center_can;
pos = (326,714);
},
{
name = top_left_can;
pos = (135,714);
},
{
name = top_right_can;
pos = (507,714);
}
);
background = {
anchors = (
{
name = middle_center_can;
pos = (320,357);
},
{
name = middle_left_can;
pos = (-121,357);
},
{
name = middle_right_can;
pos = (763,357);
},
{
name = top_center_can;
pos = (326,714);
},
{
name = top_left_can;
pos = (135,714);
},
{
name = top_right_can;
pos = (507,714);
}
);
shapes = (
{
closed = 1;
nodes = (
(603,0,l),
(603,443,ls),
(603,629,o),
(498,729,o),
(326,729,cs),
(148,729,o),
(39,621,o),
(39,441,cs),
(39,390,l),
(230,390,l),
(230,451,ls),
(230,525,o),
(262,563,o),
(321,563,cs),
(378,563,o),
(410,526,o),
(410,450,cs),
(410,0,l)
);
}
);
};
layerId = "A1461942-0433-4891-A171-8512F51D8C86";
shapes = (
{
closed = 1;
nodes = (
(603,0,l),
(603,443,ls),
(603,629,o),
(498,729,o),
(326,729,cs),
(148,729,o),
(39,621,o),
(39,441,cs),
(39,390,l),
(230,390,l),
(230,451,ls),
(230,525,o),
(262,563,o),
(321,563,cs),
(378,563,o),
(410,526,o),
(410,450,cs),
(410,0,l)
);
}
);
width = 661;
},
{
anchors = (
{
name = middle_center_can;
pos = (230,458);
},
{
name = top_center_can;
pos = (210,714);
},
{
name = top_left_can;
pos = (57,714);
},
{
name = top_right_can;
pos = (361,714);
}
);
background = {
anchors = (
{
name = middle_center_can;
pos = (830,458);
},
{
name = middle_left_can;
pos = (552,357);
},
{
name = middle_right_can;
pos = (1065,357);
},
{
name = top_center_can;
pos = (810,714);
},
{
name = top_left_can;
pos = (657,714);
},
{
name = top_right_can;
pos = (961,714);
}
);
shapes = (
{
closed = 1;
nodes = (
(973,0,l),
(973,469,ls),
(973,628,o),
(910,726,o),
(810,726,cs),
(707,726,o),
(644,627,o),
(644,469,cs),
(644,410,l),
(669,410,l),
(669,469,ls),
(669,615,o),
(721,702,o),
(810,702,cs),
(896,702,o),
(948,615,o),
(948,472,cs),
(948,0,l)
);
},
{
closed = 1;
nodes = (
(373,0,l),
(373,469,ls),
(373,638,o),
(315,726,o),
(208,726,cs),
(102,726,o),
(42,638,o),
(42,472,cs),
(42,310,o),
(103,221,o),
(208,221,cs),
(284,221,o),
(339,275,o),
(352,356,c),
(348,385,l),
(348,0,l)
);
},
{
closed = 1;
nodes = (
(115,245,o),
(67,323,o),
(67,474,cs),
(67,625,o),
(115,702,o),
(208,702,cs),
(301,702,o),
(348,626,o),
(348,474,cs),
(348,323,o),
(300,245,o),
(208,245,cs)
);
}
);
};
layerId = "341CD669-D84F-4333-8BC8-F9777E6D3814";
shapes = (
{
closed = 1;
nodes = (
(373,0,l),
(373,494,ls),
(373,638,o),
(315,726,o),
(210,726,cs),
(102,726,o),
(44,638,o),
(44,504,cs),
(44,410,l),
(69,410,l),
(69,504,ls),
(69,627,o),
(115,702,o),
(210,702,cs),
(301,702,o),
(348,626,o),
(348,497,cs),
(348,0,l)
);
}
);
width = 425;
},
{
anchors = (
{
name = middle_center_can;
pos = (239,363);
},
{
name = top_center_can;
pos = (241,714);
},
{
name = top_left_can;
pos = (112,714);
},
{
name = top_right_can;
pos = (367,714);
}
);
background = {
anchors = (
{
name = middle_center_can;
pos = (239,363);
},
{
name = middle_left_can;
pos = (-102,357);
},
{
name = middle_right_can;
pos = (581,357);
},
{
name = top_center_can;
pos = (241,714);
},
{
name = top_left_can;
pos = (112,714);
},
{
name = top_right_can;
pos = (367,714);
}
);
shapes = (
{
closed = 1;
nodes = (
(458,0,l),
(458,464,ls),
(458,629,o),
(384,729,o),
(242,729,cs),
(105,729,o),
(21,641,o),
(21,463,cs),
(21,390,l),
(202,390,l),
(202,501,ls),
(202,548,o),
(215,570,o),
(239,570,cs),
(261,570,o),
(275,551,o),
(275,500,cs),
(275,0,l)
);
}
);
};
layerId = "4DD67900-F9B0-4F36-BC45-F4B21129580C";
shapes = (
{
closed = 1;
nodes = (
(458,0,l),
(458,464,ls),
(458,629,o),
(384,729,o),
(242,729,cs),
(105,729,o),
(21,641,o),
(21,463,cs),
(21,390,l),
(202,390,l),
(202,501,ls),
(202,548,o),
(215,570,o),
(239,570,cs),
(261,570,o),
(275,551,o),
(275,500,cs),
(275,0,l)
);
}
);
width = 495;
}
);
metricRight = "te-canadian";
note = uni1489;
unicode = 5257;
},
{
color = 11;
glyphname = "ci-canadian";
lastChange = "2022-07-04 21:50:21 +0000";
layers = (
{
anchors = (
{
name = middle_center_can;
pos = (360,457);
},
{
name = top_center_can;
pos = (328,714);
},
{
name = top_left_can;
pos = (108,714);
},
{
name = top_right_can;
pos = (548,714);
}
);
background = {
shapes = (
{
closed = 1;
nodes = (
(821,470,ls),
(821,634,o),
(888,699,o),
(1030,699,cs),
(1169,699,o),
(1248,636,o),
(1248,458,cs),
(1248,410,l),
(1274,410,l),
(1274,460,ls),
(1274,591,o),
(1233,666,o),
(1161,699,cs),
(1124,716,o),
(1081,724,o),
(1030,724,cs),
(876,724,o),
(795,651,o),
(795,462,cs),
(795,0,l),
(821,0,l),
(821,0,l)
);
},
{
closed = 1;
nodes = (
(121,0,l),
(121,472,ls),
(121,615,o),
(198,701,o),
(325,701,cs),
(456,701,o),
(533,615,o),
(533,469,cs),
(533,410,l),
(559,410,l),
(559,469,ls),
(559,628,o),
(470,726,o),
(325,726,cs),
(184,726,o),
(95,628,o),
(95,469,cs),
(95,0,l)
);
}
);
};
layerId = m01;
shapes = (
{
closed = 1;
nodes = (
(121,0,l),
(121,472,ls),
(121,615,o),
(198,701,o),
(329,701,cs),
(459,701,o),
(533,615,o),
(533,469,cs),
(533,410,l),
(559,410,l),
(559,469,ls),
(559,627,o),
(472,726,o),
(329,726,cs),
(184,726,o),
(95,628,o),
(95,469,cs),
(95,0,l)
);
}
);
width = 649;
},
{
anchors = (
{
name = middle_center_can;
pos = (320,357);
},
{
name = top_center_can;
pos = (348,714);
},
{
name = top_left_can;
pos = (155,714);
},
{
name = top_right_can;
pos = (527,714);
}
);
background = {
anchors = (
{
name = middle_center_can;
pos = (320,357);
},
{
name = middle_left_can;
pos = (-102,357);
},
{
name = middle_right_can;
pos = (782,357);
},
{
name = top_center_can;
pos = (348,714);
},
{
name = top_left_can;
pos = (155,714);
},
{
name = top_right_can;
pos = (527,714);
}
);
shapes = (
{
closed = 1;
nodes = (
(251,0,l),
(251,450,ls),
(251,525,o),
(286,563,o),
(344,563,cs),
(400,563,o),
(431,527,o),
(431,454,cs),
(431,390,l),
(622,390,l),
(622,441,ls),
(622,621,o),
(522,729,o),
(348,729,cs),
(166,729,o),
(58,622,o),
(58,441,cs),
(58,0,l)
);
}
);
};
layerId = "A1461942-0433-4891-A171-8512F51D8C86";
shapes = (
{
closed = 1;
nodes = (
(251,0,l),
(251,450,ls),
(251,525,o),
(286,563,o),
(344,563,cs),
(400,563,o),
(431,527,o),
(431,454,cs),
(431,390,l),
(622,390,l),
(622,441,ls),
(622,621,o),
(522,729,o),
(348,729,cs),
(166,729,o),
(58,622,o),
(58,441,cs),
(58,0,l)
);
}
);
width = 661;
},
{
anchors = (
{
name = middle_center_can;
pos = (238,458);
},
{
name = top_center_can;
pos = (218,714);
},
{
name = top_left_can;
pos = (65,714);
},
{
name = top_right_can;
pos = (370,714);
}
);
background = {
anchors = (
{
name = middle_center_can;
pos = (238,458);
},
{
name = middle_left_can;
pos = (-40,357);
},
{
name = middle_right_can;
pos = (473,357);
},
{
name = top_center_can;
pos = (218,714);
},
{
name = top_left_can;
pos = (65,714);
},
{
name = top_right_can;
pos = (370,714);
}
);
shapes = (
{
closed = 1;
nodes = (
(77,0,l),
(77,472,ls),
(77,616,o),
(130,702,o),
(218,702,cs),
(306,702,o),
(356,615,o),
(356,469,cs),
(356,410,l),
(381,410,l),
(381,469,ls),
(381,626,o),
(320,726,o),
(218,726,cs),
(115,726,o),
(52,627,o),
(52,469,cs),
(52,0,l)
);
}
);
};
layerId = "341CD669-D84F-4333-8BC8-F9777E6D3814";
shapes = (
{
closed = 1;
nodes = (
(77,0,l),
(77,497,ls),
(77,626,o),
(124,702,o),
(215,702,cs),
(310,702,o),
(356,627,o),
(356,504,cs),
(356,410,l),
(381,410,l),
(381,504,ls),
(381,638,o),
(323,726,o),
(215,726,cs),
(110,726,o),
(52,638,o),
(52,494,cs),
(52,0,l)
);
}
);
width = 425;
},
{
anchors = (
{
name = middle_center_can;
pos = (257,363);
},
{
name = top_center_can;
pos = (257,714);
},
{
name = top_left_can;
pos = (129,714);
},
{
name = top_right_can;
pos = (384,714);
}
);
background = {
anchors = (
{
name = middle_center_can;
pos = (257,363);
},
{
name = middle_left_can;
pos = (-86,357);
},
{
name = middle_right_can;
pos = (593,357);
},
{
name = top_center_can;
pos = (257,714);
},
{
name = top_left_can;
pos = (129,714);
},
{
name = top_right_can;
pos = (384,714);
}
);
shapes = (
{
closed = 1;
nodes = (
(220,0,l),
(220,500,ls),
(220,551,o),
(234,570,o),
(256,570,cs),
(280,570,o),
(293,548,o),
(293,501,cs),
(293,390,l),
(474,390,l),
(474,463,ls),
(474,641,o),
(390,729,o),
(257,729,cs),
(109,729,o),
(37,629,o),
(37,464,cs),
(37,0,l)
);
}
);
};
layerId = "4DD67900-F9B0-4F36-BC45-F4B21129580C";
shapes = (
{
closed = 1;
nodes = (
(220,0,l),
(220,500,ls),
(220,551,o),
(234,570,o),
(256,570,cs),
(280,570,o),
(293,548,o),
(293,501,cs),
(293,390,l),
(474,390,l),
(474,463,ls),
(474,641,o),
(390,729,o),
(257,729,cs),
(109,729,o),
(37,629,o),
(37,464,cs),
(37,0,l)
);
}
);
width = 495;
}
);
note = uni148B;
unicode = 5259;
},
{
color = 11;
glyphname = "co-canadian";
lastChange = "2022-07-04 21:50:21 +0000";
layers = (
{
anchors = (
{
name = middle_center_can;
pos = (355,457);
},
{
name = top_center_can;
pos = (322,714);
},
{
name = top_left_can;
pos = (103,714);
},
{
name = top_right_can;
pos = (541,714);
}
);
background = {
shapes = (
{
closed = 1;
nodes = (
(489,-10,o),
(569,63,o),
(569,252,cs),
(569,714,l),
(543,714,l),
(543,244,ls),
(543,80,o),
(476,15,o),
(334,15,cs),
(195,15,o),
(116,78,o),
(116,256,cs),
(116,304,l),
(90,304,l),
(90,254,ls),
(90,62,o),
(180,-10,o),
(334,-10,cs)
);
}
);
};
layerId = m01;
shapes = (
{
closed = 1;
nodes = (
(465,-12,o),
(554,81,o),
(554,247,cs),
(554,714,l),
(528,714,l),
(528,244,ls),
(528,95,o),
(451,13,o),
(324,13,cs),
(190,13,o),
(116,97,o),
(116,247,cs),
(116,304,l),
(90,304,l),
(90,243,ls),
(90,86,o),
(176,-12,o),
(324,-12,cs)
);
}
);
width = 649;
},
{
anchors = (
{
name = middle_center_can;
pos = (320,357);
},
{
name = top_center_can;
pos = (326,714);
},
{
name = top_left_can;
pos = (135,714);
},
{
name = top_right_can;
pos = (507,714);
}
);
background = {
anchors = (
{
name = middle_center_can;
pos = (320,357);
},
{
name = middle_left_can;
pos = (-121,357);
},
{
name = middle_right_can;
pos = (763,357);
},
{
name = top_center_can;
pos = (326,714);
},
{
name = top_left_can;
pos = (135,714);
},
{
name = top_right_can;
pos = (507,714);
}
);
shapes = (
{
closed = 1;
nodes = (
(496,-15,o),
(603,85,o),
(603,271,cs),
(603,714,l),
(410,714,l),
(410,260,ls),
(410,186,o),
(379,151,o),
(321,151,cs),
(260,151,o),
(230,189,o),
(230,273,cs),
(230,324,l),
(39,324,l),
(39,273,ls),
(39,94,o),
(139,-15,o),
(325,-15,cs)
);
}
);
};
layerId = "A1461942-0433-4891-A171-8512F51D8C86";
shapes = (
{
closed = 1;
nodes = (
(496,-15,o),
(603,85,o),
(603,271,cs),
(603,714,l),
(410,714,l),
(410,260,ls),
(410,186,o),
(379,151,o),
(321,151,cs),
(260,151,o),
(230,189,o),
(230,273,cs),
(230,324,l),
(39,324,l),
(39,273,ls),
(39,94,o),
(139,-15,o),
(325,-15,cs)
);
}
);
width = 661;
},
{
anchors = (
{
name = middle_center_can;
pos = (230,458);
},
{
name = top_center_can;
pos = (209,714);
},
{
name = top_left_can;
pos = (57,714);
},
{
name = top_right_can;
pos = (361,714);
}
);
background = {
anchors = (
{
name = middle_center_can;
pos = (230,458);
},
{
name = middle_left_can;
pos = (-48,357);
},
{
name = middle_right_can;
pos = (465,357);
},
{
name = top_center_can;
pos = (209,714);
},
{
name = top_left_can;
pos = (57,714);
},
{
name = top_right_can;
pos = (361,714);
}
);
shapes = (
{
closed = 1;
nodes = (
(310,-12,o),
(373,81,o),
(373,247,cs),
(373,714,l),
(348,714,l),
(348,244,ls),
(348,95,o),
(296,12,o),
(210,12,cs),
(119,12,o),
(69,97,o),
(69,247,cs),
(69,304,l),
(44,304,l),
(44,243,ls),
(44,86,o),
(105,-12,o),
(210,-12,cs)
);
}
);
};
layerId = "341CD669-D84F-4333-8BC8-F9777E6D3814";
shapes = (
{
closed = 1;
nodes = (
(315,-12,o),
(373,76,o),
(373,220,cs),
(373,714,l),
(348,714,l),
(348,217,ls),
(348,88,o),
(301,12,o),
(210,12,cs),
(115,12,o),
(69,87,o),
(69,210,cs),
(69,304,l),
(44,304,l),
(44,210,ls),
(44,76,o),
(102,-12,o),
(210,-12,cs)
);
}
);
width = 425;
},
{
anchors = (
{
name = middle_center_can;
pos = (239,363);
},
{
name = top_center_can;
pos = (240,714);
},
{
name = top_left_can;
pos = (112,714);
},
{
name = top_right_can;
pos = (367,714);
}
);
background = {
anchors = (
{
name = middle_center_can;
pos = (239,363);
},
{
name = middle_left_can;
pos = (-102,357);
},
{
name = middle_right_can;
pos = (581,357);
},
{
name = top_center_can;
pos = (240,714);
},
{
name = top_left_can;
pos = (112,714);
},
{
name = top_right_can;
pos = (367,714);
}
);
shapes = (
{
closed = 1;
nodes = (
(384,-15,o),
(458,85,o),
(458,250,cs),
(458,714,l),
(275,714,l),
(275,214,ls),
(275,163,o),
(261,144,o),
(239,144,cs),
(215,144,o),
(202,166,o),
(202,213,cs),
(202,324,l),
(21,324,l),
(21,251,ls),
(21,73,o),
(105,-15,o),
(245,-15,cs)
);
}
);
};
layerId = "4DD67900-F9B0-4F36-BC45-F4B21129580C";
shapes = (
{
closed = 1;
nodes = (
(384,-15,o),
(458,85,o),
(458,250,cs),
(458,714,l),
(275,714,l),
(275,214,ls),
(275,163,o),
(261,144,o),
(239,144,cs),
(215,144,o),
(202,166,o),
(202,213,cs),
(202,324,l),
(21,324,l),
(21,251,ls),
(21,73,o),
(105,-15,o),
(245,-15,cs)
);
}
);
width = 495;
}
);
note = uni148D;
unicode = 5261;
},
{
color = 11;
glyphname = "ca-canadian";
lastChange = "2022-07-04 21:50:21 +0000";
layers = (
{
anchors = (
{
name = middle_center_can;
pos = (360,457);
},
{
name = top_center_can;
pos = (328,714);
},
{
name = top_left_can;
pos = (108,714);
},
{
name = top_right_can;
pos = (548,714);
}
);
background = {
shapes = (
{
closed = 1;
nodes = (
(431,-10,o),
(505,21,o),
(545,98,cs),
(564,137,o),
(574,189,o),
(574,254,cs),
(574,304,l),
(548,304,l),
(548,256,ls),
(548,78,o),
(469,15,o),
(330,15,cs),
(188,15,o),
(121,80,o),
(121,244,cs),
(121,714,l),
(95,714,l),
(95,252,ls),
(95,63,o),
(175,-10,o),
(330,-10,cs)
);
}
);
};
layerId = m01;
shapes = (
{
closed = 1;
nodes = (
(474,-12,o),
(559,83,o),
(559,245,cs),
(559,304,l),
(533,304,l),
(533,247,ls),
(533,95,o),
(460,13,o),
(329,13,cs),
(195,13,o),
(121,97,o),
(121,242,cs),
(121,714,l),
(95,714,l),
(95,245,ls),
(95,81,o),
(184,-12,o),
(329,-12,cs)
);
}
);
width = 649;
},
{
anchors = (
{
name = middle_center_can;
pos = (320,357);
},
{
name = top_center_can;
pos = (348,714);
},
{
name = top_left_can;
pos = (155,714);
},
{
name = top_right_can;
pos = (527,714);
}
);
background = {
anchors = (
{
name = middle_center_can;
pos = (320,357);
},
{
name = middle_left_can;
pos = (-102,357);
},
{
name = middle_right_can;
pos = (782,357);
},
{
name = top_center_can;
pos = (348,714);
},
{
name = top_left_can;
pos = (155,714);
},
{
name = top_right_can;
pos = (527,714);
}
);
shapes = (
{
closed = 1;
nodes = (
(518,-15,o),
(622,93,o),
(622,273,cs),
(622,324,l),
(431,324,l),
(431,268,ls),
(431,187,o),
(400,151,o),
(343,151,cs),
(283,151,o),
(251,190,o),
(251,271,cs),
(251,714,l),
(58,714,l),
(58,271,ls),
(58,88,o),
(158,-15,o),
(343,-15,cs)
);
}
);
};
layerId = "A1461942-0433-4891-A171-8512F51D8C86";
shapes = (
{
closed = 1;
nodes = (
(518,-15,o),
(622,93,o),
(622,273,cs),
(622,324,l),
(431,324,l),
(431,268,ls),
(431,187,o),
(400,151,o),
(343,151,cs),
(283,151,o),
(251,190,o),
(251,271,cs),
(251,714,l),
(58,714,l),
(58,271,ls),
(58,88,o),
(158,-15,o),
(343,-15,cs)
);
}
);
width = 661;
},
{
anchors = (
{
name = middle_center_can;
pos = (238,458);
},
{
name = top_center_can;
pos = (218,714);
},
{
name = top_left_can;
pos = (65,714);
},
{
name = top_right_can;
pos = (369,714);
}
);
background = {
anchors = (
{
name = middle_center_can;
pos = (238,458);
},
{
name = middle_left_can;
pos = (-40,357);
},
{
name = middle_right_can;
pos = (473,357);
},
{
name = top_center_can;
pos = (218,714);
},
{
name = top_left_can;
pos = (65,714);
},
{
name = top_right_can;
pos = (370,714);
}
);
shapes = (
{
closed = 1;
nodes = (
(321,-12,o),
(381,84,o),
(381,245,cs),
(381,304,l),
(356,304,l),
(356,247,ls),
(356,95,o),
(307,12,o),
(218,12,cs),
(127,12,o),
(77,97,o),
(77,242,cs),
(77,714,l),
(52,714,l),
(52,245,ls),
(52,81,o),
(115,-12,o),
(218,-12,cs)
);
}
);
};
layerId = "341CD669-D84F-4333-8BC8-F9777E6D3814";
shapes = (
{
closed = 1;
nodes = (
(323,-12,o),
(381,76,o),
(381,210,cs),
(381,304,l),
(356,304,l),
(356,210,ls),
(356,87,o),
(310,12,o),
(215,12,cs),
(124,12,o),
(77,88,o),
(77,217,cs),
(77,714,l),
(52,714,l),
(52,220,ls),
(52,76,o),
(110,-12,o),
(215,-12,cs)
);
}
);
width = 425;
},
{
anchors = (
{
name = middle_center_can;
pos = (257,363);
},
{
name = top_center_can;
pos = (257,714);
},
{
name = top_left_can;
pos = (129,714);
},
{
name = top_right_can;
pos = (384,714);
}
);
background = {
anchors = (
{
name = middle_center_can;
pos = (257,363);
},
{
name = middle_left_can;
pos = (-86,357);
},
{
name = middle_right_can;
pos = (597,357);
},
{
name = top_center_can;
pos = (257,714);
},
{
name = top_left_can;
pos = (129,714);
},
{
name = top_right_can;
pos = (384,714);
}
);
shapes = (
{
closed = 1;
nodes = (
(390,-15,o),
(474,73,o),
(474,251,cs),
(474,324,l),
(293,324,l),
(293,213,ls),
(293,166,o),
(280,144,o),
(256,144,cs),
(234,144,o),
(220,163,o),
(220,214,cs),
(220,714,l),
(37,714,l),
(37,250,ls),
(37,85,o),
(111,-15,o),
(253,-15,cs)
);
}
);
};
layerId = "4DD67900-F9B0-4F36-BC45-F4B21129580C";
shapes = (
{
closed = 1;
nodes = (
(390,-15,o),
(474,73,o),
(474,251,cs),
(474,324,l),
(293,324,l),
(293,213,ls),
(293,166,o),
(280,144,o),
(256,144,cs),
(234,144,o),
(220,163,o),
(220,214,cs),
(220,714,l),
(37,714,l),
(37,250,ls),
(37,85,o),
(111,-15,o),
(253,-15,cs)
);
}
);
width = 495;
}
);
note = uni1490;
unicode = 5264;
},
{
color = 4;
glyphname = "c-canadian";
lastChange = "2022-07-04 10:55:06 +0000";
layers = (
{
background = {
shapes = (
{
closed = 1;
nodes = (
(286,351,o),
(340,407,o),
(340,488,cs),
(340,568,o),
(286,622,o),
(213,622,cs),
(154,622,o),
(108,582,o),
(99,528,c),
(109,516,l),
(109,714,l),
(85,714,l),
(85,487,ls),
(85,403,o),
(138,351,o),
(212,351,cs)
);
},
{
closed = 1;
nodes = (
(146,372,o),
(107,415,o),
(107,487,cs),
(107,556,o),
(151,601,o),
(212,601,cs),
(275,601,o),
(318,556,o),
(318,488,cs),
(318,418,o),
(276,372,o),
(213,372,cs)
);
}
);
};
layerId = m01;
shapes = (
{
closed = 1;
nodes = (
(285,351,o),
(340,397,o),
(340,483,cs),
(340,500,l),
(317,500,l),
(317,479,ls),
(317,409,o),
(275,373,o),
(212,373,cs),
(148,373,o),
(109,410,o),
(109,489,cs),
(109,714,l),
(85,714,l),
(85,491,ls),
(85,399,o),
(136,351,o),
(213,351,cs)
);
}
);
width = 395;
},
{
background = {
shapes = (
{
closed = 1;
nodes = (
(289,351,o),
(348,405,o),
(348,491,cs),
(348,510,l),
(240,510,l),
(240,490,ls),
(240,456,o),
(224,437,o),
(196,437,cs),
(169,437,o),
(155,457,o),
(155,487,cs),
(155,714,l),
(39,714,l),
(39,506,ls),
(39,404,o),
(92,351,o),
(197,351,cs)
);
}
);
};
layerId = "A1461942-0433-4891-A171-8512F51D8C86";
shapes = (
{
closed = 1;
nodes = (
(289,351,o),
(348,405,o),
(348,491,cs),
(348,510,l),
(231,510,l),
(231,490,ls),
(231,464,o),
(218,449,o),
(196,449,cs),
(175,449,o),
(164,464,o),
(164,490,cs),
(164,714,l),
(39,714,l),
(39,506,ls),
(39,404,o),
(92,351,o),
(197,351,cs)
);
}
);
width = 377;
},
{
background = {
shapes = (
{
closed = 1;
nodes = (
(186,351,o),
(225,397,o),
(225,483,cs),
(225,500,l),
(205,500,l),
(205,479,ls),
(205,409,o),
(177,373,o),
(134,373,cs),
(91,373,o),
(65,410,o),
(65,489,cs),
(65,714,l),
(44,714,l),
(44,491,ls),
(44,399,o),
(80,351,o),
(135,351,cs)
);
}
);
};
layerId = "341CD669-D84F-4333-8BC8-F9777E6D3814";
shapes = (
{
closed = 1;
nodes = (
(187,351,o),
(225,394,o),
(225,471,cs),
(225,500,l),
(204,500,l),
(204,469,ls),
(204,406,o),
(178,373,o),
(136,373,cs),
(89,373,o),
(66,405,o),
(66,478,cs),
(66,714,l),
(44,714,l),
(44,478,ls),
(44,393,o),
(80,351,o),
(135,351,cs)
);
}
);
width = 262;
},
{
background = {
shapes = (
{
closed = 1;
nodes = (
(216,351,o),
(260,399,o),
(260,485,cs),
(260,509,l),
(160,509,l),
(160,460,ls),
(160,447,o),
(154,437,o),
(144,437,cs),
(134,437,o),
(131,446,o),
(131,460,cs),
(131,714,l),
(23,714,l),
(23,485,ls),
(23,399,o),
(62,351,o),
(145,351,cs)
);
},
{
closed = 1;
nodes = (
(-305,351,o),
(-280,368,o),
(-249,416,c),
(-284,416,l),
(-257,367,o),
(-229,351,o),
(-183,351,cs),
(-106,351,o),
(-58,398,o),
(-58,500,cs),
(-58,714,l),
(-166,714,l),
(-166,504,ls),
(-166,467,o),
(-173,455,o),
(-190,455,cs),
(-207,455,o),
(-215,468,o),
(-215,504,cs),
(-215,714,l),
(-321,714,l),
(-321,504,ls),
(-321,468,o),
(-329,455,o),
(-346,455,cs),
(-363,455,o),
(-369,470,o),
(-369,504,cs),
(-369,714,l),
(-477,714,l),
(-477,500,ls),
(-477,398,o),
(-428,351,o),
(-351,351,cs)
);
}
);
};
layerId = "4DD67900-F9B0-4F36-BC45-F4B21129580C";
shapes = (
{
closed = 1;
nodes = (
(216,351,o),
(260,399,o),
(260,485,cs),
(260,509,l),
(160,509,l),
(160,463,ls),
(160,451,o),
(154,442,o),
(144,442,cs),
(134,442,o),
(131,450,o),
(131,463,cs),
(131,714,l),
(21,714,l),
(21,485,ls),
(21,399,o),
(62,351,o),
(145,351,cs)
);
}
);
width = 274;
}
);
note = uni14A1;
unicode = 5281;
},
{
color = 4;
glyphname = "thSayisi-canadian";
lastChange = "2022-07-04 21:50:21 +0000";
layers = (
{
background = {
shapes = (
{
closed = 1;
nodes = (
(247,351,o),
(291,399,o),
(291,479,cs),
(291,714,l),
(267,714,l),
(267,484,ls),
(267,410,o),
(236,372,o),
(174,372,cs),
(109,372,o),
(78,409,o),
(78,479,cs),
(78,500,l),
(55,500,l),
(55,480,ls),
(55,395,o),
(98,351,o),
(172,351,cs)
);
}
);
};
layerId = m01;
shapes = (
{
closed = 1;
nodes = (
(259,351,o),
(310,399,o),
(310,491,cs),
(310,714,l),
(286,714,l),
(286,489,ls),
(286,410,o),
(247,373,o),
(183,373,cs),
(120,373,o),
(78,409,o),
(78,479,cs),
(78,500,l),
(55,500,l),
(55,483,ls),
(55,397,o),
(110,351,o),
(182,351,cs)
);
}
);
width = 395;
},
{
background = {
shapes = (
{
closed = 1;
nodes = (
(284,351,o),
(338,404,o),
(338,506,cs),
(338,714,l),
(222,714,l),
(222,490,ls),
(222,457,o),
(208,437,o),
(181,437,cs),
(152,437,o),
(137,456,o),
(137,490,cs),
(137,510,l),
(29,510,l),
(29,491,ls),
(29,405,o),
(87,351,o),
(181,351,cs)
);
}
);
};
layerId = "A1461942-0433-4891-A171-8512F51D8C86";
shapes = (
{
closed = 1;
nodes = (
(285,351,o),
(338,404,o),
(338,506,cs),
(338,714,l),
(213,714,l),
(213,490,ls),
(213,464,o),
(202,449,o),
(181,449,cs),
(159,449,o),
(146,464,o),
(146,490,cs),
(146,510,l),
(29,510,l),
(29,491,ls),
(29,405,o),
(88,351,o),
(180,351,cs)
);
}
);
width = 377;
},
{
background = {
shapes = (
{
closed = 1;
nodes = (
(182,351,o),
(218,400,o),
(218,491,cs),
(218,714,l),
(197,714,l),
(197,489,ls),
(197,410,o),
(171,373,o),
(128,373,cs),
(85,373,o),
(57,409,o),
(57,479,cs),
(57,500,l),
(37,500,l),
(37,483,ls),
(37,397,o),
(76,351,o),
(127,351,cs)
);
}
);
};
layerId = "341CD669-D84F-4333-8BC8-F9777E6D3814";
shapes = (
{
closed = 1;
nodes = (
(182,351,o),
(218,393,o),
(218,478,cs),
(218,714,l),
(196,714,l),
(196,478,ls),
(196,405,o),
(173,373,o),
(126,373,cs),
(84,373,o),
(58,406,o),
(58,469,cs),
(58,500,l),
(37,500,l),
(37,471,ls),
(37,394,o),
(75,351,o),
(127,351,cs)
);
}
);
width = 262;
},
{
background = {
shapes = (
{
closed = 1;
nodes = (
(212,351,o),
(251,399,o),
(251,485,cs),
(251,714,l),
(143,714,l),
(143,460,ls),
(143,446,o),
(140,437,o),
(130,437,cs),
(120,437,o),
(114,447,o),
(114,460,cs),
(114,509,l),
(14,509,l),
(14,485,ls),
(14,399,o),
(58,351,o),
(129,351,cs)
);
}
);
};
layerId = "4DD67900-F9B0-4F36-BC45-F4B21129580C";
shapes = (
{
closed = 1;
nodes = (
(212,351,o),
(253,399,o),
(253,485,cs),
(253,714,l),
(143,714,l),
(143,463,ls),
(143,450,o),
(140,442,o),
(130,442,cs),
(120,442,o),
(114,451,o),
(114,463,cs),
(114,509,l),
(14,509,l),
(14,485,ls),
(14,399,o),
(58,351,o),
(129,351,cs)
);
}
);
width = 274;
}
);
metricLeft = "=|c-canadian";
metricRight = "=|c-canadian";
note = uni14A2;
unicode = 5282;
},
{
color = 4;
glyphname = "me-canadian";
lastChange = "2022-07-04 21:50:21 +0000";
layers = (
{
anchors = (
{
name = middle_center_can;
pos = (242,357);
},
{
name = top_center_can;
pos = (255,714);
},
{
name = top_left_can;
pos = (63,714);
},
{
name = top_right_can;
pos = (447,714);
}
);
background = {
shapes = (
{
closed = 1;
nodes = (
(460,714,l),
(28,714,l),
(28,689,l),
(434,689,l),
(434,0,l),
(460,0,l),
(460,0,l)
);
}
);
};
layerId = m01;
shapes = (
{
closed = 1;
nodes = (
(460,0,l),
(460,714,l),
(50,714,l),
(50,689,l),
(434,689,l),
(434,0,l)
);
}
);
width = 560;
},
{
anchors = (
{
name = middle_center_can;
pos = (206,357);
},
{
name = top_center_can;
pos = (307,714);
},
{
name = top_left_can;
pos = (135,714);
},
{
name = top_right_can;
pos = (469,714);
}
);
background = {
anchors = (
{
name = middle_center_can;
pos = (206,357);
},
{
name = middle_left_can;
pos = (39,357);
},
{
name = middle_right_can;
pos = (725,357);
},
{
name = top_center_can;
pos = (307,714);
},
{
name = top_left_can;
pos = (135,714);
},
{
name = top_right_can;
pos = (469,714);
}
);
shapes = (
{
closed = 1;
nodes = (
(565,0,l),
(565,714,l),
(39,714,l),
(39,547,l),
(372,547,l),
(372,0,l)
);
}
);
};
layerId = "A1461942-0433-4891-A171-8512F51D8C86";
shapes = (
{
closed = 1;
nodes = (
(565,0,l),
(565,714,l),
(39,714,l),
(39,543,l),
(372,543,l),
(372,0,l)
);
}
);
width = 629;
},
{
anchors = (
{
name = middle_center_can;
pos = (164,357);
},
{
name = top_center_can;
pos = (177,714);
},
{
name = top_left_can;
pos = (43,714);
},
{
name = top_right_can;
pos = (310,714);
}
);
background = {
anchors = (
{
name = middle_center_can;
pos = (164,357);
},
{
name = middle_left_can;
pos = (31,357);
},
{
name = middle_right_can;
pos = (415,357);
},
{
name = top_center_can;
pos = (177,714);
},
{
name = top_left_can;
pos = (43,714);
},
{
name = top_right_can;
pos = (310,714);
}
);
shapes = (
{
closed = 1;
nodes = (
(323,0,l),
(323,714,l),
(31,714,l),
(31,690,l),
(298,690,l),
(298,0,l)
);
}
);
};
layerId = "341CD669-D84F-4333-8BC8-F9777E6D3814";
shapes = (
{
closed = 1;
nodes = (
(323,0,l),
(323,714,l),
(31,714,l),
(31,690,l),
(298,690,l),
(298,0,l)
);
}
);
width = 382;
},
{
anchors = (
{
name = middle_center_can;
pos = (141,357);
},
{
name = top_center_can;
pos = (237,714);
},
{
name = top_left_can;
pos = (118,714);
},
{
name = top_right_can;
pos = (345,714);
}
);
background = {
anchors = (
{
name = middle_center_can;
pos = (141,357);
},
{
name = middle_left_can;
pos = (27,357);
},
{
name = middle_right_can;
pos = (559,357);
},
{
name = top_center_can;
pos = (237,714);
},
{
name = top_left_can;
pos = (118,714);
},
{
name = top_right_can;
pos = (345,714);
}
);
shapes = (
{
closed = 1;
nodes = (
(436,0,l),
(436,714,l),
(27,714,l),
(27,554,l),
(253,554,l),
(253,0,l)
);
}
);
};
layerId = "4DD67900-F9B0-4F36-BC45-F4B21129580C";
shapes = (
{
closed = 1;
nodes = (
(436,0,l),
(436,714,l),
(27,714,l),
(27,547,l),
(253,547,l),
(253,0,l)
);
}
);
width = 477;
}
);
metricRight = "nunavuth-canadian";
note = uni14A3;
unicode = 5283;
},
{
color = 4;
glyphname = "mi-canadian";
lastChange = "2022-07-04 21:50:21 +0000";
layers = (
{
anchors = (
{
name = middle_center_can;
pos = (318,357);
},
{
name = top_center_can;
pos = (305,714);
},
{
name = top_left_can;
pos = (113,714);
},
{
name = top_right_can;
pos = (497,714);
}
);
background = {
shapes = (
{
closed = 1;
nodes = (
(126,689,l),
(532,689,l),
(532,714,l),
(100,714,l),
(100,0,l),
(126,0,l),
(126,0,l)
);
}
);
};
layerId = m01;
shapes = (
{
closed = 1;
nodes = (
(126,0,l),
(126,689,l),
(510,689,l),
(510,714,l),
(100,714,l),
(100,0,l)
);
}
);
width = 560;
},
{
anchors = (
{
name = middle_center_can;
pos = (424,357);
},
{
name = top_center_can;
pos = (327,714);
},
{
name = top_left_can;
pos = (161,714);
},
{
name = top_right_can;
pos = (494,714);
}
);
background = {
anchors = (
{
name = middle_center_can;
pos = (424,357);
},
{
name = middle_left_can;
pos = (-96,357);
},
{
name = middle_right_can;
pos = (590,357);
},
{
name = top_center_can;
pos = (327,714);
},
{
name = top_left_can;
pos = (161,714);
},
{
name = top_right_can;
pos = (494,714);
}
);
shapes = (
{
closed = 1;
nodes = (
(257,0,l),
(257,547,l),
(590,547,l),
(590,714,l),
(64,714,l),
(64,0,l)
);
}
);
};
layerId = "A1461942-0433-4891-A171-8512F51D8C86";
shapes = (
{
closed = 1;
nodes = (
(257,0,l),
(257,543,l),
(590,543,l),
(590,714,l),
(64,714,l),
(64,0,l)
);
}
);
width = 629;
},
{
anchors = (
{
name = middle_center_can;
pos = (218,357);
},
{
name = top_center_can;
pos = (205,714);
},
{
name = top_left_can;
pos = (72,714);
},
{
name = top_right_can;
pos = (338,714);
}
);
background = {
anchors = (
{
name = middle_center_can;
pos = (218,357);
},
{
name = middle_left_can;
pos = (-33,357);
},
{
name = middle_right_can;
pos = (351,357);
},
{
name = top_center_can;
pos = (205,714);
},
{
name = top_left_can;
pos = (72,714);
},
{
name = top_right_can;
pos = (338,714);
}
);
shapes = (
{
closed = 1;
nodes = (
(84,0,l),
(84,690,l),
(351,690,l),
(351,714,l),
(59,714,l),
(59,0,l)
);
}
);
};
layerId = "341CD669-D84F-4333-8BC8-F9777E6D3814";
shapes = (
{
closed = 1;
nodes = (
(84,0,l),
(84,690,l),
(351,690,l),
(351,714,l),
(59,714,l),
(59,0,l)
);
}
);
width = 382;
},
{
anchors = (
{
name = middle_center_can;
pos = (338,357);
},
{
name = top_center_can;
pos = (246,714);
},
{
name = top_left_can;
pos = (133,714);
},
{
name = top_right_can;
pos = (359,714);
}
);
background = {
anchors = (
{
name = middle_center_can;
pos = (338,357);
},
{
name = middle_left_can;
pos = (-82,357);
},
{
name = middle_right_can;
pos = (450,357);
},
{
name = top_center_can;
pos = (246,714);
},
{
name = top_left_can;
pos = (133,714);
},
{
name = top_right_can;
pos = (359,714);
}
);
shapes = (
{
closed = 1;
nodes = (
(224,0,l),
(224,554,l),
(450,554,l),
(450,714,l),
(41,714,l),
(41,0,l)
);
}
);
};
layerId = "4DD67900-F9B0-4F36-BC45-F4B21129580C";
shapes = (
{
closed = 1;
nodes = (
(224,0,l),
(224,547,l),
(450,547,l),
(450,714,l),
(41,714,l),
(41,0,l)
);
}
);
width = 477;
}
);
metricLeft = "nunavuth-canadian";
metricRight = "=|me-canadian";
note = uni14A5;
unicode = 5285;
},
{
color = 4;
glyphname = "mo-canadian";
lastChange = "2022-07-04 21:50:21 +0000";
layers = (
{
anchors = (
{
name = middle_center_can;
pos = (242,357);
},
{
name = top_center_can;
pos = (255,714);
},
{
name = top_left_can;
pos = (63,714);
},
{
name = top_right_can;
pos = (447,714);
}
);
background = {
shapes = (
{
closed = 1;
nodes = (
(482,714,l),
(456,714,l),
(456,25,l),
(50,25,l),
(50,0,l),
(482,0,l),
(482,0,l)
);
}
);
};
layerId = m01;
shapes = (
{
closed = 1;
nodes = (
(460,0,l),
(460,714,l),
(434,714,l),
(434,25,l),
(50,25,l),
(50,0,l)
);
}
);
width = 560;
},
{
anchors = (
{
name = middle_center_can;
pos = (206,357);
},
{
name = top_center_can;
pos = (307,714);
},
{
name = top_left_can;
pos = (135,714);
},
{
name = top_right_can;
pos = (469,714);
}
);
background = {
anchors = (
{
name = middle_center_can;
pos = (206,357);
},
{
name = middle_left_can;
pos = (39,357);
},
{
name = middle_right_can;
pos = (725,357);
},
{
name = top_center_can;
pos = (307,714);
},
{
name = top_left_can;
pos = (135,714);
},
{
name = top_right_can;
pos = (469,714);
}
);
shapes = (
{
closed = 1;
nodes = (
(565,0,l),
(565,714,l),
(372,714,l),
(372,167,l),
(39,167,l),
(39,0,l)
);
}
);
};
layerId = "A1461942-0433-4891-A171-8512F51D8C86";
shapes = (
{
closed = 1;
nodes = (
(565,0,l),
(565,714,l),
(372,714,l),
(372,171,l),
(39,171,l),
(39,0,l)
);
}
);
width = 629;
},
{
anchors = (
{
name = middle_center_can;
pos = (164,357);
},
{
name = top_center_can;
pos = (177,714);
},
{
name = top_left_can;
pos = (43,714);
},
{
name = top_right_can;
pos = (310,714);
}
);
background = {
anchors = (
{
name = middle_center_can;
pos = (164,357);
},
{
name = middle_left_can;
pos = (31,357);
},
{
name = middle_right_can;
pos = (415,357);
},
{
name = top_center_can;
pos = (177,714);
},
{
name = top_left_can;
pos = (43,714);
},
{
name = top_right_can;
pos = (310,714);
}
);
shapes = (
{
closed = 1;
nodes = (
(323,0,l),
(323,714,l),
(298,714,l),
(298,24,l),
(31,24,l),
(31,0,l)
);
}
);
};
layerId = "341CD669-D84F-4333-8BC8-F9777E6D3814";
shapes = (
{
closed = 1;
nodes = (
(323,0,l),
(323,714,l),
(298,714,l),
(298,24,l),
(31,24,l),
(31,0,l)
);
}
);
width = 382;
},
{
anchors = (
{
name = middle_center_can;
pos = (141,357);
},
{
name = top_center_can;
pos = (237,714);
},
{
name = top_left_can;
pos = (118,714);
},
{
name = top_right_can;
pos = (345,714);
}
);
background = {
anchors = (
{
name = middle_center_can;
pos = (141,357);
},
{
name = middle_left_can;
pos = (27,357);
},
{
name = middle_right_can;
pos = (559,357);
},
{
name = top_center_can;
pos = (237,714);
},
{
name = top_left_can;
pos = (118,714);
},
{
name = top_right_can;
pos = (345,714);
}
);
shapes = (
{
closed = 1;
nodes = (
(436,0,l),
(436,714,l),
(253,714,l),
(253,160,l),
(27,160,l),
(27,0,l)
);
}
);
};
layerId = "4DD67900-F9B0-4F36-BC45-F4B21129580C";
shapes = (
{
closed = 1;
nodes = (
(436,0,l),
(436,714,l),
(253,714,l),
(253,167,l),
(27,167,l),
(27,0,l)
);
}
);
width = 477;
}
);
metricLeft = "me-canadian";
metricRight = "nunavuth-canadian";
note = uni14A7;
unicode = 5287;
},
{
color = 4;
glyphname = "ma-canadian";
lastChange = "2022-07-04 21:50:21 +0000";
layers = (
{
anchors = (
{
name = middle_center_can;
pos = (318,357);
},
{
name = top_center_can;
pos = (305,714);
},
{
name = top_left_can;
pos = (113,714);
},
{
name = top_right_can;
pos = (497,714);
}
);
background = {
shapes = (
{
closed = 1;
nodes = (
(532,25,l),
(126,25,l),
(126,714,l),
(100,714,l),
(100,0,l),
(532,0,l),
(532,0,l)
);
}
);
};
layerId = m01;
shapes = (
{
closed = 1;
nodes = (
(510,0,l),
(510,25,l),
(126,25,l),
(126,714,l),
(100,714,l),
(100,0,l)
);
}
);
width = 560;
},
{
anchors = (
{
name = middle_center_can;
pos = (424,357);
},
{
name = top_center_can;
pos = (327,714);
},
{
name = top_left_can;
pos = (161,714);
},
{
name = top_right_can;
pos = (493,714);
}
);
background = {
anchors = (
{
name = middle_center_can;
pos = (424,357);
},
{
name = middle_left_can;
pos = (-96,357);
},
{
name = middle_right_can;
pos = (590,357);
},
{
name = top_center_can;
pos = (327,714);
},
{
name = top_left_can;
pos = (161,714);
},
{
name = top_right_can;
pos = (493,714);
}
);
shapes = (
{
closed = 1;
nodes = (
(590,0,l),
(590,167,l),
(257,167,l),
(257,714,l),
(64,714,l),
(64,0,l)
);
}
);
};
layerId = "A1461942-0433-4891-A171-8512F51D8C86";
shapes = (
{
closed = 1;
nodes = (
(590,0,l),
(590,171,l),
(257,171,l),
(257,714,l),
(64,714,l),
(64,0,l)
);
}
);
width = 629;
},
{
anchors = (
{
name = middle_center_can;
pos = (218,357);
},
{
name = top_center_can;
pos = (205,714);
},
{
name = top_left_can;
pos = (72,714);
},
{
name = top_right_can;
pos = (338,714);
}
);
background = {
anchors = (
{
name = middle_center_can;
pos = (218,357);
},
{
name = middle_left_can;
pos = (-33,357);
},
{
name = middle_right_can;
pos = (351,357);
},
{
name = top_center_can;
pos = (205,714);
},
{
name = top_left_can;
pos = (72,714);
},
{
name = top_right_can;
pos = (338,714);
}
);
shapes = (
{
closed = 1;
nodes = (
(351,0,l),
(351,24,l),
(84,24,l),
(84,714,l),
(59,714,l),
(59,0,l)
);
}
);
};
layerId = "341CD669-D84F-4333-8BC8-F9777E6D3814";
shapes = (
{
closed = 1;
nodes = (
(351,0,l),
(351,24,l),
(84,24,l),
(84,714,l),
(59,714,l),
(59,0,l)
);
}
);
width = 382;
},
{
anchors = (
{
name = middle_center_can;
pos = (338,357);
},
{
name = top_center_can;
pos = (246,714);
},
{
name = top_left_can;
pos = (133,714);
},
{
name = top_right_can;
pos = (358,714);
}
);
background = {
anchors = (
{
name = middle_center_can;
pos = (338,357);
},
{
name = middle_left_can;
pos = (-82,357);
},
{
name = middle_right_can;
pos = (450,357);
},
{
name = top_center_can;
pos = (246,714);
},
{
name = top_left_can;
pos = (133,714);
},
{
name = top_right_can;
pos = (358,714);
}
);
shapes = (
{
closed = 1;
nodes = (
(450,0,l),
(450,160,l),
(224,160,l),
(224,714,l),
(41,714,l),
(41,0,l)
);
}
);
};
layerId = "4DD67900-F9B0-4F36-BC45-F4B21129580C";
shapes = (
{
closed = 1;
nodes = (
(450,0,l),
(450,167,l),
(224,167,l),
(224,714,l),
(41,714,l),
(41,0,l)
);
}
);
width = 477;
}
);
metricLeft = "nunavuth-canadian";
metricRight = "=|me-canadian";
note = uni14AA;
unicode = 5290;
},
{
color = 4;
glyphname = "m-canadian";
lastChange = "2022-07-04 10:57:30 +0000";
layers = (
{
background = {
shapes = (
{
closed = 1;
nodes = (
(337,364,l),
(114,364,l),
(114,714,l),
(90,714,l),
(90,342,l),
(337,342,l),
(337,342,l)
);
}
);
};
layerId = m01;
shapes = (
{
closed = 1;
nodes = (
(317,379,l),
(114,379,l),
(114,714,l),
(90,714,l),
(90,357,l),
(317,357,l)
);
}
);
width = 372;
},
{
background = {
shapes = (
{
closed = 1;
nodes = (
(321,463,l),
(155,463,l),
(155,714,l),
(39,714,l),
(39,357,l),
(321,357,l)
);
}
);
};
layerId = "A1461942-0433-4891-A171-8512F51D8C86";
shapes = (
{
closed = 1;
nodes = (
(321,472,l),
(164,472,l),
(164,714,l),
(39,714,l),
(39,357,l),
(321,357,l)
);
}
);
width = 350;
},
{
background = {
shapes = (
{
closed = 1;
nodes = (
(205,378,l),
(65,378,l),
(65,714,l),
(44,714,l),
(44,357,l),
(205,357,l)
);
}
);
};
layerId = "341CD669-D84F-4333-8BC8-F9777E6D3814";
shapes = (
{
closed = 1;
nodes = (
(205,379,l),
(66,379,l),
(66,714,l),
(44,714,l),
(44,357,l),
(205,357,l)
);
}
);
width = 242;
},
{
background = {
shapes = (
{
closed = 1;
nodes = (
(239,458,l),
(129,458,l),
(129,714,l),
(21,714,l),
(21,357,l),
(239,357,l)
);
}
);
};
layerId = "4DD67900-F9B0-4F36-BC45-F4B21129580C";
shapes = (
{
closed = 1;
nodes = (
(239,465,l),
(131,465,l),
(131,714,l),
(21,714,l),
(21,357,l),
(239,357,l)
);
}
);
width = 253;
}
);
note = uni14BB;
unicode = 5307;
},
{
color = 4;
glyphname = "mWestCree-canadian";
lastChange = "2022-07-04 10:57:54 +0000";
layers = (
{
background = {
shapes = (
{
closed = 1;
nodes = (
(351,404,l),
(260,404,ls),
(143,404,o),
(104,457,o),
(104,548,cs),
(104,639,o),
(143,692,o),
(260,692,cs),
(351,692,l),
(351,714,l),
(259,714,ls),
(139,714,o),
(80,659,o),
(80,548,cs),
(80,437,o),
(139,382,o),
(259,382,cs),
(351,382,l),
(351,382,l)
);
}
);
};
layerId = m01;
shapes = (
{
closed = 1;
nodes = (
(335,357,l),
(335,379,l),
(254,379,ls),
(155,379,o),
(103,436,o),
(103,535,cs),
(103,634,o),
(155,692,o),
(254,692,cs),
(335,692,l),
(335,714,l),
(251,714,ls),
(144,714,o),
(80,644,o),
(80,535,cs),
(80,426,o),
(144,357,o),
(254,357,cs)
);
}
);
width = 405;
},
{
background = {
shapes = (
{
closed = 1;
nodes = (
(339,357,l),
(339,460,l),
(235,460,ls),
(184,460,o),
(155,484,o),
(155,535,cs),
(155,585,o),
(184,611,o),
(235,611,cs),
(339,611,l),
(339,714,l),
(227,714,ls),
(108,714,o),
(39,646,o),
(39,535,cs),
(39,423,o),
(108,357,o),
(227,357,cs)
);
}
);
};
layerId = "A1461942-0433-4891-A171-8512F51D8C86";
shapes = (
{
closed = 1;
nodes = (
(339,357,l),
(339,469,l),
(244,469,ls),
(193,469,o),
(164,490,o),
(164,535,cs),
(164,579,o),
(193,602,o),
(244,602,cs),
(339,602,l),
(339,714,l),
(227,714,ls),
(108,714,o),
(39,646,o),
(39,535,cs),
(39,423,o),
(108,357,o),
(227,357,cs)
);
}
);
width = 373;
},
{
background = {
shapes = (
{
closed = 1;
nodes = (
(224,357,l),
(224,379,l),
(167,379,ls),
(99,379,o),
(64,437,o),
(64,535,cs),
(64,633,o),
(99,692,o),
(167,692,cs),
(224,692,l),
(224,714,l),
(164,714,ls),
(89,714,o),
(44,644,o),
(44,535,cs),
(44,426,o),
(89,357,o),
(166,357,cs)
);
}
);
};
layerId = "341CD669-D84F-4333-8BC8-F9777E6D3814";
shapes = (
{
closed = 1;
nodes = (
(224,357,l),
(224,379,l),
(203,379,ls),
(109,379,o),
(67,431,o),
(67,535,cs),
(67,637,o),
(109,692,o),
(203,692,cs),
(224,692,l),
(224,714,l),
(200,714,ls),
(96,714,o),
(44,649,o),
(44,535,cs),
(44,421,o),
(96,357,o),
(202,357,cs)
);
}
);
width = 261;
},
{
background = {
shapes = (
{
closed = 1;
nodes = (
(249,357,l),
(249,455,l),
(203,455,ls),
(156,455,o),
(129,479,o),
(129,535,cs),
(129,591,o),
(156,616,o),
(203,616,cs),
(249,616,l),
(249,714,l),
(195,714,ls),
(86,714,o),
(21,646,o),
(21,535,cs),
(21,424,o),
(86,357,o),
(195,357,cs)
);
}
);
};
layerId = "4DD67900-F9B0-4F36-BC45-F4B21129580C";
shapes = (
{
closed = 1;
nodes = (
(249,357,l),
(249,465,l),
(207,465,ls),
(164,465,o),
(139,489,o),
(139,535,cs),
(139,581,o),
(164,606,o),
(207,606,cs),
(249,606,l),
(249,714,l),
(195,714,ls),
(86,714,o),
(21,642,o),
(21,535,cs),
(21,428,o),
(86,357,o),
(195,357,cs)
);
}
);
width = 268;
}
);
note = uni14BC;
unicode = 5308;
},
{
color = 4;
glyphname = "mh-canadian";
lastChange = "2022-07-04 21:50:21 +0000";
layers = (
{
background = {
shapes = (
{
closed = 1;
nodes = (
(289,714,l),
(265,714,l),
(265,364,l),
(55,364,l),
(55,342,l),
(289,342,l),
(289,342,l)
);
}
);
};
layerId = m01;
shapes = (
{
closed = 1;
nodes = (
(282,357,l),
(282,714,l),
(258,714,l),
(258,379,l),
(55,379,l),
(55,357,l)
);
}
);
width = 372;
},
{
background = {
shapes = (
{
closed = 1;
nodes = (
(311,357,l),
(311,714,l),
(195,714,l),
(195,463,l),
(29,463,l),
(29,357,l)
);
}
);
};
layerId = "A1461942-0433-4891-A171-8512F51D8C86";
shapes = (
{
closed = 1;
nodes = (
(311,357,l),
(311,714,l),
(186,714,l),
(186,472,l),
(29,472,l),
(29,357,l)
);
}
);
width = 350;
},
{
background = {
shapes = (
{
closed = 1;
nodes = (
(198,357,l),
(198,714,l),
(178,714,l),
(178,378,l),
(37,378,l),
(37,357,l)
);
}
);
};
layerId = "341CD669-D84F-4333-8BC8-F9777E6D3814";
shapes = (
{
closed = 1;
nodes = (
(198,357,l),
(198,714,l),
(177,714,l),
(177,379,l),
(37,379,l),
(37,357,l)
);
}
);
width = 242;
},
{
background = {
shapes = (
{
closed = 1;
nodes = (
(232,357,l),
(232,714,l),
(124,714,l),
(124,458,l),
(14,458,l),
(14,357,l)
);
}
);
};
layerId = "4DD67900-F9B0-4F36-BC45-F4B21129580C";
shapes = (
{
closed = 1;
nodes = (
(232,357,l),
(232,714,l),
(122,714,l),
(122,465,l),
(14,465,l),
(14,357,l)
);
}
);
width = 253;
}
);
metricLeft = "=|m-canadian";
metricRight = "=|m-canadian";
note = uni14BD;
unicode = 5309;
},
{
color = 4;
glyphname = "mAthapascan-canadian";
lastChange = "2022-07-04 10:59:30 +0000";
layers = (
{
background = {
shapes = (
{
closed = 1;
nodes = (
(334,357,l),
(334,379,l),
(121,379,l),
(121,364,l),
(288,509,o),
(308,557,o),
(308,619,cs),
(308,679,o),
(262,720,o),
(194,720,cs),
(120,720,o),
(75,672,o),
(75,593,c),
(98,593,l),
(98,662,o),
(133,698,o),
(196,698,cs),
(252,698,o),
(285,669,o),
(285,618,cs),
(285,561,o),
(273,525,o),
(92,366,c),
(92,357,l)
);
}
);
};
layerId = m01;
shapes = (
{
closed = 1;
nodes = (
(334,357,l),
(334,379,l),
(121,379,l),
(121,364,l),
(258,502,ls),
(294,538,o),
(308,572,o),
(308,619,cs),
(308,679,o),
(262,720,o),
(194,720,cs),
(120,720,o),
(75,672,o),
(75,593,c),
(98,593,l),
(98,662,o),
(133,698,o),
(196,698,cs),
(252,698,o),
(285,669,o),
(285,618,cs),
(285,573,o),
(271,545,o),
(233,507,cs),
(92,366,l),
(92,357,l)
);
}
);
width = 399;
},
{
background = {
shapes = (
{
closed = 1;
nodes = (
(326,357,l),
(326,446,l),
(170,446,l),
(170,413,l),
(290,501,o),
(319,544,o),
(319,603,cs),
(319,678,o),
(265,720,o),
(182,720,cs),
(94,720,o),
(36,665,o),
(34,587,c),
(139,587,l),
(139,614,o),
(155,634,o),
(178,634,cs),
(202,634,o),
(215,620,o),
(215,598,cs),
(215,564,o),
(203,540,o),
(47,425,c),
(47,357,l)
);
}
);
};
layerId = "A1461942-0433-4891-A171-8512F51D8C86";
shapes = (
{
closed = 1;
nodes = (
(326,357,l),
(326,450,l),
(173,450,l),
(173,413,l),
(264,495,ls),
(309,535,o),
(319,567,o),
(319,603,cs),
(319,678,o),
(265,720,o),
(182,720,cs),
(94,720,o),
(36,665,o),
(34,587,c),
(143,587,l),
(143,609,o),
(155,629,o),
(180,629,cs),
(201,629,o),
(211,615,o),
(211,598,cs),
(211,580,o),
(203,562,o),
(176,538,cs),
(47,425,l),
(47,357,l)
);
}
);
width = 360;
},
{
background = {
shapes = (
{
closed = 1;
nodes = (
(224,357,l),
(224,378,l),
(75,378,l),
(77,364,l),
(191,518,o),
(207,558,o),
(207,620,cs),
(207,682,o),
(173,720,o),
(126,720,cs),
(72,720,o),
(41,679,o),
(41,601,c),
(62,601,l),
(62,670,o),
(83,699,o),
(126,699,cs),
(165,699,o),
(186,670,o),
(186,620,cs),
(186,566,o),
(178,532,o),
(53,366,c),
(53,357,l)
);
}
);
};
layerId = "341CD669-D84F-4333-8BC8-F9777E6D3814";
shapes = (
{
closed = 1;
nodes = (
(224,357,l),
(224,379,l),
(77,379,l),
(77,364,l),
(169,501,ls),
(203,552,o),
(207,584,o),
(207,620,cs),
(207,682,o),
(173,720,o),
(126,720,cs),
(72,720,o),
(41,679,o),
(41,601,c),
(63,601,l),
(63,670,o),
(83,699,o),
(126,699,cs),
(165,699,o),
(185,670,o),
(185,620,cs),
(185,588,o),
(184,562,o),
(149,509,cs),
(53,366,l),
(53,357,l)
);
}
);
width = 262;
},
{
background = {
shapes = (
{
closed = 1;
nodes = (
(241,357,l),
(241,442,l),
(133,442,l),
(133,410,l),
(200,493,ls),
(238,540,o),
(241,572,o),
(241,608,cs),
(241,664,o),
(209,720,o),
(133,720,cs),
(55,720,o),
(18,664,o),
(18,587,c),
(114,587,l),
(114,629,o),
(120,638,o),
(131,638,cs),
(141,638,o),
(145,629,o),
(145,608,cs),
(145,582,o),
(141,560,o),
(112,525,cs),
(26,421,l),
(26,357,l)
);
}
);
};
layerId = "4DD67900-F9B0-4F36-BC45-F4B21129580C";
shapes = (
{
closed = 1;
nodes = (
(241,357,l),
(241,452,l),
(133,452,l),
(135,410,l),
(202,493,ls),
(240,540,o),
(241,572,o),
(241,608,cs),
(241,664,o),
(209,720,o),
(133,720,cs),
(55,720,o),
(18,664,o),
(18,587,c),
(114,587,l),
(114,629,o),
(120,638,o),
(131,638,cs),
(141,638,o),
(145,629,o),
(145,608,cs),
(145,582,o),
(141,561,o),
(107,520,cs),
(26,421,l),
(26,357,l)
);
}
);
width = 260;
}
);
note = uni14BE;
unicode = 5310;
},
{
color = 4;
glyphname = "mSayisi-canadian";
lastChange = "2022-07-04 11:00:13 +0000";
layers = (
{
background = {
shapes = (
{
closed = 1;
nodes = (
(566,25,l),
(139,25,l),
(139,14,l),
(517,346,o),
(556,408,o),
(556,531,cs),
(556,631,o),
(484,726,o),
(337,726,cs),
(176,726,o),
(90,625,o),
(90,472,c),
(116,472,l),
(116,612,o),
(191,701,o),
(337,701,cs),
(471,701,o),
(530,619,o),
(530,532,cs),
(530,416,o),
(497,360,o),
(112,21,c),
(112,0,l),
(566,0,l)
);
}
);
};
layerId = m01;
shapes = (
{
closed = 1;
nodes = (
(566,25,l),
(139,25,l),
(139,14,l),
(415,274,ls),
(542,394,o),
(556,452,o),
(556,531,cs),
(556,631,o),
(484,726,o),
(337,726,cs),
(176,726,o),
(90,625,o),
(90,472,c),
(116,472,l),
(116,612,o),
(191,701,o),
(337,701,cs),
(471,701,o),
(530,619,o),
(530,532,cs),
(530,458,o),
(516,403,o),
(396,289,cs),
(112,21,l),
(112,0,l),
(566,0,l)
);
}
);
width = 646;
},
{
background = {
shapes = (
{
closed = 1;
nodes = (
(626,159,l),
(297,159,l),
(297,113,l),
(492,275,ls),
(584,351,o),
(611,421,o),
(611,498,cs),
(611,638,o),
(502,729,o),
(340,729,cs),
(160,729,o),
(43,619,o),
(39,462,c),
(230,462,l),
(230,527,o),
(270,567,o),
(333,567,cs),
(391,567,o),
(422,538,o),
(422,488,cs),
(422,448,o),
(409,412,o),
(343,358,cs),
(66,128,l),
(66,0,l),
(626,0,l)
);
}
);
};
layerId = "A1461942-0433-4891-A171-8512F51D8C86";
shapes = (
{
closed = 1;
nodes = (
(626,171,l),
(297,171,l),
(297,113,l),
(492,275,ls),
(584,351,o),
(611,421,o),
(611,498,cs),
(611,638,o),
(502,729,o),
(340,729,cs),
(160,729,o),
(43,619,o),
(39,462,c),
(230,462,l),
(230,520,o),
(270,557,o),
(333,557,cs),
(387,557,o),
(418,530,o),
(418,485,cs),
(418,448,o),
(406,410,o),
(343,358,cs),
(66,128,l),
(66,0,l),
(626,0,l)
);
}
);
width = 666;
},
{
background = {
shapes = (
{
closed = 1;
nodes = (
(388,24,l),
(92,24,l),
(92,13,l),
(341,333,o),
(381,404,o),
(381,541,cs),
(381,660,o),
(320,726,o),
(221,726,cs),
(108,726,o),
(50,640,o),
(50,472,c),
(75,472,l),
(75,628,o),
(122,702,o),
(220,702,cs),
(307,702,o),
(356,648,o),
(356,542,cs),
(356,410,o),
(323,347,o),
(66,20,c),
(66,0,l),
(388,0,l)
);
}
);
};
layerId = "341CD669-D84F-4333-8BC8-F9777E6D3814";
shapes = (
{
closed = 1;
nodes = (
(388,24,l),
(91,24,l),
(91,13,l),
(305,312,ls),
(364,395,o),
(381,470,o),
(381,541,cs),
(381,660,o),
(320,726,o),
(221,726,cs),
(108,726,o),
(50,640,o),
(50,472,c),
(75,472,l),
(75,628,o),
(122,702,o),
(220,702,cs),
(307,702,o),
(356,648,o),
(356,542,cs),
(356,473,o),
(340,402,o),
(281,320,cs),
(66,20,l),
(66,0,l),
(388,0,l)
);
}
);
width = 435;
},
{
background = {
shapes = (
{
closed = 1;
nodes = (
(480,158,l),
(254,158,l),
(254,107,l),
(384,283,ls),
(448,371,o),
(468,445,o),
(468,520,cs),
(468,648,o),
(378,729,o),
(258,729,cs),
(110,729,o),
(28,629,o),
(28,463,c),
(209,463,l),
(209,545,o),
(224,575,o),
(253,575,cs),
(276,575,o),
(289,552,o),
(289,508,cs),
(289,468,o),
(268,416,o),
(226,358,cs),
(49,116,l),
(49,0,l),
(480,0,l)
);
}
);
};
layerId = "4DD67900-F9B0-4F36-BC45-F4B21129580C";
shapes = (
{
closed = 1;
nodes = (
(480,167,l),
(256,167,l),
(260,107,l),
(388,283,ls),
(452,371,o),
(472,445,o),
(472,510,cs),
(472,648,o),
(382,729,o),
(258,729,cs),
(110,729,o),
(28,629,o),
(28,463,c),
(209,463,l),
(209,541,o),
(224,570,o),
(253,570,cs),
(276,570,o),
(289,548,o),
(289,510,cs),
(289,468,o),
(268,416,o),
(226,358,cs),
(49,116,l),
(49,0,l),
(480,0,l)
);
}
);
width = 508;
}
);
note = uni14BF;
unicode = 5311;
},
{
color = 4;
glyphname = "ne-canadian";
lastChange = "2022-07-04 21:50:21 +0000";
layers = (
{
anchors = (
{
name = middle_center_can;
pos = (580,254);
},
{
name = top_center_can;
pos = (574,499);
},
{
name = top_left_can;
pos = (93,499);
},
{
name = top_right_can;
pos = (808,499);
}
);
background = {
shapes = (
{
closed = 1;
nodes = (
(1815,-12,o),
(1923,97,o),
(1923,234,cs),
(1923,373,o),
(1813,481,o),
(1676,481,cs),
(1154,481,l),
(1154,456,l),
(1576,456,l),
(1491,421,o),
(1431,333,o),
(1431,234,cs),
(1431,97,o),
(1539,-12,o),
(1676,-12,cs)
);
},
{
closed = 1;
nodes = (
(1554,13,o),
(1458,110,o),
(1458,234,cs),
(1458,358,o),
(1552,456,o),
(1676,456,cs),
(1801,456,o),
(1896,359,o),
(1896,234,cs),
(1896,110,o),
(1800,13,o),
(1676,13,cs)
);
},
{
closed = 1;
nodes = (
(335,239,ls),
(335,86,o),
(430,-12,o),
(578,-12,cs),
(725,-12,o),
(821,86,o),
(821,234,cs),
(821,381,o),
(723,481,o),
(578,481,cs),
(463,481,o),
(377,418,o),
(356,329,c),
(361,330,l),
(361,714,l),
(335,714,l)
);
},
{
closed = 1;
nodes = (
(709,456,o),
(795,370,o),
(795,235,cs),
(795,100,o),
(711,13,o),
(578,13,cs),
(444,13,o),
(361,98,o),
(361,234,cs),
(361,369,o),
(445,456,o),
(578,456,cs)
);
}
);
};
layerId = m01;
shapes = (
{
closed = 1;
nodes = (
(726,-12,o),
(821,86,o),
(821,235,cs),
(821,381,o),
(727,481,o),
(574,481,cs),
(80,481,l),
(80,456,l),
(497,456,l),
(498,466,l),
(392,436,o),
(339,344,o),
(339,235,cs),
(339,86,o),
(435,-12,o),
(580,-12,cs)
);
},
{
closed = 1;
nodes = (
(447,13,o),
(365,99,o),
(365,235,cs),
(365,371,o),
(447,456,o),
(577,456,cs),
(713,456,o),
(795,370,o),
(795,235,cs),
(795,100,o),
(713,13,o),
(580,13,cs)
);
}
);
width = 911;
},
{
anchors = (
{
name = middle_center_can;
pos = (571,254);
},
{
name = top_center_can;
pos = (552,534);
},
{
name = top_left_can;
pos = (136,534);
},
{
name = top_right_can;
pos = (769,534);
}
);
background = {
anchors = (
{
name = middle_center_can;
pos = (571,254);
},
{
name = middle_left_can;
pos = (-120,357);
},
{
name = middle_right_can;
pos = (1004,357);
},
{
name = top_center_can;
pos = (552,534);
},
{
name = top_left_can;
pos = (136,534);
},
{
name = top_right_can;
pos = (769,534);
}
);
shapes = (
{
closed = 1;
nodes = (
(742,-15,o),
(863,95,o),
(863,250,cs),
(863,417,o),
(746,514,o),
(552,514,cs),
(40,514,l),
(40,347,l),
(361,347,l),
(324,384,l),
(295,345,o),
(281,289,o),
(281,239,cs),
(281,87,o),
(394,-15,o),
(571,-15,cs)
);
},
{
closed = 1;
nodes = (
(503,147,o),
(470,197,o),
(470,249,cs),
(470,301,o),
(503,352,o),
(571,352,cs),
(639,352,o),
(674,301,o),
(674,249,cs),
(674,197,o),
(639,147,o),
(571,147,cs)
);
}
);
};
layerId = "A1461942-0433-4891-A171-8512F51D8C86";
shapes = (
{
closed = 1;
nodes = (
(742,-15,o),
(863,95,o),
(863,250,cs),
(863,417,o),
(746,514,o),
(552,514,cs),
(40,514,l),
(40,345,l),
(361,345,l),
(324,384,l),
(295,345,o),
(281,289,o),
(281,239,cs),
(281,87,o),
(394,-15,o),
(571,-15,cs)
);
},
{
closed = 1;
nodes = (
(503,147,o),
(470,197,o),
(470,249,cs),
(470,301,o),
(503,352,o),
(571,352,cs),
(639,352,o),
(674,301,o),
(674,249,cs),
(674,197,o),
(639,147,o),
(571,147,cs)
);
}
);
width = 902;
},
{
anchors = (
{
name = middle_center_can;
pos = (392,254);
},
{
name = top_center_can;
pos = (388,499);
},
{
name = top_left_can;
pos = (54,499);
},
{
name = top_right_can;
pos = (551,499);
}
);
background = {
anchors = (
{
name = middle_center_can;
pos = (1092,254);
},
{
name = middle_left_can;
pos = (649,357);
},
{
name = middle_right_can;
pos = (1355,357);
},
{
name = top_center_can;
pos = (1088,499);
},
{
name = top_left_can;
pos = (754,499);
},
{
name = top_right_can;
pos = (1251,499);
}
);
shapes = (
{
closed = 1;
nodes = (
(1196,-12,o),
(1263,87,o),
(1263,235,cs),
(1263,381,o),
(1196,481,o),
(1088,481,cs),
(741,481,l),
(741,457,l),
(1029,457,l),
(1028,466,l),
(956,436,o),
(922,342,o),
(922,235,cs),
(922,86,o),
(990,-12,o),
(1092,-12,cs)
);
},
{
closed = 1;
nodes = (
(1002,12,o),
(947,99,o),
(947,235,cs),
(947,371,o),
(1002,457,o),
(1091,457,cs),
(1183,457,o),
(1238,370,o),
(1238,235,cs),
(1238,100,o),
(1183,12,o),
(1092,12,cs)
);
},
{
closed = 1;
nodes = (
(563,-227,l),
(563,230,ls),
(563,395,o),
(503,481,o),
(393,481,cs),
(284,481,o),
(222,395,o),
(222,233,cs),
(222,75,o),
(285,-12,o),
(393,-12,cs),
(471,-12,o),
(528,41,o),
(541,120,c),
(537,149,l),
(537,-227,l)
);
},
{
closed = 1;
nodes = (
(296,12,o),
(247,88,o),
(247,235,cs),
(247,382,o),
(296,457,o),
(393,457,cs),
(489,457,o),
(538,383,o),
(538,235,cs),
(538,88,o),
(488,12,o),
(393,12,cs)
);
}
);
};
layerId = "341CD669-D84F-4333-8BC8-F9777E6D3814";
shapes = (
{
closed = 1;
nodes = (
(500,-12,o),
(563,75,o),
(563,235,cs),
(563,395,o),
(500,481,o),
(391,481,cs),
(41,481,l),
(41,457,l),
(330,457,l),
(330,466,l),
(258,435,o),
(223,342,o),
(223,235,cs),
(223,75,o),
(286,-12,o),
(393,-12,cs)
);
},
{
closed = 1;
nodes = (
(296,12,o),
(248,88,o),
(248,235,cs),
(248,371,o),
(297,457,o),
(393,457,cs),
(488,457,o),
(538,382,o),
(538,235,cs),
(538,88,o),
(490,12,o),
(393,12,cs)
);
}
);
width = 602;
},
{
anchors = (
{
name = middle_center_can;
pos = (416,254);
},
{
name = top_center_can;
pos = (396,534);
},
{
name = top_left_can;
pos = (114,534);
},
{
name = top_right_can;
pos = (551,534);
}
);
background = {
anchors = (
{
name = middle_center_can;
pos = (416,254);
},
{
name = middle_left_can;
pos = (-100,357);
},
{
name = middle_right_can;
pos = (753,357);
},
{
name = top_center_can;
pos = (396,534);
},
{
name = top_left_can;
pos = (114,534);
},
{
name = top_right_can;
pos = (551,534);
}
);
shapes = (
{
closed = 1;
nodes = (
(547,-15,o),
(640,71,o),
(640,250,cs),
(640,429,o),
(550,514,o),
(388,514,cs),
(23,514,l),
(23,354,l),
(229,354,l),
(219,391,l),
(203,352,o),
(192,294,o),
(192,240,cs),
(192,71,o),
(279,-15,o),
(416,-15,cs)
);
},
{
closed = 1;
nodes = (
(390,139,o),
(371,166,o),
(371,251,cs),
(371,336,o),
(390,363,o),
(416,363,cs),
(442,363,o),
(461,337,o),
(461,251,cs),
(461,165,o),
(442,139,o),
(416,139,cs)
);
}
);
};
layerId = "4DD67900-F9B0-4F36-BC45-F4B21129580C";
shapes = (
{
closed = 1;
nodes = (
(547,-15,o),
(640,71,o),
(640,250,cs),
(640,429,o),
(550,514,o),
(388,514,cs),
(23,514,l),
(23,349,l),
(229,349,l),
(219,391,l),
(203,352,o),
(192,294,o),
(192,240,cs),
(192,71,o),
(279,-15,o),
(416,-15,cs)
);
},
{
closed = 1;
nodes = (
(390,139,o),
(371,166,o),
(371,251,cs),
(371,336,o),
(390,363,o),
(416,363,cs),
(442,363,o),
(461,337,o),
(461,251,cs),
(461,165,o),
(442,139,o),
(416,139,cs)
);
}
);
width = 662;
}
);
metricRight = "=|ke-canadian";
note = uni14C0;
unicode = 5312;
},
